<svg xmlns="http://www.w3.org/2000/svg" xml:space="preserve" style="fill-rule:evenodd;clip-rule:evenodd;stroke-linejoin:round;stroke-miterlimit:2" viewBox="0 0 613 248" fill="#1a1a18" stroke="#1a1a18"><path d="M194.7 200.9c-9.9 0-19.4 5.7-30.5 18-12.2 13.8-23 35.7-29.6 63.8h-19.9l-.9 3.9h19.9c-5.9 23.4-13.4 63.1-14.1 66.4-1.1 5.3-6.1 11.7-12 11.7-6.1 0-6.8-6.2-6.8-10.8v-64.5c0-19-20.3-28.6-37.5-28.6-22.6 0-34.8 13.8-34.8 26.3 0 8.4 3.6 13.8 9.9 13.8 5.9 0 10.4-4.4 10.4-10.3 0-11.1-7.5-8.4-7.5-14.3 0-8.9 15.4-11.6 21.9-11.6 8.6 0 18.5 2.7 18.5 14.3v30.3h-4.3c-23.3 0-56.9 6.9-56.9 34.5 0 16.7 10.6 26.3 28.2 26.3 14.9 0 25.1-4.2 32.7-15.3h.5c1.6 8.6 9.3 15.3 19.9 15.3 6.9 0 11.9-2.7 15.7-7.1-4.1 20.2-7.9 38-11.3 49.5-6.1 20.4-14.9 24.1-18.7 24.1-2 0-3.4-.7-3.4-2.5 0-3 4.3-3 4.3-10.1 0-5.9-4.1-10.1-10.2-10.1-5.2 0-10.2 4.9-10.2 12.3 0 6.9 5.9 14.3 13.5 14.3 14.2 0 23.3-6.6 38.6-40.6 10.2-22.4 18.4-63 31.8-113.3h23.7l.7-3.9h-23.7l7-28.1c2.9-11.8 15.1-49.7 28.7-49.7 1.4 0 3.2 0 3.2 2 0 2.2-3.6 3.4-3.6 10.1 0 5.4 4.3 10.6 10.8 10.6 5.9 0 10.8-4.7 10.8-11.3.3-9.2-6.7-15.4-14.8-15.4M81.9 345.5c0 4.9-7.5 18.7-24.4 18.7-14.4 0-16.5-10.3-16.5-24.1 0-26.3 20.6-26.8 37-26.8h3.8v32.2z" style="fill-rule:nonzero" transform="translate(-14 -195)"/><path d="m204.4 315.8 5.6-17.4h.1l5.2 17.4m-10.6 17.3v-1.5h-5.5l4.5-14.1h12.1l4.4 14.1h-5.1v1.5h16v-1.5h-4.4l-13.1-41.9h-2.5l-13.8 41.9h-5v1.5zm29.8 0v-1.5h4.9v-41.2h-4.9v-1.5h2.7c2.4 0 4.8-.1 7.1-.6v43.3h4.9v1.5m3 0v-1.5h4.9v-41.2h-4.9v-1.5h2.7c2.4 0 4.8-.1 7.1-.6v43.3h4.9v1.5m3.7 0v-1.5h4.3v-22.4h-4.3v-1.5h2.1c2.4 0 4.8-.1 7.1-.6v24.6h3.7v1.5m-6.2-42.4c1.5 0 3.2 1.4 3.2 3.1 0 2-1.4 3.4-3.2 3.4s-3-1.5-3-3.4c-.1-1.7 1.4-3.1 3-3.1m25 34.9c0 2.7-.9 3.4-1.4 3.9-1.5 1.3-2.9 1.9-4.9 1.9-2.9 0-4.9-1.9-4.9-5.1 0-5.9 7.1-6.6 11.2-6.7m8.5 9c-.3 1.1-1 2.9-2.2 2.9-1.3 0-1.3-1-1.3-2.9v-15.3c0-2.6 0-6.3-8.6-6.3-7.6 0-10.2 3.8-10.2 6.2 0 1.8 1 3.1 2.7 3.1 1.6 0 2.6-1.1 2.6-2.7 0-2.1-1.9-2.4-1.9-2.9 0-1.9 4.5-2.3 5.9-2.3 2.2 0 4.6.9 4.6 3.9v6.1c-9.7 0-15.8 3.3-16 9.3 0 4.7 3.4 6.3 7.4 6.3 3.2 0 6.4-1.2 8.6-3.9.4 2.4 1.8 3.9 4.1 3.9 2.9 0 5.2-2.2 5.4-5.3h-1.1zm6.9-19.5h-3.5v-1.5h1.3c1.2 0 2.4 0 3.6-.1s2.4-.3 3.6-.5v6.8h.1c1.8-4 4.3-6.8 8.9-6.8 2.3 0 7.6.5 7.6 6.4v18.1h3.4v1.5H331v-1.5h3.3v-17.3c0-4.7-1.5-5.4-4-5.4-4.3 0-7.6 6-7.6 10.8v11.9h3.4v1.5h-11.9v-1.5h3.5m49.9-6.4c-1.5 4.6-4 8.5-10.6 8.8-9.8 0-12.8-8.3-12.8-12.7 0-11.4 9.1-14.2 12.7-14.2 4.1 0 10 1.9 10 6.9 0 1.7-1.1 3.4-2.9 3.4-1.7 0-3-1.2-3-3 0-2.5 2-2.8 2-3.5 0-1.7-4-2.4-5.4-2.4-6.1 0-7.7 4.5-7.7 12.9 0 3.8 1 6.8 1.3 7.7 1 2.1 2.9 3.5 6.2 3.7 3.7.2 7.2-2.8 8.8-7.4m10.7-8.8c.1-1.6.3-3.1.6-4.2.1-.4 1.8-4 5.7-4 3.2 0 5.8 1.5 5.8 6.1v2.2m4.3 8.5c-.9 4.2-5.1 7.4-8.8 7.4-6.9 0-7.7-5.1-7.7-11.5v-2.6h18c-.1-7-5-11.4-11.4-11.4-7.6 0-12.5 6.9-12.5 14.5 0 7.1 6.2 12.4 12.7 12.4 5.6 0 9.9-2.8 11.2-8.8z" style="fill-rule:nonzero" transform="translate(-14 -195)"/><path d="M398.5 333.1v-1.5h5.1v-39.9h-5.1v-1.5h31l.5 11.4h-1.1c-2-7.8-3-9.9-11-9.9h-8.1v18.7c5.7-.1 8.2-.3 8.8-6.7h1.5v15.8h-1.4c-.4-6.5-3-7.5-8.9-7.5v19.6h5.5v1.5m21.3-20h.1c1.1-2.9 3.7-6 7.2-6 2.2 0 3.9 1.2 3.9 3.6 0 1.6-1.7 2.4-3 2.4-1.1 0-2.5-1.3-2.5-2.6 0-.5.3-1.1.3-1.3 0-.4-.4-.4-.6-.4-.1 0-2.2.9-3.6 3.8-.9 1.9-1.6 4.4-1.6 6.9v12.2h4.9v1.5h-14.2v-1.5h4.3v-22.4h-4.3v-1.5h2c2.4 0 4.8-.1 7.1-.6m28.3 18.5c0 2.7-.9 3.4-1.4 3.9-1.5 1.3-2.9 1.9-4.9 1.9-2.9 0-4.9-1.9-4.9-5.1 0-5.9 7.1-6.6 11.2-6.7m8.5 9c-.3 1.1-1 2.9-2.2 2.9-1.3 0-1.3-1-1.3-2.9v-15.3c0-2.6 0-6.3-8.6-6.3-7.6 0-10.2 3.8-10.2 6.2 0 1.8 1 3.1 2.7 3.1 1.6 0 2.6-1.1 2.6-2.7 0-2.1-1.9-2.4-1.9-2.9 0-1.9 4.5-2.3 5.9-2.3 2.2 0 4.6.9 4.6 3.9v6.1c-9.7 0-15.8 3.3-15.9 9.3 0 4.7 3.4 6.3 7.4 6.3 3.2 0 6.4-1.2 8.6-3.9.4 2.4 1.8 3.9 4.1 3.9 2.9 0 5.2-2.2 5.4-5.3h-1.2zm6.5-19.5h-3.5v-1.5h1.3c1.2 0 2.4 0 3.6-.1s2.4-.3 3.6-.5v6.8h.1c1.8-4 4.3-6.8 8.9-6.8 2.3 0 7.6.5 7.6 6.4v18.1h3.4v1.5h-11.7v-1.5h3.3v-17.3c0-4.7-1.5-5.4-4-5.4-4.3 0-7.6 6-7.6 10.8v11.9h3.4v1.5h-11.9v-1.5h3.5m36.4 5.3c.7-.2 1.5-.3 2.2-.3 1.4 0 4.2 1 4.2 4 0 3.8-3.8 4.8-6.9 4.8-1.4 0-3.4-.3-4.7-.9l.8-1.7c1 .3 2.2.7 3.3.7 1.5 0 3.5-.6 3.5-2.4 0-1.6-1.5-2.2-2.4-2.2-1 .1-.5 0-1.7.3l-1-.3 2.5-5.7h2m10.8-8c-1.5 4.6-4 8.5-10.6 8.8-9.8 0-12.8-8.3-12.8-12.7 0-11.4 9.1-14.2 12.7-14.2 4.1 0 10 1.9 10 6.9 0 1.7-1.1 3.4-2.9 3.4-1.7 0-3-1.2-3-3 0-2.5 2-2.8 2-3.5 0-1.7-4-2.4-5.4-2.4-6.1 0-7.7 4.5-7.7 12.9 0 3.8 1 6.8 1.3 7.7 1 2.1 2.9 3.5 6.2 3.7 3.7.2 7.2-2.8 8.8-7.4h1.4zm18.4.5c0 2.7-.9 3.4-1.4 3.9-1.5 1.3-2.9 1.9-4.9 1.9-2.9 0-4.9-1.9-4.9-5.1 0-5.9 7.1-6.6 11.2-6.7m8.5 9c-.3 1.1-1 2.9-2.2 2.9-1.3 0-1.3-1-1.3-2.9v-15.3c0-2.6 0-6.3-8.6-6.3-7.6 0-10.2 3.8-10.2 6.2 0 1.8 1 3.1 2.7 3.1 1.6 0 2.6-1.1 2.6-2.7 0-2.1-1.9-2.4-1.9-2.9 0-1.9 4.5-2.3 5.9-2.3 2.2 0 4.6.9 4.6 3.9v6.1c-9.7 0-15.8 3.3-16 9.3 0 4.7 3.4 6.3 7.4 6.3 3.2 0 6.4-1.2 8.6-3.9.4 2.4 1.8 3.9 4.1 3.9 2.9 0 5.2-2.2 5.4-5.3h-1.1zm2.4 4.4v-1.5h4.3v-22.4h-4.3v-1.5h2.1c2.3 0 4.8-.1 7.1-.6v24.6h3.7v1.5m-6.2-42.4c1.5 0 3.2 1.4 3.2 3.1 0 2-1.4 3.4-3.2 3.4s-3-1.5-3-3.4c0-1.7 1.4-3.1 3-3.1m26.5 16.9v7.2H590c-.9-3.7-3.1-6.4-6.9-6.5-5.2-.1-6 3.9-6 4.7 0 1.9.5 2.8 10.2 4.8 4.9 1 6.6 3.3 6.6 7.3 0 5.5-4.1 8.8-9.1 8.8-2.7 0-5.5-1.1-7.3-3.1l-1.4 2.3h-1.4v-8.5h1.5c1.2 4.6 4.3 8 9 8 2.9 0 6.2-2.2 6.2-5.5 0-2.5-3.5-3.7-8.8-5-4.2-1-7.9-1.6-7.9-7.2 0-2.7 1.7-7.9 8.6-7.9 2 0 3.9.8 5.9 2.4l1.1-1.7m12.5 8.8c.1-1.6.3-3.1.6-4.2.1-.4 1.8-4 5.7-4 3.2 0 5.8 1.5 5.8 6.1v2.2m4.4 8.5c-.9 4.2-5.1 7.4-8.8 7.4-6.9 0-7.8-5.1-7.8-11.5v-2.6h18c-.1-7-4.9-11.4-11.4-11.4-7.6 0-12.5 6.9-12.5 14.5 0 7.1 6.2 12.4 12.7 12.4 5.6 0 9.9-2.8 11.2-8.8z" style="fill-rule:nonzero" transform="translate(-14 -195)"/></svg>