<?xml version="1.0" encoding="UTF-8"?> <svg xmlns="http://www.w3.org/2000/svg" width="260" height="56" viewBox="0 0 260 56" fill="none"><path d="M183.178 21.9481C162.467 16.2966 173.008 1.65286 208.946 0.0061753C173.645 -0.344542 150.572 14.3113 175.741 26.6876C175.984 26.8066 176.28 26.7924 176.508 26.6465L183.251 22.3573C183.419 22.2504 183.372 22.0013 183.178 21.9481Z" fill="black"></path><path d="M171.379 29.7915C148.942 18.5875 160.429 7.19866 181.206 2.06165L181.184 1.96897C149.282 7.41246 134.115 23.022 160.209 36.6789C160.542 36.8532 160.954 36.8374 161.27 36.6358L171.407 30.187C171.558 30.0911 171.538 29.8705 171.379 29.7915Z" fill="black"></path><path d="M16.3855 26.3212H7.87315L5.53251 30.5909H0L11.9884 9.76532H17.9815L22.4158 30.5914H17.1668L16.3861 26.3217L16.3855 26.3212ZM10.0723 22.2953H15.6758L15.2141 19.7608C14.9306 18.0946 14.6115 16.3594 14.3634 14.6933H14.1498C13.2991 16.3589 12.3763 18.0946 11.4546 19.7608L10.0712 22.2953H10.0723Z" fill="black"></path><path d="M30.9615 13.6869C33.9414 13.6869 35.7149 15.1103 35.9269 18.5817L35.9979 18.6165L36.8131 14.1388H41.673L37.8069 35.5894H32.9825L34.6506 26.1837H34.5795C33.1961 29.6204 31.1751 31.0769 28.4089 31.0769C24.3652 31.0769 22.6272 27.5371 23.62 21.8788C24.5428 16.6717 27.0599 13.6869 30.9615 13.6869ZM35.2177 22.9894L35.3603 22.2253V22.26C35.8559 19.518 34.6866 17.9566 32.3804 17.9566C30.0398 17.9566 28.7979 19.5528 28.3023 22.2953C27.8051 25.1421 28.6924 26.8078 31.2096 26.8078C33.2322 26.8078 34.6511 25.3844 35.2177 22.9894Z" fill="black"></path><path d="M52.0998 26.0094H52.0288C50.6099 29.7583 48.4462 31.0769 45.8936 31.0769C42.3111 31.0769 40.8922 28.5087 41.5664 24.6208L43.4819 14.1388H48.3053L46.5673 23.7872C46.2837 25.4892 46.8153 26.8078 48.8364 26.8078C50.788 26.8078 52.1353 25.6966 52.4899 23.7872L54.2279 14.1388H59.0512L56.0724 30.5914H51.248L52.0998 26.0094Z" fill="black"></path><path d="M58.1995 30.5914L61.1438 14.1388H65.9671L63.0228 30.5914H58.1995ZM61.3564 12.4031L61.9235 9.31403H66.9249L66.3578 12.4031H61.3564Z" fill="black"></path><path d="M67.9156 18.095H66L66.7092 14.1386H68.6247L69.3694 10.0079H74.2283L73.4836 14.1386H77.9168L77.2076 18.095H72.7744L71.6035 24.5164C71.391 25.7665 71.8172 26.4595 73.129 26.4595C73.9453 26.4595 74.8315 26.2168 75.4696 26.0788L75.2216 30.4522C73.8742 30.834 72.9869 31.0768 71.3555 31.0768C67.3484 31.0768 66.1065 28.1952 66.7447 24.7254L67.9156 18.095Z" fill="black"></path><path d="M84.9764 13.6869C88.0628 13.6522 89.8008 15.1103 90.0133 18.6165H90.1199L90.899 14.1388H95.7234L92.7791 30.5914H87.9557L88.772 26.1485H88.701C87.2821 29.6188 85.2966 31.0764 82.5303 31.0764C78.4506 31.0764 76.7131 27.5703 77.7414 21.774C78.6642 16.6717 81.2168 13.6522 84.9764 13.6869ZM89.3391 22.9199L89.5517 21.6708C89.7653 19.3442 88.6655 17.9219 86.4663 17.9219C84.1618 17.9219 82.8838 19.518 82.4238 22.1905C81.8911 25.0721 82.7428 26.8078 85.2255 26.8078C87.2826 26.8078 88.7725 25.4191 89.3391 22.9199Z" fill="black"></path><path d="M94.8711 30.5914L97.8155 14.1388H102.639L99.6944 30.5914H94.8711ZM98.028 12.4031L98.5951 9.31403H103.597L103.029 12.4031H98.028Z" fill="black"></path><path d="M106.575 30.5909H101.752L104.695 14.1382H109.519L108.703 18.7555H108.739C110.193 14.9718 112.32 13.688 114.91 13.688C118.492 13.688 119.911 16.2562 119.201 20.1094L117.286 30.5914H112.462L114.2 20.9414C114.519 19.2405 113.952 17.9566 111.931 17.9566C109.98 17.9566 108.632 19.0678 108.313 20.9414L106.575 30.5909Z" fill="black"></path><path d="M120.124 21.6013C121.01 16.6033 124.592 13.6869 129.665 13.6869C135.233 13.6869 137.325 17.1931 136.438 22.0525C136.333 22.5728 136.262 22.9546 136.083 23.5792H124.592C124.521 25.9046 125.657 26.9805 127.891 26.9805C130.089 26.9805 130.977 25.8694 131.65 24.516L135.658 25.9742C134.345 28.8557 131.827 31.0417 127.43 31.0417C122.181 31.0417 118.988 27.7799 120.124 21.6013ZM125.018 20.9067H132.181C132.43 18.7197 131.473 17.6096 129.238 17.6096C127.145 17.6096 125.727 18.5812 125.018 20.9067Z" fill="black"></path><path d="M194.423 19.449C195.523 13.2704 199.92 9.27927 206.092 9.27927C212.404 9.27927 215.384 12.7854 215.455 18.4427L210.454 18.8592C210.454 15.5611 209.071 13.7917 205.738 13.7917C202.296 13.7917 200.063 16.3247 199.494 19.5886C198.715 23.7529 200.24 26.5992 204.141 26.5992C207.226 26.5992 208.894 24.6208 210.063 21.2195L214.958 22.2258C213.468 27.3976 209.922 31.0769 203.964 31.0769C196.763 31.0769 193.216 26.0094 194.423 19.449Z" fill="black"></path><path d="M222.796 13.6869C225.882 13.6522 227.62 15.1103 227.833 18.6165H227.939L228.718 14.1388H233.543L230.598 30.5914H225.775L226.591 26.1485H226.52C225.101 29.6188 223.116 31.0764 220.35 31.0764C216.27 31.0764 214.532 27.5703 215.561 21.774C216.484 16.6717 219.036 13.6522 222.796 13.6869ZM227.158 22.9199L227.371 21.6708C227.585 19.3442 226.485 17.9219 224.286 17.9219C221.981 17.9219 220.704 19.518 220.243 22.1905C219.71 25.0721 220.562 26.8078 223.045 26.8078C225.102 26.8078 226.592 25.4191 227.158 22.9199Z" fill="black"></path><path d="M232.549 30.5909L235.493 14.1382H240.317L239.288 20.0046H239.394C241.097 15.0066 242.586 14.1382 244.963 14.1382H245.779L244.821 19.5528H242.977C240.246 19.5528 239.218 20.2816 238.792 22.7466L237.373 30.5909H232.549H232.549Z" fill="black"></path><path d="M243.898 25.5234L248.58 24.6908C248.686 26.5297 249.645 27.5713 251.737 27.5713C253.19 27.5713 254.006 27.1543 254.148 26.2875C254.361 25.2811 253.794 24.6218 250.956 23.9968C246.416 22.9551 245.104 20.8724 245.636 18.1304C246.168 15.3189 248.615 13.6875 253.048 13.6875C258.083 13.6875 259.609 15.9081 259.999 18.7202L255.212 19.657C255.034 17.9909 254.36 17.0888 252.586 17.0888C251.275 17.0888 250.529 17.539 250.353 18.3031C250.175 19.2747 250.636 20.0388 253.615 20.6634C258.155 21.6012 259.361 23.7524 258.9 26.3918C258.402 29.307 256.062 31.0775 251.416 31.0775C245.635 31.0775 244.11 28.4734 243.897 25.5234" fill="black"></path><path d="M1.6261 44.4774C0.576854 44.4774 0.0893555 44.9577 0.0893555 45.9824V51.9409C0.093122 52.9668 0.581696 53.4449 1.6261 53.4449L9.46374 53.4402C10.5119 53.4402 10.993 52.9599 10.993 51.9341V49.8119C10.993 48.7871 10.5033 48.3079 9.45513 48.3079H8.14061C7.67678 48.3079 7.47769 48.5022 7.47285 48.9551C7.47285 49.4185 7.67517 49.6155 8.14922 49.6155H9.01821C9.41693 49.6155 9.65637 49.8472 9.65637 50.239V51.0894C9.65637 51.9578 9.31146 52.1395 9.01821 52.1395H2.4951C1.80528 52.1395 1.42379 51.7672 1.42379 51.0894V46.8339C1.42379 46.1578 1.80528 45.7844 2.4951 45.7844L9.02789 45.776C9.42177 45.776 9.65637 46.014 9.65637 46.4069C9.65637 46.8671 9.85653 47.0604 10.3241 47.0604C10.7928 47.0578 10.993 46.8671 10.993 46.4264L11.0005 45.9782C10.9956 44.9587 10.506 44.4779 9.45513 44.4779L1.6261 44.4774Z" fill="black"></path><path d="M20.0686 47.032L20.0772 52.7925C20.0772 53.2511 20.2736 53.446 20.7439 53.446C21.2039 53.446 21.403 53.2511 21.403 52.7925V48.339H25.9552C26.6385 48.339 27.0168 48.7113 27.0168 49.3874C27.0216 49.8451 27.2256 50.041 27.6942 50.041C28.1629 50.041 28.362 49.8451 28.362 49.3874C28.3571 47.8034 27.5667 47.032 25.9455 47.032H20.0686Z" fill="black"></path><path d="M38.9756 47.0493C37.9252 47.0493 37.4377 47.5275 37.4377 48.5544V51.9404C37.4426 52.9673 37.9333 53.4454 38.9831 53.4454H44.1928C45.242 53.4454 45.7306 52.9673 45.7306 51.9404V48.5354C45.7306 47.5217 45.242 47.0499 44.1928 47.0499L38.9756 47.0493ZM43.3135 52.1395H39.8354C39.1494 52.1395 38.7727 51.773 38.7727 51.1063V49.3874C38.7727 48.7208 39.1494 48.3543 39.8354 48.3543H43.3135C44.0044 48.3543 44.3859 48.7208 44.3859 49.3874L44.3945 51.0884C44.387 51.7682 44.0044 52.1395 43.3135 52.1395Z" fill="black"></path><path d="M55.4736 47.032C55.006 47.032 54.8069 47.2263 54.8069 47.6844L54.8128 51.0894C54.8128 52.6761 55.6032 53.446 57.2234 53.446H63.0997V47.6844C63.0949 47.2268 62.8936 47.032 62.4234 47.032C61.9617 47.032 61.7642 47.2263 61.7642 47.6844V52.1395H57.2234C56.5314 52.1395 56.151 51.7645 56.151 51.091L56.1413 47.687C56.1413 47.2268 55.9422 47.0325 55.4736 47.0325" fill="black"></path><path d="M72.1765 48.339L72.1851 48.5349V55.3633C72.1851 55.8088 72.3826 56 72.8518 56C73.3135 56 73.512 55.8041 73.512 55.3465V53.4449H78.0701C79.6838 53.4449 80.4704 52.675 80.4704 51.091V49.388C80.4704 47.804 79.6811 47.0325 78.0615 47.0325H72.1765V48.339ZM78.0798 52.1395H73.5206V48.339H78.0615C78.7534 48.339 79.1338 48.7102 79.1338 49.3874V51.0905C79.1338 51.7677 78.761 52.1395 78.0798 52.1395Z" fill="black"></path><path d="M91.0804 47.0314C90.035 47.0314 89.5464 47.5106 89.5464 48.5354V51.9404C89.5512 52.9673 90.0398 53.4454 91.0831 53.4454H96.3116C96.7755 53.4454 96.9745 53.2511 96.9783 52.7898C96.9783 52.3333 96.7792 52.14 96.3116 52.14H91.9521C91.2623 52.14 90.8819 51.7651 90.8819 51.0889V50.892H95.4426C96.4897 50.892 96.9778 50.4138 96.9778 49.3869V48.5459C96.974 47.5191 96.4833 47.0409 95.4324 47.0409L91.0804 47.0314ZM94.7883 49.5849H90.8819V49.3869C90.8819 48.7108 91.2623 48.3395 91.9521 48.3395H95.0057C95.4044 48.3395 95.6439 48.5702 95.6439 48.963C95.6439 49.1947 95.5336 49.5849 94.7883 49.5849Z" fill="black"></path><path d="M113.839 44.4774C113.376 44.4774 113.181 44.6733 113.181 45.1299L113.171 52.793C113.177 53.2517 113.376 53.4449 113.839 53.4449H120.363C123.446 53.4449 124.946 51.9857 124.946 48.9778C124.946 45.9403 123.446 44.4774 120.363 44.4774H113.839ZM119.937 52.1395H114.506V45.7844H119.937C122.373 45.7844 123.609 46.8534 123.609 48.9625C123.609 51.0715 122.373 52.1395 119.937 52.1395Z" fill="black"></path><path d="M135.556 47.0314C134.509 47.0314 134.02 47.5106 134.02 48.5354V51.9404C134.024 52.9673 134.514 53.4454 135.556 53.4454H140.786C141.249 53.4454 141.449 53.2511 141.453 52.7898C141.453 52.3333 141.255 52.14 140.786 52.14H136.428C135.736 52.14 135.357 51.7651 135.357 51.0889V50.892H139.918C140.964 50.892 141.453 50.4138 141.453 49.3869V48.5459C141.449 47.5191 140.957 47.0409 139.907 47.0409L135.556 47.0314ZM139.264 49.5849H135.356V49.3869C135.356 48.7108 135.735 48.3395 136.427 48.3395H139.481C139.88 48.3395 140.118 48.5702 140.118 48.963C140.118 49.1947 140.006 49.5855 139.264 49.5855" fill="black"></path><path d="M151.196 44.4774C150.729 44.4774 150.528 44.6686 150.528 45.1151V52.7925C150.528 53.2511 150.729 53.4449 151.196 53.4449C151.664 53.4449 151.863 53.249 151.863 52.7846V45.1309C151.863 44.6744 151.664 44.4774 151.196 44.4774Z" fill="black"></path><path d="M160.93 53.4449H166.818C168.436 53.4449 169.223 52.6808 169.223 51.1063V49.3874C169.223 47.8034 168.44 47.0319 166.826 47.0319H162.264L162.276 45.1293C162.276 44.6728 162.075 44.4769 161.608 44.4769C161.14 44.4769 160.939 44.668 160.939 45.1135L160.93 53.4449ZM166.818 52.1395H162.275V48.339H166.837C167.514 48.339 167.889 48.7102 167.889 49.3874V51.0905C167.889 51.7677 167.509 52.1395 166.818 52.1395Z" fill="black"></path><path d="M179.84 47.0493C178.79 47.0493 178.302 47.5275 178.302 48.5544V51.9404C178.307 52.9673 178.797 53.4454 179.846 53.4454H185.057C186.106 53.4454 186.594 52.9673 186.594 51.9404V48.5354C186.594 47.5217 186.107 47.0499 185.057 47.0499L179.84 47.0493ZM184.178 52.1395H180.699C180.013 52.1395 179.636 51.773 179.636 51.1063V49.3874C179.636 48.7208 180.013 48.3543 180.699 48.3543H184.178C184.869 48.3543 185.25 48.7208 185.25 49.3874L185.257 51.0884C185.252 51.7682 184.869 52.1395 184.178 52.1395Z" fill="black"></path><path d="M196.338 52.1395C195.868 52.1395 195.67 52.3364 195.67 52.793C195.67 53.2517 195.868 53.4449 196.338 53.4449H202.861C204.208 53.4449 204.836 52.8325 204.842 51.5133C204.836 50.1931 204.207 49.5733 202.859 49.5675H197.642C197.237 49.5675 197.005 49.3395 197.005 48.944C197.005 48.5633 197.234 48.3385 197.634 48.3195H204.158C204.624 48.3195 204.826 48.1262 204.826 47.667C204.826 47.2152 204.624 47.0235 204.158 47.0235L197.634 47.014C196.293 47.014 195.67 47.6265 195.67 48.944C195.67 50.2616 196.296 50.874 197.642 50.874H202.86C203.261 50.874 203.499 51.1142 203.499 51.5144C203.499 51.9109 203.266 52.1389 202.86 52.1389H196.337L196.338 52.1395Z" fill="black"></path></svg> 