<svg xmlns="http://www.w3.org/2000/svg" xml:space="preserve" style="fill-rule:evenodd;clip-rule:evenodd;stroke-linejoin:round;stroke-miterlimit:2" viewBox="0 0 678 224" fill="#1a1a18" stroke="#1a1a18"><path d="M656.783 187.075c72.506 8.551 102.265 37.839 102.536 96.659.27 58.815-45.244 93.867-48.949 96.871a115.3 115.3 0 0 1-23.953 15.83c-9.932 5.087-28.15 13.64-34.751 12.619-6.593-1.021 3.674-4.534 13.644-14.234 4.911-4.782 6.195-17.493-4.786-14.713-15.802 4-86.047 3.252-115.302-35.805-29.25-39.057-9.667-115.413 15.037-137.136 24.705-21.716 76.061-22.508 96.524-20.091m7.245 44.994a19 19 0 0 0-.947-.283q-.074-.017-.148-.028c-.609-.095-7.749-1.187-11.734-1.797l-1.161-.177a1.89 1.89 0 0 0-2.061 1.245 33 33 0 0 0-1.128 4.26c-.335 1.703-1.96 8.637-3.264 14.209l-.115.488c-2.191 9.367-3.759 16.103-3.967 17.433-.164.935-2.988 11.937-5.051 19.971a1932 1932 0 0 0-3.02 11.825 1.882 1.882 0 0 0 1.625 2.316c2.07.218 5.883.292 8.158.339l.28.006c1.738.036 3.321.069 4.538.135q.052.002.103.002c.864 0 1.621-.596 1.825-1.435 1.046-4.334 4.603-18.996 6.502-25.742 2.568-9.128 8.919-33.312 10.804-40.506a1.885 1.885 0 0 0-1.239-2.261m-22.508 87.702-.408-.078c-2.596-.507-10.493-2.045-12.544-2.502a1.882 1.882 0 0 0-2.269 1.603l-1.716 13.919a1.88 1.88 0 0 0 1.118 1.95l10.839 4.677a1.88 1.88 0 0 0 1.582-.044 1.88 1.88 0 0 0 .987-1.236l3.876-16.004q.053-.219.053-.443c0-.895-.64-1.672-1.518-1.842" transform="translate(-81.591 -186.132)"/><path d="M122.245 260.707v-12.952H81.591v66.37h40.654v-12.952H97.759v-14.561h21.65v-12.479h-21.65v-13.426zm30.064-12.952v39.614q0 8.887 3.593 15.08c2.257 4 5.668 7.23 9.786 9.265a31.15 31.15 0 0 0 14.038 3.073c4.92.069 9.79-.999 14.229-3.121a24.2 24.2 0 0 0 10.164-9.264q3.78-6.144 3.783-15.033v-39.614h-16.169v39.709q0 5.954-3.024 9.171t-8.698 3.214q-5.672 0-8.606-3.214-2.928-3.213-2.927-9.171v-39.709zm138.885 66.37-15.318-26.283a20.1 20.1 0 0 0 11.016-7.374 19.77 19.77 0 0 0 3.735-11.818 21 21 0 0 0-2.742-10.638 18.9 18.9 0 0 0-8.274-7.515 29.9 29.9 0 0 0-13.378-2.742h-27.132v66.37h16.165v-25.054h3.878l13.803 25.054zm-35.928-52.944h10.022q4.446 0 6.666 2.174a7.97 7.97 0 0 1 2.223 5.955 8.2 8.2 0 0 1-2.223 6.145q-2.222 2.18-6.666 2.176h-10.022zm105.983-.474v-12.952h-40.651v66.37h40.651v-12.952h-24.486v-14.561h21.65v-12.479h-21.65v-13.426zm-9.736-38.859-22.784 10.969v11.157l22.784-9.55zm129.525 92.277-26.662-33.847 25.717-32.523h-19.005l-22.123 29.121v-29.121h-16.167v66.37h16.167v-29.309l22.31 29.309z" style="fill-rule:nonzero" transform="translate(-81.591 -186.132)"/><path d="M397.842 284.729h-11.483c-2.506 0-4.568-2.062-4.568-4.568s2.062-4.569 4.568-4.569h11.483c2.504.004 4.562 2.065 4.562 4.569s-2.058 4.564-4.562 4.568" style="fill-rule:nonzero" transform="translate(-81.591 -186.132)"/><path d="M243.649 350.711h1.316l-3.442-9.498h-1.437l-3.454 9.498h1.316l.765-2.126h4.169zm-4.576-3.139 1.726-4.824 1.728 4.824zm19.007-3.646a4.3 4.3 0 0 0-1.705-2.123 5.12 5.12 0 0 0-5.118-.131 4.56 4.56 0 0 0-1.736 1.74 5.28 5.28 0 0 0 0 5.024 4.6 4.6 0 0 0 1.736 1.734 4.8 4.8 0 0 0 2.423.624 4.596 4.596 0 0 0 3.95-2.12 4.7 4.7 0 0 0 .739-2.158v-.959h-5.139v1.014h3.811a3.46 3.46 0 0 1-1.058 2.261 3.26 3.26 0 0 1-2.303.838 3.55 3.55 0 0 1-1.801-.461 3.26 3.26 0 0 1-1.262-1.308 4.5 4.5 0 0 1 0-3.952 3.27 3.27 0 0 1 1.262-1.319 3.6 3.6 0 0 1 1.801-.458 3.3 3.3 0 0 1 1.756.458c.504.309.904.76 1.151 1.296zm9.95-1.754v-1.027h-5.139v9.566h5.139v-1.029h-3.892v-3.289h3.483v-1.027h-3.483v-3.194zm12.28-1.027h-1.246v7.592l-5.016-7.592H272.8v9.566h1.248v-7.608l5.016 7.608h1.246zm4.538 4.782a5 5 0 0 0 .629 2.509c.406.724 1 1.323 1.72 1.734a4.8 4.8 0 0 0 2.419.624 4.93 4.93 0 0 0 2.727-.747 4.32 4.32 0 0 0 1.702-2.118h-1.496a2.95 2.95 0 0 1-1.143 1.321 3.35 3.35 0 0 1-1.79.46 3.5 3.5 0 0 1-1.795-.466 3.26 3.26 0 0 1-1.247-1.323 4.65 4.65 0 0 1 0-4.001 3.25 3.25 0 0 1 1.247-1.324 3.5 3.5 0 0 1 1.795-.464 3.3 3.3 0 0 1 1.79.464c.505.32.903.783 1.143 1.33h1.496a4.33 4.33 0 0 0-1.702-2.137 4.9 4.9 0 0 0-2.727-.753 4.74 4.74 0 0 0-2.419.63 4.57 4.57 0 0 0-1.72 1.746 5.05 5.05 0 0 0-.629 2.515m19.064-3.755v-1.027h-5.142v9.566h5.142v-1.029h-3.892v-3.289h3.48v-1.027h-3.48v-3.194zm14.28-1.013h-2.974v9.552h2.974a6 6 0 0 0 2.707-.569 4.03 4.03 0 0 0 1.754-1.645c.422-.78.632-1.656.61-2.542a5.1 5.1 0 0 0-.61-2.549 4.1 4.1 0 0 0-1.754-1.666 5.9 5.9 0 0 0-2.707-.581m0 8.523h-1.728v-7.51h1.728a3.78 3.78 0 0 1 2.818.999 3.83 3.83 0 0 1 .979 2.784 3.73 3.73 0 0 1-.973 2.748 3.82 3.82 0 0 1-2.824.979m9.594 1.029h1.246v-9.552h-1.246zm14.979-6.785a4.3 4.3 0 0 0-1.706-2.123 5.12 5.12 0 0 0-5.117-.131 4.56 4.56 0 0 0-1.736 1.74 5.28 5.28 0 0 0 0 5.024 4.6 4.6 0 0 0 1.736 1.734 4.8 4.8 0 0 0 2.422.624 4.6 4.6 0 0 0 3.951-2.12 4.7 4.7 0 0 0 .738-2.158v-.959h-5.139v1.014h3.811a3.44 3.44 0 0 1-1.058 2.261 3.26 3.26 0 0 1-2.303.837 3.54 3.54 0 0 1-1.8-.46 3.26 3.26 0 0 1-1.262-1.308 4.49 4.49 0 0 1 0-3.952 3.26 3.26 0 0 1 1.262-1.319 3.6 3.6 0 0 1 1.8-.458 3.3 3.3 0 0 1 1.756.458c.504.308.905.76 1.151 1.296zm4.81 6.785h1.246v-9.552h-1.246zm5.661-9.552v1.013h2.618v8.539h1.247v-8.539h2.604v-1.013zm17.295 9.552h1.319l-3.442-9.498h-1.44l-3.453 9.498h1.316l.767-2.126h4.166zm-4.576-3.139 1.726-4.825 1.728 4.825zm11.525-6.413h-1.246v9.552h4.592v-1.015h-3.346zm12.693 1.013v-1.027h-5.14v9.566h5.14v-1.029h-3.894v-3.289h3.48v-1.027h-3.48v-3.194zm10.84 3.755a5 5 0 0 0 .63 2.509c.406.723 1 1.322 1.72 1.734a4.8 4.8 0 0 0 2.42.624 4.94 4.94 0 0 0 2.727-.747 4.3 4.3 0 0 0 1.698-2.118h-1.492a2.94 2.94 0 0 1-1.146 1.321 3.35 3.35 0 0 1-1.787.46 3.5 3.5 0 0 1-1.797-.466 3.3 3.3 0 0 1-1.247-1.323 4.67 4.67 0 0 1 0-4.001c.282-.55.715-1.01 1.247-1.324a3.5 3.5 0 0 1 1.797-.464 3.33 3.33 0 0 1 1.787.464c.506.319.905.783 1.146 1.33h1.492a4.32 4.32 0 0 0-1.698-2.137 4.9 4.9 0 0 0-2.727-.753 4.74 4.74 0 0 0-2.42.629 4.6 4.6 0 0 0-1.72 1.747 5.04 5.04 0 0 0-.63 2.515m20.449 4.784-2.4-4.003a2.845 2.845 0 0 0 2.275-2.78c0-.491-.127-.974-.37-1.401a2.56 2.56 0 0 0-1.118-.999 4.1 4.1 0 0 0-1.827-.369h-3.084v9.552h1.245v-3.906h1.51l2.273 3.906zm-5.279-8.525h1.839a2.18 2.18 0 0 1 1.526.465c.348.347.531.827.501 1.318a1.8 1.8 0 0 1-.507 1.334 2.08 2.08 0 0 1-1.52.501h-1.839zm15.104-.014v-1.027h-5.138v9.566h5.138v-1.029h-3.892v-3.289h3.482v-1.027h-3.482v-3.194zm-1.369-4.166-2.921 1.713v.933l2.921-1.564zm12.552 12.705h1.316l-3.439-9.498h-1.44l-3.452 9.498h1.314l.768-2.126h4.168zm-4.578-3.139 1.728-4.825 1.728 4.825zm9.691-6.413v1.013h2.617v8.539h1.249v-8.539h2.604v-1.013zm10.881 9.552h1.245v-9.552h-1.245zm12.828-9.552-3.001 8.236-3.002-8.236h-1.328l3.603 9.552h1.441l3.604-9.552zm10.705 1.013v-1.027h-5.141v9.566h5.141v-1.029h-3.892v-3.289h3.481v-1.027h-3.481v-3.194z" style="fill-rule:nonzero" transform="translate(-81.591 -186.132)"/></svg>