<svg xmlns="http://www.w3.org/2000/svg" xml:space="preserve" viewBox="0 0 6170.59 4596.42" fill="#1a1a18" stroke="#1a1a18"><path d="M2957.44 918.38c22.54-.75 43.98-25.87 55.42-44.34-1.49 5.19-1.86 9.97-1.86 14.43 0 19.58 12.59 29.91 29.58 29.91 30.35 0 55.67-18.84 77.86-48.14-.03 1.01-.18 2.09-.18 3.08 0 26.58 19.24 45.8 49.15 45.8 57.23 0 108.96-49.51 135.19-108.97-3.35-4.42-7.75-7.03-14.02-5.91-21.06 47.64-65.04 94.56-108.97 94.56-16.27 0-22.92-9.23-22.92-24.02 0-2.94.39-6.26.72-9.59 19.96-2.97 34.03-8.86 50.25-17.73 32.49-18.09 56.13-55.04 56.13-82.74 0-19.96-11.82-34.71-40.63-34.71-39.06 0-79.39 51.39-96.44 100.06-12.21 20.59-27.5 40.6-42.54 53.6-12.21 10.34-21.44 14.02-27 14.02-7.37 0-10.72-4.78-10.72-13.28 0-8.13 3.35-19.57 8.53-34 12.92-34.72 53.54-113.01 108.58-190.58h-45.41c-3.68 6.65-33.26 59.1-52.07 91.23-10.01-12.2-21.44-16.98-33.64-16.98-46.51 0-100.44 76.83-109.35 126.31-1.43 7.04-1.82 14.05-1.82 19.96-.02 23.63 9.93 38.77 36.16 38.03m267.96-176.2c5.5 0 8.47 5.55 8.47 14.4 0 19.96-14.4 56.16-38.05 77.57-11.43 9.98-20.29 14.79-35.46 16.64 8.85-46.18 47.28-108.61 65.04-108.61M3045.02 754c5.88 0 10.66 3.33 13.63 11.08-10.72 21.06-45.03 84.96-69.06 112.67-7.42 8.5-14.07 12.57-19.56 12.57-7.04 0-11.49-6.65-11.11-19.96 1.1-36.95 56.9-116.36 86.1-116.36M1933.87 391.17l13.62 73.58c5.54 29.94 10.09 56.59 13.68 80 3.57 23.39 6.7 46.42 9.4 69.04 2.81-.9 6.28-1.82 10.39-2.76 4.11-.95 10.24-2.18 18.35-3.67 8.11-1.5 18.84-3.48 32.18-5.95 13.71-2.53 31.56-5.84 53.56-9.9 24.9-4.61 44.47-8.14 58.76-10.59 14.27-2.46 26.31-4.4 36.13-5.84-1.13-2.03-8.5-41.88-8.51-45.99a941 941 0 0 1-61.21 16.92c-20.37 4.89-40.82 9.22-61.38 13.03-2.97-14.01-6.3-30.53-10.01-49.63-3.72-19.07-7.47-38.9-11.27-59.46l-13.62-73.57c-5.53-29.93-10.09-56.6-13.67-80s-6.82-46.93-9.71-70.65c-6 1.86-82.46 15.99-88.72 16.4 5.78 23.18 11.18 46.34 16.2 69.47 5.01 23.1 10.3 49.63 15.83 79.57M2178 316.42c8.38-16.69 15.49-30.86 21.31-42.51 5.83-11.65 10.29-21.23 13.41-28.77q4.665-11.28 7.26-18.09c1.71-4.52 2.64-8.09 2.8-10.72.17-2.62.06-5.02-.27-7.2-.83-5.43-2.76-10.14-5.78-14.14-3.02-3.99-6.64-7.06-10.87-9.18-4.24-2.14-8.72-3.58-13.47-4.36-4.76-.74-9.31-.79-13.66-.13-7.25 1.12-13.13 3.88-17.65 8.27-4.53 4.41-8.38 13.16-11.57 26.26-3.18 13.12-6.02 32.1-8.52 56.97-2.51 24.88-5.18 58.32-8.02 100.31l14.43 3.35c12.01-23.35 22.21-43.38 30.6-60.06m196.03 176.01q6.36-28.875 14.4-57.93c9.44-1.35 115.23-12.43 126.95-13.29 8.87 17.87 17.39 35.79 25.53 53.74 8.15 17.96 16.08 35.58 23.79 52.83 7.58-1.53 85.83-9.72 94.66-9.91-12.8-20.04-27.18-44.72-43.16-74.03q-23.97-43.95-49.56-93c-17.07-32.69-34.11-66.03-51.13-100.02s-32.99-65.88-47.9-95.66c-3.58 1.11-37.88 4.71-41.59 4.35-5.86 21.64-12.36 44.99-19.5 70.08-7.15 25.08-14.44 50.57-21.88 76.42-7.43 25.87-14.9 51.44-22.38 76.75-7.5 25.31-14.51 49-21.04 71.07q-9.825 33.12-18.12 59.43c-5.55 17.55-10.01 31.3-13.39 41.23 5.03-1.26 48.63-5.84 53.08-5.56 3.24-18.4 6.98-37.24 11.24-56.5m43.03-159.68c6.16-22.2 12.82-44.75 20.02-67.64 11.04 20.98 21.6 41.71 31.68 62.23 10.07 20.52 20.29 41.5 30.65 62.9l-100.14 10.48c5.7-23.07 11.63-45.75 17.79-67.97m209.36-141.79c8-1.54 16.73-3.02 26.22-4.45 9.47-1.42 18.76-2.67 27.9-3.71 9.12-1.04 17.71-1.96 25.75-2.76 8.03-.79 14.8-1.34 20.29-1.65.95 4 1.75 10.38 2.42 19.16.65 8.78 1.27 18.49 1.84 29.1l7.41 137.34c1.65 30.41 2.74 57.42 3.27 81.09.54 23.67.69 46.9.47 69.68 6.17-1.08 83.83-5.27 90.1-4.86-2.7-22.63-5.05-45.73-7.06-69.32s-3.83-50.57-5.47-80.98l-7.4-137.34-1.58-29.11c-.23-4.4-.36-8.25-.35-11.56 0-3.31.14-5.88.41-7.73 5.49-.3 12.28-.48 20.35-.55 8.07-.06 16.62-.06 25.62 0 9.01.06 18.1.31 27.31.73 9.2.42 17.51.98 24.88 1.69-.95-3.99-3.12-44.28-2.61-48.34-11.33.97-269.9 14.93-282.38 15.24.95 3.97 3.12 44.25 2.61 48.33m360.66 87.57.51 74.82c.2 30.45.01 57.49-.55 81.15-.57 23.65-1.52 46.87-2.83 69.62 2.93-.39 6.5-.69 10.72-.9 4.21-.21 10.46-.34 18.7-.4 8.25-.06 19.17-.13 32.74-.23 13.94-.1 32.1-.23 54.48-.37 25.3-.18 45.19-.23 59.67-.14s26.72.27 36.59.57c-.72-2.19-1.02-42.71-.31-46.75-21.23 2.71-42.32 4.69-63.22 5.92-20.9 1.25-41.8 1.95-62.71 2.09-1.25-22.01-1.95-44.92-2.12-68.77-.08-11.73-.08-23.47.04-35.21.1-11.73.11-23.46.04-35.2 41.43-.28 83.1 1.07 124.9 4.09-.76-5.86-1.38-41.06-.31-47.32-20.93 1.25-40.99 2.31-60.22 3.17-19.26.88-40.8 1.57-64.64 2.09-.13-20.17-.18-40.16-.13-59.97.04-19.8.73-39.79 2.06-59.98 4.03-.02 10.83.11 20.37.41 9.53.31 20.27.78 32.2 1.43 11.91.67 24.22 1.31 36.86 1.96 12.69.65 24.3 1.29 34.95 1.95-.76-4.03-1.74-41.99-.31-47.87-7.14.78-196.4 1.72-212.92 1.46 1.62 23.83 2.89 47.57 3.79 71.23.89 23.66 1.43 50.7 1.65 81.15m313.98 225.79 32.72 1.23c13.92.52 32.06 1.21 54.42 2.06 25.3.96 45.15 1.79 59.64 2.53 14.48.73 26.66 1.46 36.54 2.2-.67-2.23.87-42.71 1.77-46.73-21.36 1.76-42.5 2.8-63.43 3.1s-41.86.08-62.73-.72c.15-14.31.51-31.18 1.08-50.6.54-19.43 1.23-39.61 2.02-60.5l2.81-74.77c1.16-30.42 2.54-57.44 4.17-81.06a2411 2411 0 0 1 5.99-71.06c-6.27.5-83.97-2.44-90.16-3.42.56 23.89.77 47.65.62 71.32-.18 23.68-.82 50.72-1.97 81.15l-2.85 74.77c-1.15 30.42-2.53 57.43-4.15 81.05-1.63 23.62-3.6 46.76-5.93 69.43 2.94-.27 6.53-.41 10.75-.42 4.21-.04 10.45.11 18.69.44m346.31-49.26c1.08-23.65 2.76-50.64 5.1-81l5.67-74.6c2.33-30.36 4.77-57.3 7.3-80.84 2.53-23.53 5.43-47.13 8.72-70.79-6.29.27-83.81-5.66-89.98-6.87-.36 23.9-1.08 47.65-2.12 71.3-1.08 23.65-2.76 50.65-5.1 81l-5.71 74.6c-2.3 30.37-4.73 57.3-7.27 80.84-2.53 23.53-5.4 46.58-8.59 69.14 6.26-.26 83.81 5.66 89.98 6.87.27-22.79.93-46 2-69.65m120.35 79.85c8.21.96 19.04 2.23 32.52 3.81q20.76 2.445 54.12 6.33c25.12 2.94 44.87 5.34 59.26 7.23 14.35 1.86 26.45 3.56 36.22 5.07-.46-2.27 4.24-42.51 5.45-46.44-21.44.08-42.6-.56-63.48-1.9-20.91-1.33-41.73-3.22-62.51-5.66 1.49-21.99 3.62-44.81 6.37-68.5 1.38-11.65 2.81-23.29 4.38-34.94 1.53-11.62 2.99-23.28 4.37-34.93 41.17 4.82 82.3 11.31 123.47 19.44-.05-5.91 3.68-40.92 5.51-46.99-20.91-1.34-40.97-2.76-60.15-4.28-19.22-1.51-40.68-3.47-64.42-5.88 2.35-20.02 4.76-39.87 7.27-59.52 2.48-19.65 5.63-39.42 9.44-59.28 3.99.47 10.72 1.45 20.13 2.92 9.44 1.49 20.04 3.28 31.78 5.39 11.77 2.13 23.87 4.28 36.35 6.48 12.49 2.21 23.98 4.28 34.46 6.25-.28-4.09 3.43-41.88 5.55-47.54-7.37-.13-195.11-22.49-211.46-24.77-1.33 23.85-2.99 47.56-5.01 71.15-2.03 23.58-4.81 50.49-8.34 80.72l-8.73 74.33c-3.53 30.24-7.06 57.05-10.54 80.46s-7.27 46.34-11.36 68.74c2.94-.02 6.53.12 10.75.43 4.2.28 10.42.93 18.6 1.88m351.65-20.93c3.38-23.44 7.7-50.14 12.97-80.12l3.91-22.22 4.86.86 67.01 187.74c8.42.72 89.87 15.05 98.06 17.25a14369 14369 0 0 1-43.65-101.25c-14.5-34.01-27.73-67.89-39.66-101.66 28.3-2.09 51.13-10.19 68.49-24.26 17.38-14.07 28.37-34.3 33-60.67 2.87-16.26 2.15-30.8-2.09-43.66-4.25-12.84-11.11-24.2-20.55-34.05a93 93 0 0 0-13.43-11.03c-4.81-3.26-10.62-6.25-17.42-8.93-6.78-2.67-14.99-5.23-24.61-7.68-9.62-2.43-21.31-4.86-35.03-7.27-18.45-3.24-33.95-5.49-46.58-6.78-12.62-1.29-23.8-2.79-33.55-4.5-9.03-1.59-17.12-3.29-24.26-5.1s-13.71-3.61-19.7-5.43a2510 2510 0 0 1-9.08 70.74c-3.38 23.44-7.7 50.15-12.96 80.12l-12.95 73.69c-5.3 29.99-10.34 56.57-15.15 79.74-4.81 23.16-9.93 45.83-15.3 67.98 6.27.35 82.85 13.8 88.86 15.62 2.51-22.68 5.43-45.71 8.81-69.13m48.5-272.74c14.82 2.6 27.41 5.56 37.82 8.88 10.39 3.31 18.53 8 24.36 14.06 5.8 6.05 9.52 14.06 11.12 24.01 1.59 9.98 1 22.9-1.78 38.8-4.58 26-14.31 44.31-29.19 54.92-14.92 10.59-34.29 13.8-58.13 9.6-1.82-.32-3.68-.73-5.63-1.27-1.97-.52-3.99-1.17-6.09-1.9 8.62-49.13 17.8-98.17 27.52-147.1M925.82 3020.38h545.04V2807.4h-274.82v-645.79h240.47v-212.97h-240.47V1332.6h274.82v-212.98H925.82zm-4.57-2028.99 11.44 89.3 540.47-80.13-13.76-89.33zm1251.93 1486.24c-4.57-192.36-34.35-279.38-151.14-345.78v-22.92c132.82-82.42 203.81-231.3 203.81-455.7V1612c0-332.06-176.33-492.38-416.79-492.38H1545.7v1900.75h263.35v-825.74c75.58 0 105.35 50.36 109.93 153.42l11.45 425c2.28 107.63 11.45 185.49 34.35 247.33h241.55c3.99-11.14 7.68-22.44 12.33-33.24-25.73-54.12-34.32-128.12-38.62-253.02zm-219.85-654.69c0 180.92-50.39 245.04-125.95 245.04h-18.33v-836.42h18.33c75.57 0 125.95 64.12 125.95 247.33zm559.04 845.74 8.2-133.79h148.86l3.64 59.32c81.13-28.31 165.59-45.11 248.1-49.26L2790.8 1119.63h-366.41l-161.01 1784.24c61.08-96.39 148.27-175.83 248.99-235.19m72.32-1197.65h22.91l48.08 848.6h-121.36zm460.09 1077.5c36.92 3.63 74.85 8.82 107.35 14.2 9.71-115.13 72.68-212.95 162.88-276.19V1119.62h-270.23zm855.9-1428.91h-256.51v1385.25c63.86 9.98 123.65 35.54 182.09 74.85-59.33 77.13-107.44 119.2-182.09 153.59-20.37 9.39-42.34 18.31-67.53 27.09 12.54-3.19 42.14 47.71 67.53 96.78 20.37 39.37 38.03 77.54 41.95 85.68 12.2 25.29 22.99 51.21 31.89 77.53h182.67c277.09 0 425.94-178.64 425.94-595.4v-709.92c0-419.09-148.85-595.45-425.94-595.45m158 1614.34c0 105.35-41.22 160.31-123.66 160.31h-27.48V1229.44h27.48c82.44 0 123.66 57.26 123.66 162.6zm355.8-1614.34h270.22v1900.75h-270.22zm807.9 1117.57h-22.9l-176.35-1117.57h-251.89v1900.76h249.6l-29.75-1117.54h22.9l176.32 1117.54h251.9V1119.62h-249.59zm862.05-904.59v-212.98h-545.04v1900.76h545.04V2807.4h-274.81v-645.79h240.47v-212.97h-240.47V1332.6zM606.29 1815.34H855.9l-15.5-245.04c0-277.09-114.5-460.3-341.22-460.3-233.58 0-370.99 190.08-370.99 570.24v854.17c0 334.35 130.53 510.7 313.74 510.7 123.65 0 176.34-75.58 194.65-158.02h22.9c20.16 83.31 94.74 141.99 180.45 141.99h.47v-888.53H572.47v669.11c0 66.41-25.19 107.64-71 107.64-48.08 0-75.57-41.22-75.57-112.21V1344.91c0-71 27.49-112.23 75.57-112.23 45.81 0 71 41.22 71 107.65v246c0 80.16 17.78 160.32 33.82 229.01"/><path d="M3558.12 2827.63c-13.29-28.75-45.47-65.99-92-98.12 107.37-7.12 219.78-72.84 298.18-135.5-106.92-58.95-228.64-67.67-329.13-13.97 21.6-88.4-.85-189.84-30.53-273l-3.61-9.6-8.83 5.39c-81.32 49.06-151.26 128.11-167.08 224.05-4.85 30.52-3.87 62.14 7.46 91.14l4.74 12.14c1.22 3.59 2.85 7.05 4.43 10.51-4.09 3.6-7.76 7.61-10.97 11.94-143.07-33.79-317.83-36.43-515 14.65-319.32 82.73-566.84 433.08-465.8 781.01 20.77 91.33 17.53 199.6-30.73 247.86 41.47 5.53 82.91-4.94 120.97-25.63-5.61 56.76-16.09 81.18-39.03 120.5 35.14-4.13 75.22-23.15 110.3-47.99 33.01 91.22 79.43 142.86 79.43 142.86s12.83-28.24 25.19-68.59c46.47 36.49 99.17 71.58 158.59 104.81l13-50.88c38.92 17.19 70.01 28.64 92.45 36.04 5.18 11.14 10.32 22.18 15.39 33.07l-23.45 119.12c-61.92-15.54-125.24-30.53-190.23-25.92-45.4 3.99-79.31 25.08-83.78 73.98-4.98 44.97 35.53 73.05 72.14 86.63 43.84 16.75 88.78 24.77 134.12 33.5 88.56 15.89 176.56 30.73 261.66 59.46 32.95 12.02 88.08 27.36 99.33 62.98 5.62 18.94 2.81 41.78 2.92 62.34-.26 22.66.67 45.97 5.61 68.63l12.25-.43c3.31-22.45 5.88-44.29 8.39-66.67 2.25-24.07 5.15-47.48-1.85-72.26-15.5-49.66-74.03-67.02-117.1-83.09-66.24-23.11-135.04-38.31-203.87-51.27l44.03-223.56c19.55 42.26 37.63 82.14 52.84 118.62 25.72-119.25 22.66-233.18 35.36-331.51.55 1.42 1.91 2.44 3.53 2.44 2.1 0 3.81-1.7 3.81-3.8s-1.71-3.81-3.81-3.81c-1.29 0-2.37.69-3.06 1.67.75-5.61 1.57-11.16 2.43-16.65.22.03.41.13.64.13 2.1 0 3.81-1.7 3.81-3.8 0-1.9-1.43-3.42-3.26-3.7 2.54-15.05 5.59-29.67 9.31-43.84a538 538 0 0 0 29.63 43.86c-.23-.04-.43-.14-.68-.14-2.1 0-3.8 1.71-3.8 3.81s1.7 3.8 3.8 3.8c1.98 0 3.55-1.54 3.74-3.46 1.98 2.6 3.91 5.22 5.93 7.78-3.27-46.26-5.42-92.6-6.46-138.97.35-.57.59-1.21.59-1.92 0-.76-.28-1.44-.67-2.03-.04-1.87-.06-3.75-.1-5.61 6.05-17.52 11.58-34.45 16.66-50.85.07.01.13.04.2.04 2.1 0 3.81-1.7 3.81-3.8 0-1.37-.76-2.51-1.85-3.18a1429 1429 0 0 0 16.1-56.9c.28.06.55.18.85.18 2.1 0 3.8-1.7 3.8-3.81 0-1.73-1.19-3.13-2.78-3.59 2.45-9.63 4.73-19.02 6.85-28.2 2.92-2.07 5.88-4.08 8.85-6.04.67 1.08 1.82 1.86 3.18 1.86 2.1 0 3.81-1.71 3.81-3.81 0-.77-.29-1.45-.69-2.06 4.22-2.64 8.47-5.22 12.8-7.67.69.93 1.75 1.58 3 1.58 1.97 0 3.62-1.56 3.75-3.78l-.15-1.11c-.02-.08-.07-.14-.1-.23a352 352 0 0 1 32.1-15.19c91.75-37.49 149.65-11.32 225.91 42.06 2.19 1.66 5.38-.68 4.48-3.27-3.5-11.65-8.47-22.74-14.6-33.24-10.99-17.6-24.34-33.4-41.71-45.97-71.48-53.5-174.32-27.1-229.76 36.03-1.27.43-2.19 1.49-2.47 2.84-.1.11-.2.23-.3.35 1.22-6.25 2.35-12.37 3.43-18.39.18.02.34.1.52.1 2.1 0 3.81-1.71 3.81-3.8 0-1.82-1.32-3.28-3.02-3.65 6.34-37.08 9.81-69.6 11.41-97.91 7.76-1.19 15.53-2.43 23.32-3.74-.31.55-.51 1.13-.51 1.8 0 2.1 1.7 3.8 3.8 3.8s3.8-1.7 3.8-3.8c0-1.12-.5-2.1-1.27-2.8 17.13-2.93 34.3-6.12 51.46-9.57-.02.14-.08.27-.08.41a3.805 3.805 0 0 0 7.61 0c0-.68-.22-1.29-.55-1.84 18.1-3.71 36.17-7.69 54.12-11.94.42.15.86.27 1.33.27 1.11 0 2.08-.5 2.78-1.25 17.26-4.13 34.43-8.5 51.42-13.09.57 1.39 1.92 2.39 3.52 2.39 2.1 0 3.8-1.71 3.8-3.81 0-.2-.08-.37-.11-.56 23.87-6.57 47.36-13.6 70.3-21.03.4 1.67 1.84 2.94 3.62 2.94.39 0 .72-.1 1.06-.2l.68-.2.1-.69c.15-1.21.18-2.43.14-3.67 5.48-1.8 10.93-3.62 16.34-5.47-32.54 24.51-66.72 47.98-66.72 47.98s27.12 1.2 65.27-4.97c.69.96 1.76 1.63 3.04 1.63 1.73 0 3.13-1.18 3.59-2.76 15.55-2.78 32.68-6.78 50.41-12.55.24 1.87 1.78 3.35 3.71 3.35 2.1 0 3.81-1.71 3.81-3.81 0-.7-.24-1.32-.58-1.89 4.85-1.69 9.73-3.52 14.63-5.5.59.4 1.27.69 2.04.69 1.83 0 3.3-1.33 3.66-3.05 18.77-7.98 37.63-18.14 55.48-31.09-13.78 15.87-23.87 27.1-23.87 27.1 14.67-.09 45.06-6.03 78.51-23.36l.11.1c.71.65 1.62 1 2.55 1 2.1 0 3.8-1.7 3.8-3.8 0-.26-.06-.5-.11-.75 4.41-2.45 8.86-5.13 13.32-8 .57.35 1.2.59 1.9.59 2.09 0 3.8-1.7 3.8-3.8 0-.16-.07-.3-.09-.45 4.2-2.86 8.37-5.99 12.55-9.24.38 1.7 1.83 2.99 3.64 2.99 2.1 0 3.8-1.7 3.8-3.8 0-1.5-.89-2.78-2.16-3.4 18.94-15.7 37.16-35.73 52.43-61.07-.06.25-.15.49-.15.76 0 2.1 1.7 3.81 3.8 3.81s3.81-1.71 3.81-3.81-1.71-3.8-3.81-3.8c-.89 0-1.67.35-2.32.87 3.82-6.49 7.42-13.37 10.82-20.56 7.38 21.96 13.17 44.49 17.68 67.24 4.18 22.71 7.36 45.76 9.58 68.98-22.09-13.25-49.94-14.19-74.87-7.15l-1.74.13c-.37.24-.75.49-1.13.73-5.19 1.61-10.26 3.51-15.09 5.77-41.1 18.78-72.38 57.84-80.42 101.89-.47 2.12 2.41 3.59 3.87 2.02 13.9-13.15 26.45-25.52 39.87-36.13 22.75-18.6 47.36-31.05 74.96-39.11 18.84-5.68 36.4-8.97 55.92-12.04 4.73 63.66 1.54 128.26-11.42 190.42-2.75-.39-5.51-.78-8.44-1.33-58.88-11-116.19-3.48-165.44 76.54-5.01-13.38-7.59-27.42-6.03-41.95 2.15-23.12 14.03-45.33 21.85-68.63.18-.57-.06-1.21-.62-1.49-.6-.31-1.35-.06-1.66.55-5.59 10.86-11.7 21.38-17.4 32.4-20.57 36.34-19.13 74.22.2 110.78 11.45 22.85 27.29 42.87 42.2 61.98 31.43 40.72 65.87 81.82 100.79 119.65l1.37 1.49c.1-.13.19.02.16.18-13.92 35.65-47.13 61.68-85.05 68.63-23.28 4.51-47.57 2.68-70.94-1.96-1.27-.26-2.59.46-3.04 1.73-.48 1.38.24 2.9 1.62 3.39a197.4 197.4 0 0 0 36.26 9.08c38.11 6.37 79.63-3.19 108.8-29.47 9.95-8.67 18.45-18.92 25.37-30.34 5.56-9.19 11.98-20.88 5.91-31.51-.97-2.03-2.78-4.06-4.23-5.74-35.28-41.74-84.15-98.63-119.97-141.51 49.29 6.87 100.83-26.36 100.83-26.36l-7.33.99-44.24 5.96c15.37-18.45 13.46-48.07 2.73-71.01 14.36-2.99 28.82-5 42.19-6.46 20.85-2.28 38.98-3.23 49.64-4.44 8.7-1 17.14-4.27 24.92-8.62 23.88-13.36 41.61-36.99 41.61-36.99s-13.33 15.87-50.13 16.07c11.77-66.1 13.77-138.46 5.67-208.42 1.7-21.32 4.73-77.18-4.11-135.04 30.55 15.02 63.89 24.35 97.86 26.65-44.33-43.47-82.6-93.07-113.54-146.89-5.99-51.01-34.13-105.25-81.43-155.61m-922.67 1234.05c-9.65.25-21.4.4-33.44 1.47-29.38 2.61-60.43 10.76-66.58 39.62-1.45 7.62-.72 15.71.81 23.65.18.64-.87.96-1.08.31-3.54-9.48-4.75-17.82-4.18-25.16 3.27-41.78 65.79-50.75 104.7-47.24 16.27 1.46 33.65 3.07 48.78 8.12-16.13.52-32.87-1.25-49.01-.77m1060.52-1480.74c11.87 4.36 23.96 9.39 35.44 15.05-99.15 62.56-245.7 138.11-361.61 99.98a78.8 78.8 0 0 0-3.44-19.69c7.79-.69 15.56-1.48 23.3-2.36v.01c.64 1.34 1.96 2.18 3.42 2.18 1.81 0 3.25-1.29 3.64-2.97 13.58-1.64 27.09-3.54 40.56-5.59 16.25-2.52 32.45-5.27 48.59-8.23-.01.08-.06.16-.06.25 0 2.1 1.71 3.8 3.81 3.8s3.8-1.7 3.8-3.8c0-.57-.14-1.09-.36-1.58 7.78-1.47 15.55-2.97 23.3-4.55h-.02c-44.85 3.61-90.1 5.99-135.07 5.47 11.79-4.89 23.82-9.39 35.98-13.56 2.56-.87 5.15-1.69 7.72-2.53 19.94-6.56 40.15-12.49 60.61-17.57h.01c-44.12 6.13-87.78 14.31-130.14 28.83-.02-.02-.03-.05-.05-.07 90.24-96.91 218-118.7 340.57-73.07m-338.18 113.12c-.37-1.72-1.69-3.09-3.5-3.09-2.1 0-3.81 1.7-3.81 3.8 0 2.11 1.71 3.81 3.81 3.81 1.64 0 2.78-1.17 3.31-2.64-.55 9.78-2.68 18.86-6.78 26.57-.01.03-.03.06-.05.1a61.2 61.2 0 0 1-10.29 14.02c.66-9.04-1.08-18.37-3.5-26.95-7.19-25.11-25.2-47.38-48.09-58.24 15.66-9.81 35.83-9.65 54.75.4a61.4 61.4 0 0 1 9.98 16.79c-1.77.32-3.15 1.81-3.15 3.67 0 2.1 1.71 3.8 3.81 3.8.59 0 1.16-.14 1.67-.4a66.5 66.5 0 0 1 2.2 14.69c.04 1.3-.32 2.4-.36 3.67m-74.24-44.92c-10.48-4.02-21.81-5.65-33.51-4.16 24.47-22.76 60.2-21.04 83.81-2.64-17.91-5.74-36.01-3.46-50.3 6.8m-37.01-118.65c13.6-72.86 60.91-134.56 115.74-182.49 9.66-8.37 19.77-16.61 30.01-24.12 26.66 77.76 49.47 185.93 21.53 268.66-20.23 13.05-39.43 28.85-57.27 47.49-.63-.5-1.41-.83-2.27-.83-2.1 0-3.81 1.71-3.81 3.81 0 .99.4 1.86 1.02 2.54-.5.55-1 1.08-1.49 1.63-4.19-4.74-8.92-9.01-14.2-12.62 1.39-.57 2.38-1.92 2.38-3.51 0-2.1-1.71-3.81-3.8-3.81-2.11 0-3.81 1.71-3.81 3.81 0 .1.05.19.06.29a74.2 74.2 0 0 0-16.18-6.82c0-.12.01-.25.01-.37.32.09.64.2 1 .2 2.1 0 3.8-1.7 3.8-3.8s-1.7-3.81-3.8-3.81c-.29 0-.55.1-.81.17.24-7.31.65-14.63 1.23-21.93 1.89-.22 3.38-1.77 3.38-3.71 0-1.31-.71-2.41-1.71-3.09a3.9 3.9 0 0 0-1.04-.51c.54-5.57 1.21-11.13 1.98-16.69.45-.63.77-1.35.77-2.19 0-.5-.11-.96-.28-1.4.49-3.3 1.01-6.59 1.59-9.88 3.06-16.51 6.91-33.02 12.31-48.99.5.23.99.36 1.49.36 2.09 0 3.8-1.7 3.8-3.8 0-1.55-.93-2.93-2.38-3.52l-.37-.15c3.22-8.64 6.9-17.11 11.29-25.28-.01.01-.02.02-.02.03-.05.07-.39.57-.99 1.52-28.61 42.59-42.73 93.27-50.24 143.86-2.71-.08-5.46-.07-8.26.13-15.94 1.24-29.73 6.86-40.9 15.27-1.29-7.15-1.97-14.52-2.75-21.3-1.1-28.43-1.76-57.02 2.99-85.15m-3.69 122.32a63 63 0 0 1 3.15-3.71c24.76-1.29 48.47 9.41 64.3 28.56 11.87 14.72 22.47 33.76 24.8 53.24-.24-.05-.47-.15-.72-.15-2.11 0-3.81 1.71-3.81 3.81s1.7 3.8 3.81 3.8c.41 0 .79-.11 1.17-.23.01.99.04 1.99 0 2.97-21.88 18.03-55.47 20.97-81.7.72-26.82-20.17-32.5-62.15-11-89.01m-684.41 1053.46c-5.52-10.63-9.46-21.36-11.83-32-3.76-16.87-3.6-33.47.35-48.97 8.97-35.24 37.46-64.78 83.93-78.69 5.4 16.66 11.08 33.36 17.07 50.08-16.74-8.93-35.36-11.39-52.56.99-6.14 4.36-10.9 9.93-14.65 15.83-7.5 11.86-11.28 25.12-12.59 38.32-.2 1.96 1.1 3.81 3.08 4.24 2.12.46 4.22-.88 4.69-3.01 4.32-20.75 19.08-47.05 41.81-46.73 21.87 1.21 37.7 23.32 48.96 41.17.15.24.35.42.51.64 11.68 30.13 24.03 60.18 36.75 89.92-8.52-2.74-16.11-8.46-20.81-16.09-1.33-2.17-2.63-4.65-4.98-5.62-.82 8.18 3.6 16.2 9.7 21.72 6.09 5.52 13.73 8.99 21.22 12.39l.1-.19c11.07 25.61 22.37 50.96 33.7 75.94-98.39-23.3-158.71-70.41-184.45-119.94m542.79-820.21c-1.25.1-2.3.8-2.93 1.82-53.01 32.67-102.33 55.35-148.77 81.14-.65-1.17-1.85-1.99-3.27-1.99-2.1 0-3.8 1.71-3.8 3.81 0 .68.23 1.29.54 1.83-4.34 2.45-8.65 4.93-12.93 7.47-.69-.7-1.66-1.15-2.72-1.15-2.09 0-3.8 1.71-3.8 3.81 0 .39.11.74.22 1.09-4.29 2.6-8.56 5.24-12.81 7.94a3.798 3.798 0 0 0-7.3 1.47c0 1 .41 1.9 1.04 2.58-4.2 2.75-8.37 5.57-12.52 8.46-.43-1.64-1.85-2.88-3.62-2.88a3.8 3.8 0 0 0-3.81 3.8c0 1.32.72 2.42 1.74 3.11-5.13 3.67-10.22 7.48-15.28 11.43-.68-.62-1.57-1.02-2.56-1.02-2.1 0-3.8 1.7-3.8 3.8 0 .68.23 1.29.54 1.84-3.98 3.21-7.93 6.52-11.88 9.93-.1-2-1.74-3.62-3.76-3.62-2.1 0-3.81 1.71-3.81 3.8 0 1.87 1.39 3.36 3.17 3.68-14.27 12.72-28.3 26.88-42.09 43.02-4.51 5.27-8.57 10.36-12.23 15.28-.14-1.96-1.75-3.54-3.75-3.54-2.1 0-3.81 1.71-3.81 3.81s1.71 3.8 3.81 3.8c.32 0 .61-.1.91-.18-3.91 5.48-7.29 10.73-10.22 15.77a763 763 0 0 0-25.73 32.23c-.08-2.03-1.73-3.67-3.78-3.67-2.1 0-3.81 1.71-3.81 3.8 0 2.1 1.71 3.81 3.81 3.81.35 0 .67-.11 1-.21-16.08 21.56-31.35 44.17-45.86 67.96-3.67 6.01-7.29 12.11-10.87 18.27-.59-.37-1.25-.64-1.99-.64-2.1 0-3.8 1.7-3.8 3.8 0 1.47.86 2.71 2.08 3.34-6.11 10.68-12.09 21.57-17.95 32.69-.08-.01-.14-.05-.23-.05-2.1 0-3.8 1.71-3.8 3.81 0 .88.35 1.65.85 2.29-11.36 21.85-22.26 44.53-32.79 68.03-3.36 7.5-6.7 15.05-9.98 22.71-7.54 17.55-14.88 35.59-22.07 54.04 13.41-60.52 28.23-120.51 47.76-179.42 39.14-118.58 98.66-229.49 189.18-317.31-7.87 5.3-16.78 11.79-24.52 17.34-12.22 9.76-26.93 21.83-38 32.86-115.88 111.61-169.67 280.42-192.62 440.31.82-8.33 1.65-16.68 2.56-25.01 13.03-125.71 31.1-251.88 79.07-369.56-63.33 87.97-86.57 197.74-97.89 303.65-4.47 41.55-6.76 84.12-7.02 126.43-93.24-575.63 311.94-850.96 662.87-801.34-10.11 15.39-14.76 34.13-12.63 52.6-53.67 7.11-106.32 22.98-154.12 48.37-16.98 9.03-33.48 19.02-48.49 30.87 2.28-1.35 4.62-2.61 6.94-3.91-.1.35-.22.68-.22 1.05a3.805 3.805 0 0 0 7.61 0c0-1.76-1.23-3.18-2.86-3.61 5.44-2.95 10.96-5.72 16.54-8.38-.58.67-.96 1.52-.96 2.47 0 2.1 1.7 3.81 3.8 3.81s3.8-1.71 3.8-3.81a3.8 3.8 0 0 0-3.78-3.8c5.07-2.36 10.19-4.62 15.37-6.75.55 1.4 1.91 2.4 3.52 2.4 2.09 0 3.8-1.71 3.8-3.81 0-.51-.1-1-.29-1.44 16.75-6.53 33.95-11.9 51.45-16.15-.01.09-.06.17-.06.27 0 2.1 1.71 3.8 3.8 3.8a3.8 3.8 0 0 0 3.81-3.8c0-.68-.23-1.29-.55-1.85 16.85-3.79 33.93-6.6 51.09-8.43.64 1.25 1.89 2.12 3.37 2.12 1.74 0 3.15-1.2 3.6-2.8 10.51-.96 21.06-1.61 31.59-1.88-.07.29-.18.56-.18.88 0 2.1 1.7 3.8 3.8 3.8s3.8-1.7 3.8-3.8c0-.35-.11-.66-.19-.98.39-.01.78-.01 1.17-.01 4.18 8.51 10.1 16.56 17.96 23.71 3.29 3.15 6.87 5.81 10.6 8.18-3.26 3.32-6.52 6.59-9.76 9.78-.27-1.82-1.78-3.25-3.69-3.25-2.1 0-3.8 1.7-3.8 3.8 0 1.87 1.38 3.36 3.16 3.67-26.83 26.11-52.78 48.04-77.92 66.93-.96.26-1.74.84-2.25 1.67-19.05 14.23-37.64 26.71-55.8 38.01m88.43 323.44c-15.29 3.2-31.08 3.68-46.61 4.23-2.66.03-3.54-3.86-.91-4.81 55.07-22.9 108.75-49.1 158.41-82.16 50.45-32.88 96.89-68.72 147-103.48 1.29-1.04 3.39.55 2.56 2.1-48.75 93.45-157.67 165.45-260.45 184.12m186.4-425.61c-.7-.83-1.7-1.39-2.88-1.39-.11 0-.21.06-.32.06-4.85-2.03-9.77-4.16-14.84-6.45.01-.11.06-.21.06-.32 0-2.1-1.71-3.8-3.8-3.8-1.06 0-2.03.44-2.72 1.15a719 719 0 0 1-17.81-8.55 79 79 0 0 0 6.04-4.24c4.27-3.3 8.18-7.09 11.67-11.33.7.78 1.69 1.29 2.81 1.29 2.09 0 3.8-1.7 3.8-3.8 0-1.48-.88-2.72-2.11-3.36 5.98-8.6 9.93-17.74 12.03-27 6.99 2.8 14.15 5.19 21.43 7.15-.05.25-.15.48-.15.75 0 2.09 1.71 3.8 3.8 3.8 1.73 0 3.13-1.17 3.59-2.75.44.1.88.22 1.31.31 12.31 2.49 24.84 3.94 37.47 4.49 7.52 4.61 14.95 9.41 22.26 14.43l5.8-.79c1.17.83 2.34 1.66 3.48 2.49-.02.16-.1.31-.1.47a3.798 3.798 0 0 0 5.32 3.48c5.03 3.83 9.87 7.67 14.44 11.54-.51.64-.85 1.41-.85 2.3 0 2.1 1.7 3.81 3.8 3.81 1.07 0 2.03-.46 2.72-1.17 22.58 20.01 39 40.02 48.79 56.71.11.19.26.4.37.59-9.14-3.74-24.85-4.26-48.24-7.44.06-.25.15-.48.15-.76 0-.18-.08-.34-.1-.52-.27-1.84-1.79-3.28-3.7-3.28-1.74 0-3.15 1.2-3.6 2.8-.06.23-.12.45-.14.69-2.49-.38-5.07-.8-7.72-1.25-25.99-4.4-59.68-12.61-102.06-30.11m148.35 342.49c-13.53 16.85-29.96 31.03-48.14 40.61-1.07.58-2.22-.88-1.35-1.77 5.16-5.96 10.18-12.03 15.08-18.2 11.9-15.01 22.93-30.69 32.44-47.34 13.75-23.61 25.33-47.56 38.55-71.87.31-.68 1.49-.47 1.46.33-.93 34.33-15.42 70.05-38.04 98.24m-39.63 402.83c-4.69.39-8.81-3.09-9.21-7.77-.39-4.69 3.09-8.82 7.77-9.21s8.82 3.08 9.21 7.77c.39 4.68-3.08 8.8-7.77 9.21"/><path d="M3641.77 3499.97c1.45-5.27 2.84-10.6 4.16-15.99-9.1 6.51-19.32 12.91-28.53 16.66-.13.39-.23.67-.23.67l1.7 4.2c49.84 121.58 87.63 257.47 55.96 388.06-18.09 73.2-44.56 142.5-71.65 213.1-3.91 11.05-7.65 22.63-10.01 34.34-2.4 18-7.13 33.46-16.6 49.35-40.67 67.26-115.67 79.22-188.56 70.45-110.46-9.56-225.21-34.95-317.75-97.36-18.2-12.27-35.56-25.95-51.84-41.26-21.54-20.46-40.85-43.3-57.4-68.06-4.41-6.05-13.23-.21-9.53 6.26.35.54.71 1.06 1.05 1.59 28.65 44.34 66.26 82.72 109.46 113.05-1.21.64-2.07 1.87-2.07 3.34 0 2.1 1.71 3.8 3.81 3.8 1.95 0 3.52-1.5 3.72-3.41 4.73 3.21 9.5 6.36 14.35 9.38 29.46 18.37 60.53 33.31 92.62 45.56v.04c0 2.1 1.7 3.8 3.8 3.8 1.15 0 2.14-.54 2.84-1.33 24.84 9.15 50.28 16.7 76.08 22.96-5.76 27.78-8.31 56.26-6.72 84.54.84 14.62 2.57 29.03 5.29 43.23-1.58.47-2.76 1.87-2.76 3.6 0 2.09 1.71 3.8 3.81 3.8.14 0 .27-.07.4-.09 3.5 16.04 8.4 31.8 15.04 47.18l12.21-5.15c-4.57-14.39-7.44-30.29-9.03-45.77-4.48-41.91.69-84.39 13.85-124.27 39.54 7.94 79.65 13.25 119.54 16.84 71.03 7.82 149.74-15.8 188.31-80.34 8.48-13.96 15.09-29.1 18.48-45.8 1.06-6.61 2.72-14.47 4.55-21.03 11.16-35.44 27.09-69.22 40.01-104.82 20.72-57.58 41.53-116.02 50.44-176.81 12.41-92.24-5.4-186.16-35.92-273.13-9.83-27.62-20.89-54.68-32.88-81.18m-540.26-199.99c-2.09 0-3.8 1.71-3.8 3.81a3.805 3.805 0 0 0 7.61 0c0-2.1-1.71-3.81-3.81-3.81m-38.81 0c-2.11 0-3.81 1.71-3.81 3.81s1.7 3.8 3.81 3.8c2.09 0 3.8-1.7 3.8-3.8s-1.71-3.81-3.8-3.81m16.09 15.77c0 2.1 1.71 3.81 3.81 3.81s3.8-1.71 3.8-3.81-1.7-3.81-3.8-3.81c-2.09 0-3.81 1.71-3.81 3.81m-16.09 13.52a3.8 3.8 0 1 0 0 7.6c2.09 0 3.8-1.7 3.8-3.8s-1.71-3.8-3.8-3.8m0 162.85c2.09 0 3.8-1.7 3.8-3.81 0-2.09-1.71-3.8-3.8-3.8-2.11 0-3.81 1.71-3.81 3.8 0 2.11 1.71 3.81 3.81 3.81m0 22.47c2.09 0 3.8-1.7 3.8-3.8s-1.71-3.81-3.8-3.81c-2.11 0-3.81 1.71-3.81 3.81s1.71 3.8 3.81 3.8m23.77-14.21a3.8 3.8 0 0 0-2.35-3.51l-.02-.06-.7-.19c-.2-.06-.47-.14-.8-.14-2.1 0-3.81 1.71-3.81 3.8 0 .57.14 1.09.37 1.58a3.81 3.81 0 0 0 3.5 2.33c2.11-.01 3.81-1.72 3.81-3.81m-42.61-33.06c-.27 0-.51.1-.77.16l-.23-.23-.68.33c-1.34.64-2.18 1.95-2.18 3.42 0 .55.13 1.08.35 1.56a3.8 3.8 0 0 0 3.51 2.37c1.83 0 3.3-1.33 3.66-3.05l.09-.24-.04-.03c.02-.16.1-.31.1-.48-.01-2.1-1.72-3.81-3.81-3.81m-19.97-167.34c-2.1 0-3.81 1.71-3.81 3.81s1.71 3.8 3.81 3.8 3.8-1.7 3.8-3.8-1.7-3.81-3.8-3.81"/><ellipse cx="3043.79" cy="3315.75" rx="3.8" ry="3.81"/><path d="M3023.89 3329.27c-2.1 0-3.81 1.7-3.81 3.8s1.71 3.8 3.81 3.8 3.8-1.7 3.8-3.8-1.7-3.8-3.8-3.8"/><circle cx="3043.79" cy="3345.03" r="3.8"/><path d="M3023.89 3351.73c-2.1 0-3.81 1.7-3.81 3.8s1.71 3.81 3.81 3.81 3.8-1.71 3.8-3.81-1.7-3.8-3.8-3.8m19.9 11.96c-2.1 0-3.8 1.7-3.8 3.8a3.8 3.8 0 1 0 7.6 0c0-2.09-1.7-3.8-3.8-3.8m-19.9 17.32c-2.1 0-3.81 1.7-3.81 3.81 0 2.09 1.71 3.8 3.81 3.8a3.805 3.805 0 0 0 0-7.61m0 81.82c2.1 0 3.8-1.7 3.8-3.79a3.8 3.8 0 0 0-3.8-3.81c-2.1 0-3.81 1.7-3.81 3.81 0 2.09 1.71 3.79 3.81 3.79m0 29.29c2.1 0 3.8-1.7 3.8-3.81 0-2.09-1.7-3.8-3.8-3.8s-3.81 1.71-3.81 3.8c0 2.11 1.71 3.81 3.81 3.81m19.9 11.96c2.1 0 3.8-1.7 3.8-3.81 0-2.09-1.7-3.8-3.8-3.8s-3.8 1.71-3.8 3.8a3.8 3.8 0 0 0 3.8 3.81m-19.9 10.51c2.1 0 3.8-1.7 3.8-3.8s-1.7-3.81-3.8-3.81-3.81 1.71-3.81 3.81 1.71 3.8 3.81 3.8m19.9 11.96c2.1 0 3.8-1.7 3.8-3.8s-1.7-3.81-3.8-3.81-3.8 1.71-3.8 3.81c0 2.09 1.7 3.8 3.8 3.8m-19.9 17.32c2.1 0 3.8-1.7 3.8-3.8s-1.7-3.81-3.8-3.81-3.81 1.71-3.81 3.81c0 2.09 1.71 3.8 3.81 3.8m0 51.74c2.1 0 3.8-1.7 3.8-3.79a3.8 3.8 0 0 0-3.8-3.81c-2.1 0-3.81 1.7-3.81 3.81 0 2.09 1.71 3.79 3.81 3.79m-.28 22.51c2.09 0 3.8-1.7 3.8-3.8s-1.71-3.81-3.8-3.81c-2.1 0-3.81 1.71-3.81 3.81 0 2.09 1.71 3.8 3.81 3.8m-18.63-143.33c2.1 0 3.81-1.7 3.81-3.79 0-2.11-1.71-3.81-3.81-3.81a3.8 3.8 0 0 0-3.8 3.81c0 2.09 1.7 3.79 3.8 3.79m0 29.29c2.1 0 3.81-1.7 3.81-3.81 0-2.09-1.71-3.8-3.81-3.8s-3.8 1.71-3.8 3.8a3.8 3.8 0 0 0 3.8 3.81m-19.9 10.51c2.1 0 3.8-1.7 3.8-3.8s-1.7-3.81-3.8-3.81-3.81 1.71-3.81 3.81 1.71 3.8 3.81 3.8m19.9 11.96c2.1 0 3.81-1.7 3.81-3.8s-1.71-3.81-3.81-3.81-3.8 1.71-3.8 3.81c0 2.09 1.7 3.8 3.8 3.8m-19.9 17.32c2.1 0 3.8-1.7 3.8-3.8s-1.7-3.81-3.8-3.81-3.81 1.71-3.81 3.81c0 2.09 1.71 3.8 3.81 3.8m19.9 11.96c2.1 0 3.81-1.7 3.81-3.8s-1.71-3.81-3.81-3.81-3.8 1.71-3.8 3.81c0 2.09 1.7 3.8 3.8 3.8m-19.9 10.51c2.1 0 3.8-1.71 3.8-3.81s-1.7-3.8-3.8-3.8-3.81 1.7-3.81 3.8 1.71 3.81 3.81 3.81m19.9 11.96c2.1 0 3.81-1.71 3.81-3.81 0-2.09-1.71-3.8-3.81-3.8a3.805 3.805 0 0 0 0 7.61m-19.9 17.31c2.1 0 3.8-1.7 3.8-3.79a3.8 3.8 0 0 0-3.8-3.81c-2.1 0-3.81 1.7-3.81 3.81 0 2.09 1.71 3.79 3.81 3.79m19.9 11.96c2.1 0 3.81-1.7 3.81-3.79 0-2.11-1.71-3.81-3.81-3.81a3.8 3.8 0 0 0-3.8 3.81c0 2.09 1.7 3.79 3.8 3.79m-19.9 10.51c2.1 0 3.8-1.7 3.8-3.8s-1.7-3.81-3.8-3.81-3.81 1.71-3.81 3.81 1.71 3.8 3.81 3.8m19.9 11.96c2.1 0 3.81-1.7 3.81-3.8s-1.71-3.81-3.81-3.81-3.8 1.71-3.8 3.81 1.7 3.8 3.8 3.8m-19.9 17.32c2.1 0 3.8-1.7 3.8-3.8s-1.7-3.81-3.8-3.81-3.81 1.71-3.81 3.81 1.71 3.8 3.81 3.8m19.9 11.96c2.1 0 3.81-1.7 3.81-3.8s-1.71-3.81-3.81-3.81-3.8 1.71-3.8 3.81 1.7 3.8 3.8 3.8m-19.9 10.51c2.1 0 3.8-1.7 3.8-3.8s-1.7-3.8-3.8-3.8-3.81 1.7-3.81 3.8c0 2.09 1.71 3.8 3.81 3.8m19.9 11.96c2.1 0 3.81-1.7 3.81-3.8s-1.71-3.8-3.81-3.8-3.8 1.7-3.8 3.8c0 2.09 1.7 3.8 3.8 3.8m-19.9 17.33a3.805 3.805 0 0 0 0-7.61c-2.1 0-3.81 1.71-3.81 3.8s1.71 3.81 3.81 3.81m19.9 11.96c2.1 0 3.81-1.71 3.81-3.81 0-2.09-1.71-3.8-3.81-3.8s-3.8 1.71-3.8 3.8 1.7 3.81 3.8 3.81m-19.9 10.5a3.805 3.805 0 0 0 0-7.61c-2.1 0-3.81 1.71-3.81 3.81 0 2.09 1.71 3.8 3.81 3.8m19.9 11.96c2.1 0 3.81-1.7 3.81-3.8s-1.71-3.81-3.81-3.81-3.8 1.71-3.8 3.81 1.7 3.8 3.8 3.8m-19.9 17.32c2.1 0 3.8-1.7 3.8-3.8s-1.7-3.81-3.8-3.81-3.81 1.71-3.81 3.81 1.71 3.8 3.81 3.8m19.9 11.96c2.1 0 3.81-1.7 3.81-3.8s-1.71-3.81-3.81-3.81-3.8 1.71-3.8 3.81 1.7 3.8 3.8 3.8m-19.9 10.5c2.1 0 3.8-1.7 3.8-3.8s-1.7-3.81-3.8-3.81-3.81 1.71-3.81 3.81 1.71 3.8 3.81 3.8m19.9 11.96c2.1 0 3.81-1.7 3.81-3.8s-1.71-3.81-3.81-3.81-3.8 1.71-3.8 3.81 1.7 3.8 3.8 3.8m-19.9 17.32c2.1 0 3.8-1.7 3.8-3.8s-1.7-3.8-3.8-3.8-3.81 1.7-3.81 3.8 1.71 3.8 3.81 3.8m19.9 11.96c2.1 0 3.81-1.7 3.81-3.8s-1.71-3.8-3.81-3.8-3.8 1.7-3.8 3.8 1.7 3.8 3.8 3.8m-19.9 10.52c2.1 0 3.8-1.7 3.8-3.81 0-2.09-1.7-3.8-3.8-3.8s-3.81 1.71-3.81 3.8c0 2.1 1.71 3.81 3.81 3.81m20.24 4.48c-2.1 0-3.8 1.7-3.8 3.8s1.7 3.8 3.8 3.8 3.81-1.7 3.81-3.8c0-2.09-1.71-3.8-3.81-3.8m-20.24 24.8c2.1 0 3.8-1.7 3.8-3.8s-1.7-3.81-3.8-3.81-3.81 1.71-3.81 3.81c0 2.09 1.71 3.8 3.81 3.8m19.96 1.95a3.8 3.8 0 0 0-3.8 3.81c0 2.09 1.7 3.79 3.8 3.79s3.81-1.7 3.81-3.79c0-2.11-1.71-3.81-3.81-3.81m-19.96 20.51c2.1 0 3.8-1.7 3.8-3.8s-1.7-3.8-3.8-3.8-3.81 1.7-3.81 3.8 1.71 3.8 3.81 3.8m0 29.28c2.1 0 3.8-1.7 3.8-3.8s-1.7-3.81-3.8-3.81-3.81 1.71-3.81 3.81 1.71 3.8 3.81 3.8m0 22.47c2.1 0 3.8-1.71 3.8-3.8a3.8 3.8 0 0 0-3.8-3.81c-2.1 0-3.81 1.7-3.81 3.81 0 2.09 1.71 3.8 3.81 3.8m-18.91-350.27c2.1 0 3.81-1.71 3.81-3.81 0-2.09-1.71-3.8-3.81-3.8s-3.8 1.71-3.8 3.8a3.8 3.8 0 0 0 3.8 3.81m0 29.27c2.1 0 3.81-1.7 3.81-3.79 0-2.11-1.71-3.81-3.81-3.81s-3.8 1.7-3.8 3.81c-.01 2.09 1.7 3.79 3.8 3.79m0 22.47c2.1 0 3.81-1.7 3.81-3.8s-1.71-3.81-3.81-3.81-3.8 1.71-3.8 3.81c-.01 2.1 1.7 3.8 3.8 3.8m0 29.28c2.1 0 3.81-1.7 3.81-3.8s-1.71-3.81-3.81-3.81-3.8 1.71-3.8 3.81c-.01 2.1 1.7 3.8 3.8 3.8m0 22.47c2.1 0 3.81-1.7 3.81-3.8s-1.71-3.8-3.81-3.8-3.8 1.7-3.8 3.8c-.01 2.09 1.7 3.8 3.8 3.8m0 29.29c2.1 0 3.81-1.71 3.81-3.81 0-2.09-1.71-3.8-3.81-3.8a3.805 3.805 0 0 0 0 7.61m0 22.46c2.1 0 3.81-1.7 3.81-3.8s-1.71-3.81-3.81-3.81-3.8 1.71-3.8 3.81c-.01 2.1 1.7 3.8 3.8 3.8m0 29.28c2.1 0 3.81-1.7 3.81-3.8s-1.71-3.81-3.81-3.81-3.8 1.71-3.8 3.81c-.01 2.1 1.7 3.8 3.8 3.8m-19.9 10.5c2.1 0 3.8-1.7 3.8-3.8s-1.7-3.81-3.8-3.81-3.8 1.71-3.8 3.81c-.01 2.1 1.7 3.8 3.8 3.8m19.9 11.96c2.1 0 3.81-1.7 3.81-3.8s-1.71-3.81-3.81-3.81-3.8 1.71-3.8 3.81c-.01 2.1 1.7 3.8 3.8 3.8"/><circle cx="2946.27" cy="3798.8" r="3.8"/><path d="M2966.17 3814.56c2.1 0 3.81-1.7 3.81-3.8s-1.71-3.8-3.81-3.8-3.8 1.7-3.8 3.8c-.01 2.1 1.7 3.8 3.8 3.8m-19.9 10.52c2.1 0 3.8-1.7 3.8-3.81 0-2.09-1.7-3.8-3.8-3.8s-3.8 1.71-3.8 3.8a3.8 3.8 0 0 0 3.8 3.81m19.9 11.96c2.1 0 3.81-1.7 3.81-3.8s-1.71-3.81-3.81-3.81-3.8 1.71-3.8 3.81 1.7 3.8 3.8 3.8m-19.9 17.32c2.1 0 3.8-1.7 3.8-3.8s-1.7-3.81-3.8-3.81-3.8 1.71-3.8 3.81c-.01 2.09 1.7 3.8 3.8 3.8m19.9 11.96c2.1 0 3.81-1.7 3.81-3.8s-1.71-3.81-3.81-3.81-3.8 1.71-3.8 3.81c-.01 2.09 1.7 3.8 3.8 3.8"/><circle cx="2946.27" cy="3873.02" r="3.8"/><path d="M2966.17 3888.78c2.1 0 3.81-1.7 3.81-3.8s-1.71-3.8-3.81-3.8-3.8 1.7-3.8 3.8c-.01 2.1 1.7 3.8 3.8 3.8m-19.9 17.32c2.1 0 3.8-1.7 3.8-3.8s-1.7-3.81-3.8-3.81-3.8 1.71-3.8 3.81c-.01 2.1 1.7 3.8 3.8 3.8m19.9 11.96c2.1 0 3.81-1.7 3.81-3.8s-1.71-3.81-3.81-3.81-3.8 1.71-3.8 3.81c-.01 2.1 1.7 3.8 3.8 3.8m-19.9 10.51c2.1 0 3.8-1.71 3.8-3.8a3.8 3.8 0 1 0-7.6 0c-.01 2.09 1.7 3.8 3.8 3.8m19.9 11.96c2.1 0 3.81-1.71 3.81-3.8 0-2.1-1.71-3.81-3.81-3.81s-3.8 1.71-3.8 3.81c-.01 2.09 1.7 3.8 3.8 3.8m19.41 10.11c-2.1 0-3.81 1.71-3.81 3.81s1.71 3.8 3.81 3.8c2.09 0 3.8-1.7 3.8-3.8s-1.71-3.81-3.8-3.81m-6.02 28.62c0 2.1 1.71 3.8 3.8 3.8a3.8 3.8 0 1 0 0-7.6c-2.09 0-3.8 1.7-3.8 3.8m-32.23-23.26c2.1 0 3.8-1.7 3.8-3.8s-1.7-3.81-3.8-3.81-3.8 1.71-3.8 3.81c0 2.09 1.7 3.8 3.8 3.8m18.84 13.81c2.1 0 3.81-1.7 3.81-3.8s-1.71-3.81-3.81-3.81-3.8 1.71-3.8 3.81 1.7 3.8 3.8 3.8m-38.82-243.88c-2.09 0-3.8 1.71-3.8 3.81a3.805 3.805 0 0 0 7.61 0c0-2.1-1.71-3.81-3.81-3.81m0 29.28c-2.09 0-3.8 1.71-3.8 3.81a3.805 3.805 0 0 0 7.61 0c0-2.1-1.71-3.81-3.81-3.81m0 22.46c-2.09 0-3.8 1.71-3.8 3.81a3.805 3.805 0 0 0 7.61 0c0-2.09-1.71-3.81-3.81-3.81m-19.9 17.33c-2.1 0-3.8 1.7-3.8 3.8s1.7 3.8 3.8 3.8 3.81-1.7 3.81-3.8c0-2.09-1.71-3.8-3.81-3.8m19.9 11.96c-2.09 0-3.8 1.7-3.8 3.8a3.805 3.805 0 0 0 7.61 0c0-2.09-1.71-3.8-3.81-3.8m-19.9 10.51c-2.1 0-3.8 1.71-3.8 3.8a3.8 3.8 0 0 0 3.8 3.81c2.1 0 3.81-1.7 3.81-3.81 0-2.09-1.71-3.8-3.81-3.8m19.9 11.96c-2.09 0-3.8 1.71-3.8 3.81a3.805 3.805 0 0 0 7.61 0c0-2.1-1.71-3.81-3.81-3.81m-19.9 17.32c-2.1 0-3.8 1.71-3.8 3.81s1.7 3.8 3.8 3.8 3.81-1.7 3.81-3.8-1.71-3.81-3.81-3.81m19.9 11.96c-2.09 0-3.8 1.71-3.8 3.81a3.805 3.805 0 0 0 7.61 0c0-2.1-1.71-3.81-3.81-3.81m-19.9 10.51c-2.1 0-3.8 1.7-3.8 3.8s1.7 3.8 3.8 3.8 3.81-1.7 3.81-3.8-1.71-3.8-3.81-3.8m19.9 11.96c-2.09 0-3.8 1.7-3.8 3.8a3.805 3.805 0 0 0 7.61 0c0-2.1-1.71-3.8-3.81-3.8m0 29.27c-2.09 0-3.8 1.71-3.8 3.81a3.805 3.805 0 0 0 7.61 0c0-2.1-1.71-3.81-3.81-3.81m290.59 350.28a3.8 3.8 0 0 0-3.8 3.81c0 2.09 1.7 3.79 3.8 3.79s3.8-1.7 3.8-3.79a3.8 3.8 0 0 0-3.8-3.81m25.88-4.5a3.8 3.8 0 0 0-3.8 3.81c0 2.09 1.7 3.8 3.8 3.8s3.81-1.71 3.81-3.8c0-2.1-1.72-3.81-3.81-3.81m-5.97 24.07c2.1 0 3.8-1.7 3.8-3.79a3.8 3.8 0 1 0-7.6 0c-.01 2.08 1.7 3.79 3.8 3.79m-19.91 2.9c-2.1 0-3.8 1.71-3.8 3.81s1.7 3.8 3.8 3.8 3.8-1.7 3.8-3.8-1.7-3.81-3.8-3.81m19.91 19.57c2.1 0 3.8-1.7 3.8-3.8s-1.7-3.81-3.8-3.81-3.8 1.71-3.8 3.81c-.01 2.1 1.7 3.8 3.8 3.8m-19.91 9.71c-2.1 0-3.8 1.71-3.8 3.81s1.7 3.8 3.8 3.8 3.8-1.7 3.8-3.8-1.7-3.81-3.8-3.81m19.91 19.57c2.1 0 3.8-1.7 3.8-3.8s-1.7-3.81-3.8-3.81-3.8 1.71-3.8 3.81 1.7 3.8 3.8 3.8"/><circle cx="3217.94" cy="4338.75" r="3.8"/><path d="M3238.03 4398.14a3.8 3.8 0 0 0-3.8 3.81c0 2.09 1.7 3.79 3.8 3.79s3.81-1.7 3.81-3.79c0-2.11-1.71-3.81-3.81-3.81m18.76 17.83a3.8 3.8 0 0 0-3.8 3.81c0 2.09 1.7 3.79 3.8 3.79s3.81-1.7 3.81-3.79c0-2.11-1.71-3.81-3.81-3.81"/><circle cx="3237.85" cy="4350.71" r="3.8"/><path d="M3217.94 4364.23c-2.1 0-3.8 1.7-3.8 3.8s1.7 3.81 3.8 3.81 3.8-1.71 3.8-3.81c.01-2.09-1.7-3.8-3.8-3.8m19.91 19.57a3.805 3.805 0 0 0 0-7.61c-2.1 0-3.8 1.71-3.8 3.8a3.8 3.8 0 0 0 3.8 3.81m-38.82-140.39a3.805 3.805 0 0 0 0 7.61c2.1 0 3.81-1.71 3.81-3.81 0-2.08-1.71-3.8-3.81-3.8m-19.9 17.32a3.8 3.8 0 0 0-3.8 3.81c0 2.09 1.7 3.79 3.8 3.79s3.81-1.7 3.81-3.79c0-2.1-1.71-3.81-3.81-3.81m19.9 11.96a3.8 3.8 0 0 0-3.8 3.81c0 2.09 1.7 3.79 3.8 3.79s3.81-1.7 3.81-3.79c0-2.1-1.71-3.81-3.81-3.81m-19.9 10.51c-2.07 0-3.78 1.69-3.79 3.76l.58 1.9.14.29c.74 1.05 1.86 1.66 3.08 1.66 2.1 0 3.81-1.7 3.81-3.8s-1.72-3.81-3.82-3.81m19.9 11.96c-2.1 0-3.8 1.71-3.8 3.81s1.7 3.8 3.8 3.8 3.81-1.7 3.81-3.8-1.71-3.81-3.81-3.81m0 29.28c-2.1 0-3.8 1.71-3.8 3.81s1.7 3.8 3.8 3.8 3.81-1.7 3.81-3.8-1.71-3.81-3.81-3.81"/><ellipse cx="3140.32" cy="4235.26" rx="3.8" ry="3.81"/><path d="M3160.23 4243.41c-2.11 0-3.81 1.71-3.81 3.8 0 2.1 1.7 3.81 3.81 3.81 2.09 0 3.8-1.71 3.8-3.81 0-2.08-1.71-3.8-3.8-3.8m-58.72-34.43c-2.09 0-3.8 1.71-3.8 3.81a3.805 3.805 0 0 0 7.61 0c0-2.1-1.71-3.81-3.81-3.81m19.9 11.96c-2.09 0-3.8 1.71-3.8 3.81s1.71 3.8 3.8 3.8c2.11 0 3.81-1.7 3.81-3.8s-1.71-3.81-3.81-3.81m-42.62-25.47c0 2.1 1.71 3.8 3.81 3.8s3.8-1.7 3.8-3.8-1.7-3.81-3.8-3.81c-2.09 0-3.81 1.71-3.81 3.81m531.07-1046.93c0-2.09-1.71-3.8-3.81-3.8a3.805 3.805 0 0 0 0 7.61c2.1 0 3.81-1.71 3.81-3.81m-22.71 15.77c2.1 0 3.8-1.7 3.8-3.8s-1.7-3.81-3.8-3.81-3.81 1.71-3.81 3.81 1.71 3.8 3.81 3.8m-19.91 17.32a3.8 3.8 0 0 0 3.81-3.8c0-2.11-1.7-3.81-3.81-3.81a3.805 3.805 0 0 0 0 7.61m19.91 11.96c.46 0 .92-.09 1.39-.27l1.95-1.88.23-.38c.1-.29.24-.75.24-1.27 0-2.1-1.7-3.81-3.8-3.81s-3.81 1.71-3.81 3.81 1.7 3.8 3.8 3.8m-19.91 10.51a3.8 3.8 0 1 0 0-7.6c-2.09 0-3.8 1.7-3.8 3.8 0 2.09 1.71 3.8 3.8 3.8m-15.1 8.15c0-2.1-1.7-3.8-3.8-3.8s-3.81 1.7-3.81 3.8 1.71 3.8 3.81 3.8c2.09 0 3.8-1.7 3.8-3.8m-19.9 17.32c0-2.1-1.71-3.81-3.8-3.81-2.1 0-3.81 1.71-3.81 3.81s1.71 3.81 3.81 3.81c2.09 0 3.8-1.71 3.8-3.81m-18.91 11.96c0-2.1-1.7-3.8-3.8-3.8s-3.8 1.7-3.8 3.8 1.7 3.81 3.8 3.81c2.09 0 3.8-1.71 3.8-3.81m-19.9 10.51c0-2.1-1.7-3.8-3.8-3.8s-3.8 1.7-3.8 3.8 1.7 3.81 3.8 3.81c2.09 0 3.8-1.71 3.8-3.81m-19.38 11.98c0-2.1-1.71-3.81-3.81-3.81s-3.8 1.71-3.8 3.81c0 2.09 1.7 3.8 3.8 3.8s3.81-1.71 3.81-3.8m-58.25-11.98c0-2.1-1.7-3.8-3.8-3.8s-3.8 1.7-3.8 3.8 1.7 3.81 3.8 3.81 3.8-1.71 3.8-3.81m-18.9 11.97c0-2.11-1.7-3.81-3.81-3.81-2.09 0-3.8 1.7-3.8 3.81 0 2.09 1.71 3.8 3.8 3.8 2.1 0 3.81-1.71 3.81-3.8m-19.74 17.61c0-2.1-1.7-3.8-3.8-3.8s-3.81 1.7-3.81 3.8 1.71 3.8 3.81 3.8 3.8-1.71 3.8-3.8m-124.21-.36c0 2.1 1.71 3.81 3.81 3.81s3.8-1.71 3.8-3.81-1.7-3.8-3.8-3.8-3.81 1.7-3.81 3.8m-112.45 26.36c2.1 0 3.81-1.7 3.81-3.81 0-2.1-1.71-3.8-3.81-3.8s-3.8 1.7-3.8 3.8 1.7 3.81 3.8 3.81m-57.78-18.18c-.54 0-1.05.12-1.52.32a3.81 3.81 0 0 0-2.41 3.53c0 2.1 1.71 3.8 3.81 3.8.54 0 1.04-.12 1.51-.32 1.41-.56 2.41-1.92 2.41-3.52.01-2.11-1.7-3.81-3.8-3.81m135.28 17.12c2.1 0 3.81-1.7 3.81-3.8s-1.71-3.8-3.81-3.8-3.8 1.7-3.8 3.8c0 2.09 1.7 3.8 3.8 3.8m97.59-9.51c2.09 0 3.8-1.71 3.8-3.8 0-2.11-1.71-3.81-3.8-3.81-2.1 0-3.81 1.7-3.81 3.81 0 2.09 1.71 3.8 3.81 3.8m38.69-36.85c-2.1 0-3.81 1.7-3.81 3.81 0 2.09 1.71 3.8 3.81 3.8 2.09 0 3.8-1.71 3.8-3.8 0-2.11-1.71-3.81-3.8-3.81m-19.9 24.93c2.09 0 3.8-1.7 3.8-3.8s-1.71-3.81-3.8-3.81c-2.11 0-3.81 1.71-3.81 3.81 0 2.09 1.71 3.8 3.81 3.8m-38.82 0a3.8 3.8 0 0 0 3.81-3.8c0-2.1-1.7-3.81-3.81-3.81-2.09 0-3.8 1.71-3.8 3.81 0 2.09 1.71 3.8 3.8 3.8m-18.9 11.96c2.1 0 3.81-1.7 3.81-3.8 0-2.4-2.28-4.32-4.65-3.66l-.33.14c-.26.17-.52.35-.78.51-.27.18-.52.35-.79.52l-.3.27c-.51.7-.77 1.44-.77 2.21 0 2.1 1.71 3.81 3.81 3.81m3.81-55.56c0-2.1-1.71-3.8-3.81-3.8s-3.81 1.7-3.81 3.8 1.71 3.81 3.81 3.81 3.81-1.71 3.81-3.81m-19.91 10.51c0-2.1-1.7-3.8-3.8-3.8s-3.81 1.7-3.81 3.8 1.71 3.81 3.81 3.81 3.8-1.71 3.8-3.81m-22.71 8.16a3.8 3.8 0 0 0-3.8 3.81c0 2.09 1.7 3.8 3.8 3.8a3.805 3.805 0 0 0 0-7.61m-16.1 21.13c0-2.1-1.7-3.81-3.8-3.81s-3.8 1.71-3.8 3.81 1.7 3.8 3.8 3.8c2.09 0 3.8-1.71 3.8-3.8m16.1 8.15c-2.1 0-3.8 1.71-3.8 3.81 0 1.76 1.22 3.26 2.99 3.66l.31.07.3-.12c.94-.35 1.87-.72 2.8-1.09l.3-.11.19-.27c.47-.68.71-1.4.71-2.13 0-2.11-1.71-3.82-3.8-3.82m-38.82-29.28a3.8 3.8 0 0 0-3.8 3.81c0 2.09 1.7 3.8 3.8 3.8s3.81-1.71 3.81-3.8c0-2.11-1.71-3.81-3.81-3.81m-19.9 17.32c-2.1 0-3.8 1.71-3.8 3.81s1.7 3.8 3.8 3.8 3.81-1.7 3.81-3.8-1.71-3.81-3.81-3.81m19.9 11.96c-2.1 0-3.8 1.71-3.8 3.81s1.7 3.8 3.8 3.8 3.81-1.7 3.81-3.8-1.71-3.81-3.81-3.81m-19.9 10.5c-2.1 0-3.8 1.71-3.8 3.81s1.7 3.8 3.8 3.8 3.81-1.7 3.81-3.8-1.71-3.81-3.81-3.81m-35.01-18.65c0-2.1-1.7-3.81-3.8-3.81s-3.8 1.71-3.8 3.81 1.7 3.8 3.8 3.8 3.8-1.71 3.8-3.8m16.11 8.15c-2.11 0-3.81 1.71-3.81 3.81s1.7 3.8 3.81 3.8c2.09 0 3.8-1.7 3.8-3.8s-1.71-3.81-3.8-3.81m-42.62 3.81c0 2.1 1.71 3.8 3.8 3.8a3.8 3.8 0 0 0 3.81-3.8c0-2.1-1.7-3.81-3.81-3.81-2.09 0-3.8 1.71-3.8 3.81m-481.84 346.46c-2.1 0-3.8 1.71-3.8 3.81s1.7 3.8 3.8 3.8 3.81-1.7 3.81-3.8-1.71-3.81-3.81-3.81m19.91 11.96c-2.09 0-3.8 1.71-3.8 3.81s1.71 3.8 3.8 3.8a3.8 3.8 0 0 0 3.81-3.8c0-2.1-1.71-3.81-3.81-3.81m-19.91 10.51c-2.1 0-3.8 1.7-3.8 3.8s1.7 3.8 3.8 3.8 3.81-1.7 3.81-3.8c0-2.09-1.71-3.8-3.81-3.8m19.91 11.96c-2.09 0-3.8 1.7-3.8 3.8s1.71 3.8 3.8 3.8a3.8 3.8 0 0 0 3.81-3.8c0-2.09-1.71-3.8-3.81-3.8m0 29.28c-2.09 0-3.8 1.71-3.8 3.8 0 2.1 1.71 3.81 3.8 3.81 2.11 0 3.81-1.71 3.81-3.81 0-2.08-1.71-3.8-3.81-3.8m-20.11-12.36c-2.1 0-3.8 1.71-3.8 3.8a3.8 3.8 0 0 0 3.8 3.81c2.1 0 3.81-1.7 3.81-3.81 0-2.09-1.71-3.8-3.81-3.8m42.79 4.21c0-1.42-.83-2.63-1.99-3.28l-.02-.12-.3-.1c-.02-.01-.04-.01-.06-.02l-.25-.08c-.29-.1-.69-.22-1.16-.22-.52 0-1.02.1-1.48.3a3.81 3.81 0 0 0-2.35 3.51c0 2.1 1.71 3.8 3.81 3.8.03 0 .06-.02.1-.02.45-.02.88-.1 1.28-.26.26-.1.47-.27.7-.43.14-.09.29-.14.42-.25l.14-.13c.02-.02.05-.03.06-.06l.25-.22-.02-.13c.52-.61.87-1.39.87-2.29m-61.49-72.88c-2.1 0-3.81 1.71-3.81 3.81s1.71 3.8 3.81 3.8c2.09 0 3.8-1.7 3.8-3.8s-1.71-3.81-3.8-3.81m-19.9 17.32c-2.11 0-3.81 1.71-3.81 3.81s1.7 3.8 3.81 3.8c2.09 0 3.8-1.7 3.8-3.8s-1.71-3.81-3.8-3.81m19.9 11.96c-2.1 0-3.81 1.71-3.81 3.81s1.71 3.8 3.81 3.8c2.09 0 3.8-1.7 3.8-3.8s-1.71-3.81-3.8-3.81m-19.9 10.51a3.8 3.8 0 1 0 0 7.6c2.09 0 3.8-1.7 3.8-3.8 0-2.09-1.71-3.8-3.8-3.8m19.9 11.96c-1.59 0-2.94.98-3.52 2.36-.2.47-.32.98-.32 1.52 0 2.1 1.7 3.8 3.8 3.8 1.59 0 2.95-.99 3.52-2.38.2-.47.32-.96.32-1.5 0-2.09-1.71-3.8-3.8-3.8m911.57-854.78c.09 0 .16-.05.25-.05 1.98-.14 3.55-1.75 3.55-3.76a3.805 3.805 0 0 0-7.61 0c0 1.43.82 2.63 1.99 3.28.55.3 1.14.53 1.82.53"/><circle cx="3489.62" cy="2786.31" r="3.8"/><path d="M3509.52 2802.07c2.1 0 3.8-1.71 3.8-3.8a3.8 3.8 0 1 0-7.6 0c0 2.09 1.71 3.8 3.8 3.8m-58.71-42.04c-2.1 0-3.81 1.71-3.81 3.81s1.71 3.81 3.81 3.81 3.8-1.71 3.8-3.81-1.7-3.81-3.8-3.81m19.9 11.97c-2.1 0-3.8 1.7-3.8 3.8s1.7 3.81 3.8 3.81 3.81-1.71 3.81-3.81-1.71-3.8-3.81-3.8m-19.9 10.5c-2.1 0-3.81 1.7-3.81 3.8s1.71 3.8 3.81 3.8 3.8-1.7 3.8-3.8c0-2.09-1.7-3.8-3.8-3.8m19.9 11.96a3.8 3.8 0 0 0-3.8 3.81c0 2.09 1.7 3.8 3.8 3.8s3.81-1.71 3.81-3.8c0-2.1-1.71-3.81-3.81-3.81m-58.71-63.71c-2.1 0-3.8 1.71-3.8 3.81s1.7 3.8 3.8 3.8 3.8-1.7 3.8-3.8-1.7-3.81-3.8-3.81m19.9 11.96c-2.1 0-3.8 1.71-3.8 3.81 0 .65.21 1.24.5 1.78.64 1.19 1.86 2.03 3.3 2.03 1.81 0 3.25-1.29 3.64-2.97.06-.27.17-.53.17-.83 0-2.11-1.71-3.82-3.81-3.82"/><ellipse cx="3412" cy="2763.84" rx="3.8" ry="3.81"/><path d="M3431.9 2772c-2.1 0-3.8 1.7-3.8 3.8s1.7 3.81 3.8 3.81 3.81-1.71 3.81-3.81-1.71-3.8-3.81-3.8"/><circle cx="3412" cy="2786.31" r="3.8"/><path d="M3431.9 2794.46a3.8 3.8 0 0 0-3.8 3.81c0 2.09 1.7 3.8 3.8 3.8s3.81-1.71 3.81-3.8c0-2.1-1.71-3.81-3.81-3.81m-58.71-63.71c-2.1 0-3.8 1.71-3.8 3.81s1.7 3.8 3.8 3.8 3.81-1.7 3.81-3.8-1.72-3.81-3.81-3.81m19.9 11.96c-2.09 0-3.8 1.71-3.8 3.81s1.71 3.8 3.8 3.8a3.8 3.8 0 0 0 3.81-3.8c0-2.1-1.71-3.81-3.81-3.81m-19.9 17.32c-2.1 0-3.8 1.71-3.8 3.81s1.7 3.81 3.8 3.81 3.81-1.71 3.81-3.81-1.72-3.81-3.81-3.81m19.9 11.97c-2.09 0-3.8 1.7-3.8 3.8s1.71 3.81 3.8 3.81c2.11 0 3.81-1.71 3.81-3.81s-1.71-3.8-3.81-3.8"/><circle cx="3412" cy="2527.57" r="3.8"/><ellipse cx="3412" cy="2556.85" rx="3.8" ry="3.81"/><path d="M3412 2575.51c-2.1 0-3.8 1.7-3.8 3.8s1.7 3.81 3.8 3.81 3.8-1.71 3.8-3.81-1.7-3.8-3.8-3.8m-18.91-10.51c-2.09 0-3.8 1.7-3.8 3.8s1.71 3.81 3.8 3.81c2.11 0 3.81-1.71 3.81-3.81s-1.71-3.8-3.81-3.8m-19.9 18.12c2.1 0 3.81-1.71 3.81-3.81s-1.71-3.8-3.81-3.8-3.8 1.7-3.8 3.8a3.8 3.8 0 0 0 3.8 3.81m19.9 4.35c-2.09 0-3.8 1.7-3.8 3.81 0 2.09 1.71 3.8 3.8 3.8 2.11 0 3.81-1.71 3.81-3.8 0-2.11-1.71-3.81-3.81-3.81m-19.9 24.93c2.1 0 3.81-1.7 3.81-3.8s-1.71-3.81-3.81-3.81-3.8 1.71-3.8 3.81 1.7 3.8 3.8 3.8m-18.91-120.82c2.09 0 3.8-1.7 3.8-3.8s-1.71-3.81-3.8-3.81c-2.1 0-3.81 1.71-3.81 3.81s1.71 3.8 3.81 3.8"/><ellipse cx="3354.4" cy="2465.04" rx="3.8" ry="3.81"/><path d="M3373.61 2456.94c2.1 0 3.8-1.71 3.8-3.81s-1.7-3.81-3.8-3.81-3.81 1.71-3.81 3.81 1.71 3.81 3.81 3.81m-.25 22.36c2.1 0 3.81-1.7 3.81-3.8s-1.71-3.8-3.81-3.8c-2.09 0-3.8 1.7-3.8 3.8s1.71 3.8 3.8 3.8m0 29.67c2.1 0 3.81-1.71 3.81-3.8 0-2.11-1.71-3.81-3.81-3.81-2.09 0-3.8 1.7-3.8 3.81 0 2.09 1.71 3.8 3.8 3.8m19.21 34.41c2.1 0 3.81-1.71 3.81-3.81s-1.71-3.81-3.81-3.81-3.8 1.71-3.8 3.81c0 2.09 1.7 3.81 3.8 3.81m19.21-34.65c2.1 0 3.81-1.71 3.81-3.8 0-2.11-1.71-3.81-3.81-3.81s-3.81 1.7-3.81 3.81c0 2.09 1.71 3.8 3.81 3.8m-57.5 12.13c2.09 0 3.8-1.7 3.8-3.8s-1.71-3.81-3.8-3.81c-2.1 0-3.81 1.71-3.81 3.81s1.71 3.8 3.81 3.8m-19.9 2.91c-.02 0-.03 0-.05.01a3.8 3.8 0 0 0-3.76 3.79c0 1.4.8 2.57 1.93 3.24.56.32 1.18.56 1.88.56 2.09 0 3.8-1.7 3.8-3.8s-1.71-3.8-3.8-3.8m19.9 19.56c2.09 0 3.8-1.7 3.8-3.8a3.805 3.805 0 0 0-7.61 0c0 2.09 1.71 3.8 3.81 3.8m-19.9 9.71c-2.11 0-3.81 1.71-3.81 3.81s1.7 3.81 3.81 3.81c2.09 0 3.8-1.71 3.8-3.81s-1.71-3.81-3.8-3.81m19.9 19.58c2.09 0 3.8-1.71 3.8-3.81a3.805 3.805 0 0 0-7.61 0c0 2.1 1.71 3.81 3.81 3.81m-19.9 2.89a3.8 3.8 0 0 0-3.81 3.8c0 2.1 1.7 3.81 3.81 3.81 2.09 0 3.8-1.71 3.8-3.81s-1.71-3.8-3.8-3.8m19.9 19.57c2.09 0 3.8-1.71 3.8-3.8 0-2.11-1.71-3.81-3.8-3.81-2.1 0-3.81 1.7-3.81 3.81 0 2.09 1.71 3.8 3.81 3.8m-19.9 9.71c-2.11 0-3.81 1.71-3.81 3.81s1.7 3.8 3.81 3.8c2.09 0 3.8-1.7 3.8-3.8s-1.71-3.81-3.8-3.81m19.9 19.57c2.09 0 3.8-1.7 3.8-3.8s-1.71-3.81-3.8-3.81c-2.1 0-3.81 1.71-3.81 3.81s1.71 3.8 3.81 3.8m-19.9 54.65a3.8 3.8 0 0 0-3.81 3.8c0 2.1 1.7 3.81 3.81 3.81 2.09 0 3.8-1.71 3.8-3.81s-1.71-3.8-3.8-3.8m-38.67 36.47c2.09 0 3.8-1.7 3.8-3.8s-1.71-3.81-3.8-3.81c-2.11 0-3.81 1.71-3.81 3.81s1.7 3.8 3.81 3.8m19.04-15.13a3.8 3.8 0 1 0 0-7.6c-2.09 0-3.8 1.7-3.8 3.8 0 2.09 1.72 3.8 3.8 3.8m.72 19.9a3.805 3.805 0 0 0 0 7.61 3.805 3.805 0 0 0 0-7.61m-19.91 18.11c2.11 0 3.81-1.7 3.81-3.8s-1.7-3.81-3.81-3.81c-2.09 0-3.8 1.71-3.8 3.81s1.71 3.8 3.8 3.8m19.91 4.35c-2.1 0-3.8 1.71-3.8 3.81s1.7 3.8 3.8 3.8 3.8-1.7 3.8-3.8-1.7-3.81-3.8-3.81m-38.81-14.85c2.1 0 3.81-1.71 3.81-3.8 0-2.1-1.71-3.81-3.81-3.81s-3.81 1.71-3.81 3.81c0 2.09 1.71 3.8 3.81 3.8m-19.9 10.5c2.1 0 3.8-1.7 3.8-3.8s-1.7-3.81-3.8-3.81-3.81 1.71-3.81 3.81 1.71 3.8 3.81 3.8m.27-22.84a3.8 3.8 0 1 0 0-7.6c-2.09 0-3.8 1.7-3.8 3.8s1.71 3.8 3.8 3.8m19.63 34.8c2.1 0 3.81-1.7 3.81-3.8s-1.71-3.81-3.81-3.81-3.81 1.71-3.81 3.81 1.71 3.8 3.81 3.8m317.1-85.31c2.1 0 3.81-1.71 3.81-3.81s-1.71-3.81-3.81-3.81-3.8 1.71-3.8 3.81 1.7 3.81 3.8 3.81m30.58-17.77c2.09 0 3.8-1.71 3.8-3.8 0-2.11-1.71-3.81-3.8-3.81-2.11 0-3.81 1.7-3.81 3.81 0 2.09 1.7 3.8 3.81 3.8m-95.9 16.91c2.09 0 3.8-1.7 3.8-3.8a3.805 3.805 0 0 0-7.61 0c0 2.09 1.71 3.8 3.81 3.8m20.31 12.61c2.1 0 3.8-1.71 3.8-3.81s-1.7-3.8-3.8-3.8-3.81 1.7-3.81 3.8 1.72 3.81 3.81 3.81m18.76-12.43a3.8 3.8 0 0 0 3.81-3.8c0-2.11-1.7-3.81-3.81-3.81a3.805 3.805 0 0 0 0 7.61"/><circle cx="3509.52" cy="2672.3" r="3.8"/><path d="M3521.09 2693.05a3.8 3.8 0 1 0 0-7.6c-2.09 0-3.8 1.7-3.8 3.8 0 2.09 1.71 3.8 3.8 3.8m-31.47-14.04c-2.1 0-3.8 1.7-3.8 3.8s1.7 3.81 3.8 3.81 3.8-1.71 3.8-3.81c.01-2.1-1.7-3.8-3.8-3.8m-18.91-10.51c-2.1 0-3.8 1.7-3.8 3.8s1.7 3.8 3.8 3.8 3.81-1.7 3.81-3.8c0-2.09-1.71-3.8-3.81-3.8m-19.9 10.51c-2.1 0-3.81 1.7-3.81 3.8s1.71 3.81 3.81 3.81 3.8-1.71 3.8-3.81-1.7-3.8-3.8-3.8m19.9 11.96c-2.1 0-3.8 1.7-3.8 3.8a3.8 3.8 0 0 0 3.8 3.81c2.1 0 3.81-1.7 3.81-3.81 0-2.1-1.71-3.8-3.81-3.8m-38.81-22.47c-2.1 0-3.8 1.7-3.8 3.8s1.7 3.8 3.8 3.8 3.81-1.7 3.81-3.8c0-2.09-1.71-3.8-3.81-3.8m-19.9 10.51c-2.1 0-3.8 1.7-3.8 3.8s1.7 3.81 3.8 3.81 3.8-1.71 3.8-3.81-1.7-3.8-3.8-3.8m19.9 11.96c-2.1 0-3.8 1.7-3.8 3.8a3.8 3.8 0 0 0 3.8 3.81c2.1 0 3.81-1.7 3.81-3.81 0-2.1-1.71-3.8-3.81-3.8m-38.81 0a3.805 3.805 0 1 0 .01 7.61 3.805 3.805 0 0 0-.01-7.61"/><circle cx="3217.94" cy="2786.31" r="3.8"/><path d="M3199.03 2779.61c2.1 0 3.81-1.71 3.81-3.81s-1.71-3.8-3.81-3.8-3.8 1.7-3.8 3.8 1.71 3.81 3.8 3.81m-19.9 10.5c2.1 0 3.81-1.7 3.81-3.8s-1.71-3.8-3.81-3.8-3.8 1.7-3.8 3.8c0 2.09 1.7 3.8 3.8 3.8m19.9 11.96c2.1 0 3.81-1.71 3.81-3.8 0-2.11-1.71-3.81-3.81-3.81a3.8 3.8 0 0 0-3.8 3.81c0 2.09 1.71 3.8 3.8 3.8m-19.9 17.33c2.1 0 3.81-1.7 3.81-3.81 0-2.1-1.71-3.8-3.81-3.8s-3.8 1.7-3.8 3.8 1.7 3.81 3.8 3.81m-18.9-17.33c2.09 0 3.8-1.71 3.8-3.8 0-2.11-1.71-3.81-3.8-3.81-2.11 0-3.81 1.7-3.81 3.81 0 2.09 1.7 3.8 3.81 3.8m-19.77-19.1a3.8 3.8 0 0 0-3.8 3.81c0 2.1 1.7 3.8 3.8 3.8s3.8-1.7 3.8-3.8c.01-2.11-1.7-3.81-3.8-3.81m-.14 28.81c-2.1 0-3.8 1.7-3.8 3.8a3.8 3.8 0 1 0 7.6 0c0-2.09-1.7-3.8-3.8-3.8m19.91 19.57c2.09 0 3.8-1.7 3.8-3.81 0-2.09-1.71-3.8-3.8-3.8-2.11 0-3.81 1.71-3.81 3.8 0 2.11 1.7 3.81 3.81 3.81m-19.91 2.9a3.805 3.805 0 0 0 0 7.61 3.805 3.805 0 0 0 0-7.61m-18.91-10.51c-2.09 0-3.8 1.71-3.8 3.8 0 2.11 1.71 3.81 3.8 3.81 2.11 0 3.81-1.7 3.81-3.81 0-2.08-1.71-3.8-3.81-3.8m-19.9 10.51c-2.09 0-3.8 1.71-3.8 3.81 0 2.09 1.71 3.8 3.8 3.8 2.1 0 3.81-1.71 3.81-3.8 0-2.1-1.71-3.81-3.81-3.81m19.9 11.96c-2.09 0-3.8 1.71-3.8 3.81s1.71 3.8 3.8 3.8a3.8 3.8 0 0 0 3.81-3.8c0-2.1-1.71-3.81-3.81-3.81m-19.9 17.32c-2.09 0-3.8 1.71-3.8 3.81a3.805 3.805 0 0 0 7.61 0c0-2.1-1.71-3.81-3.81-3.81m-18.91-39.79c-2.1 0-3.81 1.71-3.81 3.8 0 2.11 1.71 3.81 3.81 3.81s3.8-1.7 3.8-3.81c.01-2.08-1.7-3.8-3.8-3.8m18.92-12.33c-2.11 0-3.81 1.71-3.81 3.8 0 2.1 1.7 3.81 3.81 3.81 2.09 0 3.8-1.71 3.8-3.81.01-2.08-1.71-3.8-3.8-3.8m-77.35 1.12c-2.11 0-3.81 1.71-3.81 3.81s1.7 3.8 3.81 3.8c2.09 0 3.8-1.7 3.8-3.8s-1.71-3.81-3.8-3.81m-39.65 6.35c2.09 0 3.8-1.7 3.8-3.8s-1.71-3.8-3.8-3.8a3.8 3.8 0 1 0 0 7.6m78.18 15.37c-2.11 0-3.81 1.71-3.81 3.81 0 2.09 1.7 3.8 3.81 3.8 2.09 0 3.8-1.71 3.8-3.8 0-2.1-1.71-3.81-3.8-3.81m19.9 11.96c-2.1 0-3.81 1.71-3.81 3.81s1.71 3.8 3.81 3.8 3.8-1.7 3.8-3.8a3.8 3.8 0 0 0-3.8-3.81m-19.9 17.32c-2.11 0-3.81 1.71-3.81 3.81s1.7 3.8 3.81 3.8c2.09 0 3.8-1.7 3.8-3.8s-1.71-3.81-3.8-3.81m19.9 11.97c-2.1 0-3.81 1.7-3.81 3.8s1.71 3.8 3.81 3.8 3.8-1.7 3.8-3.8c.01-2.1-1.7-3.8-3.8-3.8m-19.9 10.5a3.8 3.8 0 0 0-3.81 3.8c0 2.1 1.7 3.81 3.81 3.81 2.09 0 3.8-1.71 3.8-3.81s-1.71-3.8-3.8-3.8m-18.91-39.79c-2.1 0-3.8 1.71-3.8 3.81s1.7 3.8 3.8 3.8 3.8-1.7 3.8-3.8-1.7-3.81-3.8-3.81m-19.9 17.32c-2.1 0-3.81 1.71-3.81 3.81s1.71 3.8 3.81 3.8 3.8-1.7 3.8-3.8-1.7-3.81-3.8-3.81"/><circle cx="3043.79" cy="2879.3" r="3.8"/><path d="M3023.89 2886c-2.1 0-3.81 1.7-3.81 3.8s1.71 3.81 3.81 3.81 3.8-1.71 3.8-3.81-1.7-3.8-3.8-3.8m19.9 11.96c-2.1 0-3.8 1.7-3.8 3.8s1.7 3.81 3.8 3.81 3.8-1.71 3.8-3.81-1.7-3.8-3.8-3.8m-19.9 17.32c-2.1 0-3.81 1.7-3.81 3.81 0 2.09 1.71 3.8 3.81 3.8s3.8-1.71 3.8-3.8a3.8 3.8 0 0 0-3.8-3.81m-18.91-39.78c-2.1 0-3.8 1.7-3.8 3.8s1.7 3.8 3.8 3.8 3.81-1.7 3.81-3.8-1.71-3.8-3.81-3.8m-19.9 10.5c-2.1 0-3.81 1.7-3.81 3.8s1.71 3.81 3.81 3.81 3.8-1.71 3.8-3.81-1.7-3.8-3.8-3.8m19.9 11.96c-2.1 0-3.8 1.7-3.8 3.8s1.7 3.81 3.8 3.81 3.81-1.71 3.81-3.81-1.71-3.8-3.81-3.8m-19.9 17.32c-2.1 0-3.81 1.7-3.81 3.81 0 2.09 1.71 3.8 3.81 3.8s3.8-1.71 3.8-3.8a3.8 3.8 0 0 0-3.8-3.81m19.9 11.96a3.8 3.8 0 0 0-3.8 3.81c0 2.09 1.7 3.8 3.8 3.8s3.81-1.71 3.81-3.8c0-2.11-1.71-3.81-3.81-3.81m-19.9 10.51c-2.1 0-3.81 1.71-3.81 3.8 0 2.11 1.71 3.81 3.81 3.81s3.8-1.7 3.8-3.81c0-2.09-1.7-3.8-3.8-3.8m-18.91-39.79c-2.1 0-3.8 1.7-3.8 3.8s1.7 3.81 3.8 3.81 3.81-1.71 3.81-3.81-1.72-3.8-3.81-3.8m-19.9 17.32a3.8 3.8 0 0 0-3.8 3.81c0 2.09 1.7 3.8 3.8 3.8a3.805 3.805 0 0 0 0-7.61m19.9 11.96a3.8 3.8 0 0 0-3.8 3.81c0 2.09 1.7 3.8 3.8 3.8s3.81-1.71 3.81-3.8c0-2.11-1.72-3.81-3.81-3.81m-19.9 10.51c-2.1 0-3.8 1.71-3.8 3.8a3.8 3.8 0 1 0 7.6 0c0-2.09-1.71-3.8-3.8-3.8m19.9 11.95c-2.1 0-3.8 1.71-3.8 3.81s1.7 3.8 3.8 3.8 3.81-1.7 3.81-3.8-1.72-3.81-3.81-3.81m-38.82-22.46c-2.09 0-3.8 1.7-3.8 3.81 0 2.09 1.71 3.8 3.8 3.8 2.1 0 3.81-1.71 3.81-3.8 0-2.11-1.71-3.81-3.81-3.81m-19.9 10.51c-2.1 0-3.8 1.71-3.8 3.8a3.8 3.8 0 0 0 3.8 3.81c2.1 0 3.81-1.7 3.81-3.81 0-2.09-1.71-3.8-3.81-3.8m19.9 11.95c-2.09 0-3.8 1.71-3.8 3.81a3.805 3.805 0 0 0 7.61 0c0-2.1-1.71-3.81-3.81-3.81m-19.9 17.33c-2.1 0-3.8 1.71-3.8 3.81s1.7 3.8 3.8 3.8 3.81-1.7 3.81-3.8-1.71-3.81-3.81-3.81m-18.9 11.96c-2.11 0-3.81 1.71-3.81 3.81s1.7 3.8 3.81 3.8c2.09 0 3.8-1.7 3.8-3.8s-1.71-3.81-3.8-3.81"/><circle cx="2868.37" cy="2970.6" r="3.8"/><path d="M2888.12 2956.75c2.1 0 3.81-1.71 3.81-3.81 0-2.09-1.71-3.8-3.81-3.8s-3.8 1.71-3.8 3.8c0 2.1 1.71 3.81 3.8 3.81m-19.48 32.75c-2.1 0-3.8 1.7-3.8 3.8s1.7 3.8 3.8 3.8 3.81-1.7 3.81-3.8-1.71-3.8-3.81-3.8m-18.9 11.96c-2.1 0-3.81 1.7-3.81 3.8s1.71 3.81 3.81 3.81 3.8-1.71 3.8-3.81-1.7-3.8-3.8-3.8m-19.91 17.32c-2.09 0-3.8 1.7-3.8 3.8s1.71 3.81 3.8 3.81c2.11 0 3.81-1.71 3.81-3.81s-1.71-3.8-3.81-3.8m0 22.46c-2.09 0-3.8 1.7-3.8 3.81 0 2.09 1.71 3.8 3.8 3.8 2.11 0 3.81-1.71 3.81-3.8 0-2.1-1.71-3.81-3.81-3.81m-18.9 11.96c-2.1 0-3.81 1.7-3.81 3.81 0 2.1 1.71 3.8 3.81 3.8s3.8-1.7 3.8-3.8-1.71-3.81-3.8-3.81m-19.91 17.32c-2.1 0-3.81 1.71-3.81 3.81s1.71 3.8 3.81 3.8a3.805 3.805 0 0 0 0-7.61"/><ellipse cx="2772.11" cy="3108.76" rx="3.8" ry="3.81"/><circle cx="2751.65" cy="3125.56" r="3.8"/><path d="M2733.16 3156.84c-2.1 0-3.81 1.7-3.81 3.8s1.71 3.81 3.81 3.81 3.8-1.71 3.8-3.81c.01-2.1-1.7-3.8-3.8-3.8m-20.03 39.51c-2.1 0-3.81 1.71-3.81 3.81s1.71 3.8 3.81 3.8c2.09 0 3.8-1.7 3.8-3.8s-1.71-3.81-3.8-3.81m501.27-431.19.37 1 .15-.05c.7.95 1.79 1.54 3.02 1.54 2.1 0 3.8-1.71 3.8-3.81 0-.17-.09-.34-.11-.51l.21-.1-.44-.96-.46-1-.14.07a3.78 3.78 0 0 0-2.85-1.32c-2.1 0-3.8 1.71-3.8 3.81 0 .08.03.16.04.24l-.17.06zm-15.37-14.84c2.1 0 3.81-1.7 3.81-3.8s-1.71-3.81-3.81-3.81-3.8 1.71-3.8 3.81 1.71 3.8 3.8 3.8m-19.9 17.33c2.1 0 3.81-1.71 3.81-3.81s-1.71-3.81-3.81-3.81-3.8 1.71-3.8 3.81 1.7 3.81 3.8 3.81m-18.9-17.33c2.09 0 3.8-1.7 3.8-3.8s-1.71-3.81-3.8-3.81c-2.11 0-3.81 1.71-3.81 3.81s1.7 3.8 3.81 3.8"/><ellipse cx="3140.32" cy="2763.84" rx="3.8" ry="3.81"/><path d="M3160.23 2779.61c2.09 0 3.8-1.71 3.8-3.81s-1.71-3.8-3.8-3.8a3.8 3.8 0 0 0-3.81 3.8c0 2.1 1.7 3.81 3.81 3.81m-58.72-11.96c2.1 0 3.81-1.71 3.81-3.81s-1.71-3.81-3.81-3.81c-2.09 0-3.8 1.71-3.8 3.81s1.71 3.81 3.8 3.81m19.9 4.35c-2.09 0-3.8 1.7-3.8 3.8s1.71 3.81 3.8 3.81c2.11 0 3.81-1.71 3.81-3.81s-1.71-3.8-3.81-3.8m-19.9 18.11c2.1 0 3.81-1.7 3.81-3.8s-1.71-3.8-3.81-3.8c-2.09 0-3.8 1.7-3.8 3.8 0 2.09 1.71 3.8 3.8 3.8M3082.6 2772c-2.1 0-3.81 1.7-3.81 3.8s1.71 3.81 3.81 3.81 3.8-1.71 3.8-3.81c.01-2.1-1.7-3.8-3.8-3.8m-19.9 10.5a3.8 3.8 0 1 0 0 7.6c2.09 0 3.8-1.7 3.8-3.8 0-2.09-1.71-3.8-3.8-3.8m19.9 11.96c-2.1 0-3.81 1.7-3.81 3.81 0 2.09 1.71 3.8 3.81 3.8s3.8-1.71 3.8-3.8a3.8 3.8 0 0 0-3.8-3.81m-38.81 0a3.8 3.8 0 0 0-3.8 3.81c0 2.09 1.7 3.8 3.8 3.8a3.805 3.805 0 0 0 0-7.61m-38.81 0a3.8 3.8 0 0 0-3.8 3.81c0 2.09 1.7 3.8 3.8 3.8s3.81-1.71 3.81-3.8c0-2.1-1.71-3.81-3.81-3.81m212.96 771.88c2.1 0 3.8-1.71 3.8-3.81s-1.7-3.8-3.8-3.8-3.8 1.7-3.8 3.8 1.71 3.81 3.8 3.81m23.71 8.15c0-2.09-1.7-3.8-3.8-3.8a3.805 3.805 0 0 0 0 7.61c2.1 0 3.8-1.71 3.8-3.81m-42.62-26.28c-2.1 0-3.8 1.71-3.8 3.81s1.7 3.8 3.8 3.8 3.81-1.7 3.81-3.8c0-2.09-1.71-3.81-3.81-3.81m-19.9 18.13c2.1 0 3.81-1.71 3.81-3.81s-1.71-3.8-3.81-3.8-3.8 1.7-3.8 3.8 1.7 3.81 3.8 3.81m-18.9-18.13c-2.11 0-3.81 1.71-3.81 3.81s1.7 3.8 3.81 3.8c2.09 0 3.8-1.7 3.8-3.8 0-2.09-1.71-3.81-3.8-3.81m-38.82 7.62a3.8 3.8 0 0 0 3.81-3.8c0-2.1-1.7-3.81-3.81-3.81-2.09 0-3.8 1.71-3.8 3.81 0 2.09 1.71 3.8 3.8 3.8m175.23-99.96a3.805 3.805 0 0 0 0 7.61 3.8 3.8 0 0 0 3.81-3.8c0-2.1-1.71-3.81-3.81-3.81m-19.98 18.92c2.1 0 3.81-1.7 3.81-3.79 0-2.11-1.71-3.81-3.81-3.81s-3.81 1.7-3.81 3.81c0 2.09 1.71 3.79 3.81 3.79m-19.81-12.05c2.1 0 3.8-1.7 3.8-3.8s-1.7-3.81-3.8-3.81-3.8 1.71-3.8 3.81c-.01 2.09 1.7 3.8 3.8 3.8m-.09 29.38c2.1 0 3.8-1.7 3.8-3.81 0-2.09-1.7-3.8-3.8-3.8s-3.81 1.71-3.81 3.8c0 2.11 1.71 3.81 3.81 3.81m19.9 11.96c2.1 0 3.81-1.7 3.81-3.81 0-2.09-1.71-3.8-3.81-3.8s-3.81 1.71-3.81 3.8c0 2.11 1.71 3.81 3.81 3.81m-19.9 10.51c2.1 0 3.8-1.7 3.8-3.8s-1.7-3.81-3.8-3.81-3.81 1.71-3.81 3.81 1.71 3.8 3.81 3.8m-35.01-26.28c0-2.09-1.7-3.8-3.8-3.8s-3.8 1.71-3.8 3.8a3.8 3.8 0 0 0 3.8 3.81c2.09 0 3.8-1.7 3.8-3.81m19.9 11.96c0-2.09-1.7-3.8-3.8-3.8s-3.8 1.71-3.8 3.8a3.8 3.8 0 1 0 7.6 0m-23.71 95.34c2.1 0 3.8-1.7 3.8-3.79a3.8 3.8 0 1 0-3.8 3.79m-38.81 0c2.1 0 3.81-1.7 3.81-3.79 0-2.11-1.71-3.81-3.81-3.81s-3.8 1.7-3.8 3.81c0 2.09 1.7 3.79 3.8 3.79m-38.81 0c2.1 0 3.8-1.7 3.8-3.79a3.8 3.8 0 1 0-3.8 3.79m19.91 11.96c2.09 0 3.8-1.7 3.8-3.79 0-2.11-1.71-3.81-3.8-3.81-2.11 0-3.81 1.7-3.81 3.81 0 2.09 1.7 3.79 3.81 3.79m-61.89-13.74c.72 1.12 1.9 1.78 3.17 1.78 1.59 0 2.95-.98 3.52-2.37.21-.47.33-.98.33-1.53 0-.53-.11-1.04-.31-1.5l-.06-.33-.13.06c-.64-1.2-1.86-2.04-3.31-2.04-2.1 0-3.81 1.71-3.81 3.81 0 .31.11.6.18.89l-.3.11zm23.07 6.14c-2.09 0-3.8 1.7-3.8 3.81 0 2.09 1.71 3.79 3.8 3.79 2.11 0 3.81-1.7 3.81-3.79 0-2.11-1.71-3.81-3.81-3.81m-19.9 18.11c2.1 0 3.81-1.7 3.81-3.8s-1.71-3.81-3.81-3.81c-2.09 0-3.8 1.71-3.8 3.81s1.71 3.8 3.8 3.8m-22.72-14.3c0 2.09 1.71 3.79 3.81 3.79s3.8-1.7 3.8-3.79a3.8 3.8 0 0 0-3.8-3.81c-2.09 0-3.81 1.7-3.81 3.81m61.75-45.17c-2.1 0-3.81 1.71-3.81 3.81s1.71 3.8 3.81 3.8c2.09 0 3.8-1.7 3.8-3.8 0-2.09-1.71-3.81-3.8-3.81m-19.65 21.55c2.1 0 3.81-1.7 3.81-3.8s-1.71-3.81-3.81-3.81-3.8 1.71-3.8 3.81c-.01 2.09 1.7 3.8 3.8 3.8m42.83-5.9c0-2.09-1.71-3.8-3.81-3.8s-3.8 1.71-3.8 3.8c0 2.11 1.7 3.81 3.8 3.81s3.81-1.7 3.81-3.81m-19.38 40.28a3.805 3.805 0 0 0-7.61 0 3.805 3.805 0 0 0 7.61 0m51.18-39.84c0 2.1 1.71 3.8 3.81 3.8s3.8-1.7 3.8-3.8-1.7-3.81-3.8-3.81-3.81 1.71-3.81 3.81m-136.63 39.58c0 2.1 1.7 3.8 3.81 3.8 2.09 0 3.8-1.7 3.8-3.8s-1.71-3.81-3.8-3.81c-2.1 0-3.81 1.71-3.81 3.81m585.97 33.08c2.1 0 3.81-1.7 3.81-3.8s-1.71-3.81-3.81-3.81-3.8 1.71-3.8 3.81 1.71 3.8 3.8 3.8m0 22.47c2.1 0 3.81-1.7 3.81-3.8s-1.71-3.8-3.81-3.8-3.8 1.7-3.8 3.8c0 2.09 1.71 3.8 3.8 3.8m0 29.29c2.1 0 3.81-1.71 3.81-3.81 0-2.09-1.71-3.8-3.81-3.8s-3.8 1.71-3.8 3.8 1.71 3.81 3.8 3.81m0 22.46c2.1 0 3.81-1.71 3.81-3.8 0-2.1-1.71-3.81-3.81-3.81s-3.8 1.71-3.8 3.81c0 2.09 1.71 3.8 3.8 3.8m19.93 4.2c-.84.05-1.58.37-2.19.88-.02.02-.05.03-.07.05-.13.1-.22.23-.34.33-.75.69-1.22 1.64-1.22 2.7 0 2.05 1.62 3.71 3.67 3.79l1.29.04-.06-.39c1.66-.4 2.94-1.84 2.94-3.62 0-2.1-1.71-3.81-3.81-3.81-.05 0-.09.02-.14.03v-.02zm-19.93 25.08c2.1 0 3.81-1.7 3.81-3.8s-1.71-3.81-3.81-3.81-3.8 1.71-3.8 3.81 1.71 3.8 3.8 3.8m19.91 11.96c2.1 0 3.81-1.7 3.81-3.8s-1.71-3.81-3.81-3.81c-2.09 0-3.8 1.71-3.8 3.81-.01 2.1 1.71 3.8 3.8 3.8m-19.91 10.5c2.1 0 3.81-1.7 3.81-3.8s-1.71-3.81-3.81-3.81-3.8 1.71-3.8 3.81 1.71 3.8 3.8 3.8m19.91 11.96c2.1 0 3.81-1.7 3.81-3.8s-1.71-3.81-3.81-3.81c-2.09 0-3.8 1.71-3.8 3.81-.01 2.1 1.71 3.8 3.8 3.8m.26 21.95c-2.1 0-3.8 1.71-3.8 3.8a3.8 3.8 0 1 0 7.6 0c0-2.09-1.7-3.8-3.8-3.8m-20.17-4.63c2.1 0 3.81-1.7 3.81-3.8s-1.71-3.8-3.81-3.8-3.8 1.7-3.8 3.8 1.71 3.8 3.8 3.8m0 22.48c2.1 0 3.81-1.7 3.81-3.81 0-2.09-1.71-3.8-3.81-3.8s-3.8 1.71-3.8 3.8c0 2.1 1.71 3.81 3.8 3.81m12.54 11.62c0 2.1 1.7 3.8 3.8 3.8s3.81-1.7 3.81-3.8-1.71-3.81-3.81-3.81-3.8 1.71-3.8 3.81m-12.54 17.66c2.1 0 3.81-1.7 3.81-3.8s-1.71-3.81-3.81-3.81-3.8 1.71-3.8 3.81c0 2.09 1.71 3.8 3.8 3.8m0 22.46c2.1 0 3.81-1.7 3.81-3.8s-1.71-3.8-3.81-3.8-3.8 1.7-3.8 3.8 1.71 3.8 3.8 3.8m.27 21.94c-2.1 0-3.81 1.7-3.81 3.81 0 2.09 1.71 3.79 3.81 3.79s3.8-1.7 3.8-3.79c0-2.1-1.7-3.81-3.8-3.81m-39.08-340.03c-2.1 0-3.8 1.7-3.8 3.8s1.7 3.81 3.8 3.81 3.81-1.71 3.81-3.81-1.71-3.8-3.81-3.8m19.88 11.76c-2.1 0-3.81 1.71-3.81 3.8 0 2.1 1.71 3.81 3.81 3.81s3.81-1.71 3.81-3.81c0-2.08-1.71-3.8-3.81-3.8m-19.88 17.52a3.8 3.8 0 0 0-3.8 3.81c0 2.09 1.7 3.79 3.8 3.79s3.81-1.7 3.81-3.79c0-2.11-1.71-3.81-3.81-3.81m19.91 11.96c-2.1 0-3.81 1.7-3.81 3.81 0 2.09 1.71 3.79 3.81 3.79 2.09 0 3.8-1.7 3.8-3.79 0-2.11-1.71-3.81-3.8-3.81m-19.91 10.5c-2.1 0-3.8 1.71-3.8 3.81s1.7 3.8 3.8 3.8 3.81-1.7 3.81-3.8-1.71-3.81-3.81-3.81m19.91 11.96c-2.1 0-3.81 1.71-3.81 3.81s1.71 3.8 3.81 3.8c2.09 0 3.8-1.7 3.8-3.8s-1.71-3.81-3.8-3.81m-19.91 17.32c-2.1 0-3.8 1.71-3.8 3.81s1.7 3.8 3.8 3.8 3.81-1.7 3.81-3.8-1.71-3.81-3.81-3.81m19.91 11.96c-2.1 0-3.81 1.71-3.81 3.81s1.71 3.8 3.81 3.8c2.09 0 3.8-1.7 3.8-3.8s-1.71-3.81-3.8-3.81m-19.91 10.51c-2.1 0-3.8 1.7-3.8 3.8s1.7 3.8 3.8 3.8 3.81-1.7 3.81-3.8c0-2.09-1.71-3.8-3.81-3.8m19.91 11.96c-2.1 0-3.81 1.7-3.81 3.8s1.71 3.8 3.81 3.8c2.09 0 3.8-1.7 3.8-3.8 0-2.09-1.71-3.8-3.8-3.8m-19.91 17.32a3.805 3.805 0 0 0 0 7.61c2.1 0 3.81-1.71 3.81-3.81 0-2.08-1.71-3.8-3.81-3.8m19.91 11.96c-2.1 0-3.81 1.71-3.81 3.8 0 2.1 1.71 3.81 3.81 3.81 2.09 0 3.8-1.71 3.8-3.81 0-2.08-1.71-3.8-3.8-3.8m0 22.47c-2.1 0-3.81 1.71-3.81 3.81s1.71 3.8 3.81 3.8c2.09 0 3.8-1.7 3.8-3.8s-1.71-3.81-3.8-3.81m0 29.28c-2.1 0-3.81 1.71-3.81 3.81s1.71 3.8 3.81 3.8c2.09 0 3.8-1.7 3.8-3.8s-1.71-3.81-3.8-3.81m0 22.46c-2.1 0-3.81 1.71-3.81 3.81s1.71 3.8 3.81 3.8c2.09 0 3.8-1.7 3.8-3.8 0-2.09-1.71-3.81-3.8-3.81m-19.91 24.93c2.1 0 3.81-1.7 3.81-3.8s-1.71-3.8-3.81-3.8-3.8 1.7-3.8 3.8 1.7 3.8 3.8 3.8m19.91 4.36c-2.1 0-3.81 1.7-3.81 3.8s1.71 3.8 3.81 3.8c2.09 0 3.8-1.7 3.8-3.8 0-2.09-1.71-3.8-3.8-3.8m-19.91 18.12c2.1 0 3.81-1.7 3.81-3.81 0-2.09-1.71-3.8-3.81-3.8a3.805 3.805 0 0 0 0 7.61m19.91 4.35c-2.1 0-3.81 1.71-3.81 3.81s1.71 3.8 3.81 3.8c2.09 0 3.8-1.7 3.8-3.8s-1.71-3.81-3.8-3.81m-19.91 24.93c2.1 0 3.81-1.7 3.81-3.8s-1.71-3.81-3.81-3.81-3.8 1.71-3.8 3.81c0 2.09 1.7 3.8 3.8 3.8m19.91 4.35c-2.1 0-3.81 1.71-3.81 3.81s1.71 3.8 3.81 3.8c2.09 0 3.8-1.7 3.8-3.8s-1.71-3.81-3.8-3.81m-19.91 18.11c2.1 0 3.81-1.7 3.81-3.8s-1.71-3.8-3.81-3.8-3.8 1.7-3.8 3.8 1.7 3.8 3.8 3.8m19.91 4.36c-2.1 0-3.81 1.7-3.81 3.8s1.71 3.8 3.81 3.8c2.09 0 3.8-1.7 3.8-3.8s-1.71-3.8-3.8-3.8m-19.91 24.92c2.1 0 3.81-1.7 3.81-3.8s-1.71-3.81-3.81-3.81-3.8 1.71-3.8 3.81 1.7 3.8 3.8 3.8m19.91 4.35c-2.1 0-3.81 1.71-3.81 3.81s1.71 3.8 3.81 3.8c2.09 0 3.8-1.7 3.8-3.8s-1.71-3.81-3.8-3.81m-19.91 18.12c2.1 0 3.81-1.71 3.81-3.8 0-2.11-1.71-3.81-3.81-3.81a3.8 3.8 0 0 0-3.8 3.81c0 2.09 1.7 3.8 3.8 3.8m19.91 4.35c-2.1 0-3.81 1.71-3.81 3.81 0 2.09 1.71 3.8 3.81 3.8 2.09 0 3.8-1.71 3.8-3.8 0-2.1-1.71-3.81-3.8-3.81m0 29.55c-2.1 0-3.81 1.71-3.81 3.81s1.71 3.8 3.81 3.8c2.09 0 3.8-1.7 3.8-3.8s-1.71-3.81-3.8-3.81m-19.91-4.62c2.1 0 3.81-1.7 3.81-3.8s-1.71-3.81-3.81-3.81-3.8 1.71-3.8 3.81 1.7 3.8 3.8 3.8m0 22.47c2.1 0 3.81-1.7 3.81-3.8s-1.71-3.81-3.81-3.81-3.8 1.71-3.8 3.81c0 2.09 1.7 3.8 3.8 3.8m0 29.28c2.1 0 3.81-1.7 3.81-3.8s-1.71-3.8-3.81-3.8-3.8 1.7-3.8 3.8 1.7 3.8 3.8 3.8m-.52 22.23c2.1 0 3.81-1.7 3.81-3.81 0-2.09-1.71-3.8-3.81-3.8s-3.8 1.71-3.8 3.8a3.8 3.8 0 0 0 3.8 3.81m-18.38-461.14c-2.1 0-3.81 1.71-3.81 3.8 0 2.1 1.71 3.81 3.81 3.81s3.8-1.71 3.8-3.81c0-2.09-1.7-3.8-3.8-3.8m-19.91 17.32c-2.09 0-3.8 1.7-3.8 3.81 0 2.09 1.71 3.79 3.8 3.79 2.11 0 3.81-1.7 3.81-3.79 0-2.11-1.7-3.81-3.81-3.81m19.91 11.96c-2.1 0-3.81 1.7-3.81 3.81 0 2.09 1.71 3.79 3.81 3.79s3.8-1.7 3.8-3.79a3.8 3.8 0 0 0-3.8-3.81m-19.91 10.5c-2.09 0-3.8 1.71-3.8 3.81s1.71 3.8 3.8 3.8c2.11 0 3.81-1.7 3.81-3.8s-1.7-3.81-3.81-3.81m19.91 11.96c-2.1 0-3.81 1.71-3.81 3.81s1.71 3.8 3.81 3.8 3.8-1.7 3.8-3.8-1.7-3.81-3.8-3.81m-19.91 17.32c-2.09 0-3.8 1.71-3.8 3.81s1.71 3.8 3.8 3.8a3.8 3.8 0 0 0 3.81-3.8c0-2.1-1.7-3.81-3.81-3.81m19.91 11.96c-2.1 0-3.81 1.71-3.81 3.81s1.71 3.8 3.81 3.8 3.8-1.7 3.8-3.8-1.7-3.81-3.8-3.81m0 22.47c-2.1 0-3.81 1.7-3.81 3.8s1.71 3.8 3.81 3.8 3.8-1.7 3.8-3.8c0-2.09-1.7-3.8-3.8-3.8m0 140.38c2.1 0 3.8-1.7 3.8-3.8s-1.7-3.8-3.8-3.8-3.81 1.7-3.81 3.8 1.71 3.8 3.81 3.8m-19.91 10.52c2.11 0 3.81-1.7 3.81-3.81 0-2.09-1.7-3.8-3.81-3.8-2.09 0-3.8 1.71-3.8 3.8 0 2.1 1.71 3.81 3.8 3.81m19.91 11.96c2.1 0 3.8-1.7 3.8-3.8s-1.7-3.81-3.8-3.81-3.81 1.71-3.81 3.81 1.71 3.8 3.81 3.8m-19.91 17.32a3.8 3.8 0 0 0 3.81-3.8c0-2.1-1.7-3.81-3.81-3.81-2.09 0-3.8 1.71-3.8 3.81 0 2.09 1.71 3.8 3.8 3.8m19.91 11.96c2.1 0 3.8-1.7 3.8-3.8s-1.7-3.81-3.8-3.81-3.81 1.71-3.81 3.81c0 2.09 1.71 3.8 3.81 3.8m-19.91 10.5a3.8 3.8 0 1 0 0-7.6c-2.09 0-3.8 1.7-3.8 3.8s1.71 3.8 3.8 3.8m19.91 11.96c2.1 0 3.8-1.7 3.8-3.8s-1.7-3.8-3.8-3.8-3.81 1.7-3.81 3.8 1.71 3.8 3.81 3.8m-19.91 17.32a3.8 3.8 0 0 0 3.81-3.8c0-2.1-1.7-3.81-3.81-3.81-2.09 0-3.8 1.71-3.8 3.81s1.71 3.8 3.8 3.8m19.91 11.96c2.1 0 3.8-1.7 3.8-3.8s-1.7-3.81-3.8-3.81-3.81 1.71-3.81 3.81 1.71 3.8 3.81 3.8m-19.91 10.51c2.11 0 3.81-1.71 3.81-3.8 0-2.11-1.7-3.81-3.81-3.81-2.09 0-3.8 1.7-3.8 3.81 0 2.09 1.71 3.8 3.8 3.8m19.91 11.96a3.805 3.805 0 0 0 0-7.61c-2.1 0-3.81 1.71-3.81 3.81 0 2.09 1.71 3.8 3.81 3.8m-19.91 17.32a3.8 3.8 0 0 0 3.81-3.8c0-2.1-1.7-3.81-3.81-3.81-2.09 0-3.8 1.71-3.8 3.81s1.71 3.8 3.8 3.8m19.91 11.96c2.1 0 3.8-1.7 3.8-3.8s-1.7-3.81-3.8-3.81-3.81 1.71-3.81 3.81 1.71 3.8 3.81 3.8m-19.91 10.51a3.8 3.8 0 0 0 3.81-3.8c0-2.1-1.7-3.81-3.81-3.81-2.09 0-3.8 1.71-3.8 3.81 0 2.09 1.71 3.8 3.8 3.8m19.91 11.96c2.1 0 3.8-1.7 3.8-3.8s-1.7-3.81-3.8-3.81-3.81 1.71-3.81 3.81c0 2.09 1.71 3.8 3.81 3.8m-19.91 17.32a3.8 3.8 0 1 0 0-7.6c-2.09 0-3.8 1.7-3.8 3.8s1.71 3.8 3.8 3.8m19.91 11.96c2.1 0 3.8-1.7 3.8-3.8s-1.7-3.8-3.8-3.8-3.81 1.7-3.81 3.8c0 2.09 1.71 3.8 3.81 3.8m-19.91 10.51c2.11 0 3.81-1.71 3.81-3.81 0-2.09-1.7-3.8-3.81-3.8-2.09 0-3.8 1.71-3.8 3.8 0 2.1 1.71 3.81 3.8 3.81m19.91 11.96c2.1 0 3.8-1.7 3.8-3.81 0-2.09-1.7-3.8-3.8-3.8s-3.81 1.71-3.81 3.8c0 2.11 1.71 3.81 3.81 3.81m-19.91 17.32c2.11 0 3.81-1.71 3.81-3.8 0-2.11-1.7-3.81-3.81-3.81-2.09 0-3.8 1.7-3.8 3.81 0 2.09 1.71 3.8 3.8 3.8m19.91 11.96a3.805 3.805 0 0 0 0-7.61c-2.1 0-3.81 1.71-3.81 3.81 0 2.09 1.71 3.8 3.81 3.8m-19.91 10.51a3.8 3.8 0 0 0 3.81-3.8c0-2.1-1.7-3.81-3.81-3.81-2.09 0-3.8 1.71-3.8 3.81 0 2.09 1.71 3.8 3.8 3.8m0 28.76a3.8 3.8 0 0 0 3.81-3.8c0-2.1-1.7-3.81-3.81-3.81-2.09 0-3.8 1.71-3.8 3.81s1.71 3.8 3.8 3.8m-42.61-520.76c0 2.09 1.71 3.79 3.81 3.79 2.09 0 3.8-1.7 3.8-3.79 0-2.11-1.71-3.81-3.8-3.81-2.1 0-3.81 1.7-3.81 3.81m23.71 8.15c-2.1 0-3.81 1.7-3.81 3.81 0 2.09 1.71 3.79 3.81 3.79s3.8-1.7 3.8-3.79c0-2.11-1.71-3.81-3.8-3.81m0 22.46c-2.1 0-3.81 1.71-3.81 3.81s1.71 3.8 3.81 3.8 3.8-1.7 3.8-3.8-1.71-3.81-3.8-3.81m0 214.61c2.1 0 3.8-1.7 3.8-3.8s-1.7-3.81-3.8-3.81-3.81 1.71-3.81 3.81 1.71 3.8 3.81 3.8m-19.9 17.32c2.09 0 3.8-1.7 3.8-3.8s-1.71-3.81-3.8-3.81c-2.1 0-3.81 1.71-3.81 3.81 0 2.09 1.71 3.8 3.81 3.8m19.9 11.96c2.1 0 3.8-1.7 3.8-3.8s-1.7-3.81-3.8-3.81-3.81 1.71-3.81 3.81c0 2.09 1.71 3.8 3.81 3.8m-19.9 10.5c2.09 0 3.8-1.7 3.8-3.8a3.805 3.805 0 0 0-7.61 0c0 2.1 1.71 3.8 3.81 3.8m19.9 11.96c2.1 0 3.8-1.7 3.8-3.8s-1.7-3.8-3.8-3.8-3.81 1.7-3.81 3.8 1.71 3.8 3.81 3.8m0 81.03c2.1 0 3.8-1.7 3.8-3.8s-1.7-3.81-3.8-3.81-3.81 1.71-3.81 3.81 1.71 3.8 3.81 3.8m-23.14 6.14a3.805 3.805 0 0 0 7.61 0 3.805 3.805 0 0 0-7.61 0m23.14 16.33c2.1 0 3.8-1.7 3.8-3.8s-1.7-3.81-3.8-3.81-3.81 1.71-3.81 3.81c0 2.09 1.71 3.8 3.81 3.8m0 29.28c2.1 0 3.8-1.7 3.8-3.8s-1.7-3.8-3.8-3.8-3.81 1.7-3.81 3.8c0 2.09 1.71 3.8 3.81 3.8m0 22.47c2.1 0 3.8-1.7 3.8-3.81 0-2.09-1.7-3.8-3.8-3.8s-3.81 1.71-3.81 3.8c0 2.11 1.71 3.81 3.81 3.81m1.02 18.74c-2.1 0-3.81 1.7-3.81 3.8s1.71 3.8 3.81 3.8c2.09 0 3.8-1.7 3.8-3.8.01-2.09-1.71-3.8-3.8-3.8m-1.02 25.39c-2.1 0-3.81 1.71-3.81 3.81s1.71 3.8 3.81 3.8 3.8-1.7 3.8-3.8-1.71-3.81-3.8-3.81m-35.01-254.92c0-2.1-1.7-3.81-3.8-3.81s-3.8 1.71-3.8 3.81 1.7 3.8 3.8 3.8c2.09 0 3.8-1.71 3.8-3.8m53.91 302.32a3.8 3.8 0 1 0 0-7.6c-2.09 0-3.8 1.7-3.8 3.8s1.71 3.8 3.8 3.8m-57.37 33.73c-2.1 0-3.81 1.71-3.81 3.8 0 2.11 1.71 3.81 3.81 3.81s3.8-1.7 3.8-3.81c0-2.08-1.7-3.8-3.8-3.8m3.02 26.29c0-2.09-1.71-3.8-3.81-3.8a3.805 3.805 0 0 0 0 7.61c2.1 0 3.81-1.71 3.81-3.81m35.16-3.8c-2.1 0-3.81 1.71-3.81 3.8 0 2.1 1.71 3.81 3.81 3.81s3.8-1.71 3.8-3.81c0-2.09-1.71-3.8-3.8-3.8m19.34-34.52c-2.1 0-3.8 1.71-3.8 3.81s1.7 3.8 3.8 3.8 3.81-1.7 3.81-3.8-1.71-3.81-3.81-3.81m-19.05-39.82c-2.1 0-3.81 1.71-3.81 3.81s1.71 3.8 3.81 3.8 3.8-1.7 3.8-3.8-1.71-3.81-3.8-3.81m-19.9 10.52c-2.1 0-3.81 1.7-3.81 3.8s1.71 3.8 3.81 3.8c2.09 0 3.8-1.7 3.8-3.8s-1.71-3.8-3.8-3.8m19.9 11.96c-2.1 0-3.81 1.7-3.81 3.81 0 2.09 1.71 3.79 3.81 3.79s3.8-1.7 3.8-3.79c0-2.11-1.71-3.81-3.8-3.81m-19.9 17.32c-2.1 0-3.81 1.71-3.81 3.8 0 2.11 1.71 3.81 3.81 3.81 2.09 0 3.8-1.7 3.8-3.81 0-2.09-1.71-3.8-3.8-3.8m19.9 11.96c-2.1 0-3.81 1.71-3.81 3.8 0 2.11 1.71 3.81 3.81 3.81s3.8-1.7 3.8-3.81c0-2.09-1.71-3.8-3.8-3.8m-19.9 10.5c-2.1 0-3.81 1.71-3.81 3.81s1.71 3.8 3.81 3.8c2.09 0 3.8-1.7 3.8-3.8s-1.71-3.81-3.8-3.81m0 26.69c-2.1 0-3.81 1.7-3.81 3.81 0 2.09 1.71 3.79 3.81 3.79 2.09 0 3.8-1.7 3.8-3.79 0-2.11-1.71-3.81-3.8-3.81m-19.32 19.19c2.1 0 3.81-1.7 3.81-3.8s-1.71-3.81-3.81-3.81-3.8 1.71-3.8 3.81 1.7 3.8 3.8 3.8m-174.74-785.2c2.09 0 3.8-1.71 3.8-3.81s-1.71-3.81-3.8-3.81a3.809 3.809 0 1 0 0 7.62m0 22.45c2.09 0 3.8-1.7 3.8-3.79 0-2.11-1.71-3.81-3.8-3.81-2.11 0-3.81 1.7-3.81 3.81 0 2.09 1.71 3.79 3.81 3.79m0 29.29c2.09 0 3.8-1.7 3.8-3.81 0-2.09-1.71-3.8-3.8-3.8-2.11 0-3.81 1.71-3.81 3.8 0 2.11 1.71 3.81 3.81 3.81m20.03 4.45a3.8 3.8 0 1 0 0 7.6c2.09 0 3.8-1.7 3.8-3.8 0-2.09-1.71-3.8-3.8-3.8m.21-29.51c-2.1 0-3.8 1.71-3.8 3.81s1.7 3.8 3.8 3.8 3.81-1.7 3.81-3.8-1.71-3.81-3.81-3.81m-20.24 77.18c2.09 0 3.8-1.7 3.8-3.8s-1.71-3.81-3.8-3.81c-2.11 0-3.81 1.71-3.81 3.81 0 2.09 1.71 3.8 3.81 3.8m-2.73-30.88-.04.1.72.47 1.13.75.08-.23c.28.07.55.14.84.14 2.09 0 3.8-1.7 3.8-3.8 0-1.49-.89-2.8-2.18-3.42l.1-.23-1.72-.17c-.03 0-.06.02-.08.02l-.57-.03-.04.16c-1.76.33-3.12 1.81-3.12 3.67 0 .95.4 1.87 1.08 2.57m-36.09-102.27a3.8 3.8 0 0 0 3.81-3.8c0-2.1-1.7-3.81-3.81-3.81-2.09 0-3.8 1.71-3.8 3.81s1.71 3.8 3.8 3.8m-18.08 11.41c2.1 0 3.8-1.7 3.8-3.8s-1.7-3.8-3.8-3.8-3.81 1.7-3.81 3.8 1.71 3.8 3.81 3.8m-.87-21.96c2.11 0 3.81-1.7 3.81-3.8s-1.7-3.81-3.81-3.81c-2.09 0-3.8 1.71-3.8 3.81s1.71 3.8 3.8 3.8m38.86 22.51c2.1 0 3.8-1.7 3.8-3.8s-1.7-3.81-3.8-3.81-3.8 1.71-3.8 3.81c0 2.09 1.7 3.8 3.8 3.8m0 29.29c2.1 0 3.8-1.71 3.8-3.81s-1.7-3.8-3.8-3.8-3.8 1.7-3.8 3.8 1.7 3.81 3.8 3.81m-20.25-11.85c2.1 0 3.81-1.71 3.81-3.81 0-2.09-1.71-3.8-3.81-3.8s-3.8 1.71-3.8 3.8c0 2.1 1.71 3.81 3.8 3.81m20.25 34.3c2.1 0 3.8-1.7 3.8-3.79a3.8 3.8 0 1 0-3.8 3.79m-19.52 9.78-.39-.06c-.02 0-.05.02-.07.02l-.47-.02-.06.13c-1.79.31-3.2 1.8-3.2 3.68 0 .45.12.88.31 1.32l-.06.08.37.59.88 1.41.2-.31c.62.44 1.33.71 2.1.71 2.11 0 3.81-1.7 3.81-3.81 0-1.45-.84-2.68-2.05-3.32l.15-.27zm19.52 19.51c2.1 0 3.8-1.7 3.8-3.81 0-2.09-1.7-3.8-3.8-3.8s-3.8 1.71-3.8 3.8a3.8 3.8 0 0 0 3.8 3.81m-19.91 10.51c2.11 0 3.81-1.7 3.81-3.8s-1.7-3.81-3.81-3.81c-2.09 0-3.8 1.71-3.8 3.81s1.71 3.8 3.8 3.8m19.91 11.96c2.1 0 3.8-1.7 3.8-3.8s-1.7-3.81-3.8-3.81-3.8 1.71-3.8 3.81c0 2.09 1.7 3.8 3.8 3.8m0 29.28c2.1 0 3.8-1.7 3.8-3.8s-1.7-3.81-3.8-3.81-3.8 1.71-3.8 3.81c0 2.09 1.7 3.8 3.8 3.8m-38.81-29.28c2.1 0 3.81-1.7 3.81-3.8s-1.71-3.81-3.81-3.81-3.81 1.71-3.81 3.81c0 2.09 1.71 3.8 3.81 3.8m18.95 40.05c2.1 0 3.81-1.7 3.81-3.8s-1.71-3.81-3.81-3.81-3.81 1.71-3.81 3.81 1.71 3.8 3.81 3.8m0-30.44c-2.1 0-3.81 1.71-3.81 3.8 0 2.11 1.71 3.81 3.81 3.81s3.81-1.7 3.81-3.81c0-2.09-1.71-3.8-3.81-3.8m330.35-187.33c2.09 0 3.8-1.7 3.8-3.8a3.805 3.805 0 0 0-7.61 0c0 2.1 1.71 3.8 3.81 3.8m-19.91 10.51c2.1 0 3.81-1.71 3.81-3.81s-1.71-3.8-3.81-3.8-3.8 1.7-3.8 3.8 1.7 3.81 3.8 3.81m19.91 11.96c2 0 3.66-1.58 3.77-3.6l.02-.35a3.79 3.79 0 0 0-3.79-3.67 3.811 3.811 0 0 0 0 7.62m-19.91 17.32c2.1 0 3.81-1.71 3.81-3.8 0-2.11-1.71-3.81-3.81-3.81a3.8 3.8 0 0 0-3.8 3.81c0 2.09 1.7 3.8 3.8 3.8m0 22.47c2.1 0 3.81-1.7 3.81-3.8s-1.71-3.81-3.81-3.81-3.8 1.71-3.8 3.81 1.7 3.8 3.8 3.8m19.88 11.77c2.1 0 3.81-1.7 3.81-3.8s-1.71-3.81-3.81-3.81-3.81 1.71-3.81 3.81c0 2.09 1.71 3.8 3.81 3.8"/><ellipse cx="3625.93" cy="3396.74" rx="3.81" ry="3.8"/><path d="m3604.28 3439.9 2.85.31.22-.08c1.5-.55 2.51-1.98 2.51-3.55 0-2.1-1.71-3.81-3.81-3.81s-3.8 1.71-3.8 3.81c0 1.37.78 2.65 2.03 3.32m-17.13-68.6c2.1 0 3.8-1.7 3.8-3.81 0-2.1-1.7-3.8-3.8-3.8s-3.81 1.7-3.81 3.8c0 2.11 1.71 3.81 3.81 3.81m-19.91 17.32c2.11 0 3.81-1.71 3.81-3.8 0-2.11-1.7-3.81-3.81-3.81-2.09 0-3.8 1.7-3.8 3.81 0 2.09 1.71 3.8 3.8 3.8m19.91 11.96a3.805 3.805 0 0 0 0-7.61c-2.1 0-3.81 1.71-3.81 3.81 0 2.09 1.71 3.8 3.81 3.8m-19.91 10.51a3.8 3.8 0 0 0 3.81-3.8c0-2.1-1.7-3.81-3.81-3.81-2.09 0-3.8 1.71-3.8 3.81s1.71 3.8 3.8 3.8m19.91 11.96c2.1 0 3.8-1.7 3.8-3.8s-1.7-3.81-3.8-3.81-3.81 1.71-3.81 3.81c0 2.09 1.71 3.8 3.81 3.8m-20.42 15.49c2.09 0 3.8-1.71 3.8-3.81s-1.71-3.81-3.8-3.81c-2.11 0-3.81 1.71-3.81 3.81s1.7 3.81 3.81 3.81m-15.94-73.91-.4-.35-.39.08c-.58-.35-1.22-.61-1.95-.61-2.1 0-3.81 1.7-3.81 3.8s1.71 3.81 3.81 3.81c.52 0 1.03-.11 1.49-.31 1.5-.51 2.6-1.89 2.6-3.57 0-1.09-.48-2.1-1.35-2.85m-22.35 23.99c2.09 0 3.8-1.71 3.8-3.8 0-2.11-1.71-3.81-3.8-3.81-2.1 0-3.81 1.7-3.81 3.81 0 2.09 1.71 3.8 3.81 3.8m19.9 4.35c-2.1 0-3.81 1.71-3.81 3.81 0 2.09 1.71 3.8 3.81 3.8s3.8-1.71 3.8-3.8-1.71-3.81-3.8-3.81m-19.9 18.12c2.09 0 3.8-1.7 3.8-3.8s-1.71-3.81-3.8-3.81c-2.1 0-3.81 1.71-3.81 3.81s1.71 3.8 3.81 3.8m19.9 4.35c-2.1 0-3.81 1.71-3.81 3.81s1.71 3.8 3.81 3.8 3.8-1.7 3.8-3.8-1.71-3.81-3.8-3.81m-19.9 24.94c2.09 0 3.8-1.71 3.8-3.81s-1.71-3.81-3.8-3.81c-2.1 0-3.81 1.71-3.81 3.81s1.71 3.81 3.81 3.81m-18.92-39.8a3.805 3.805 0 0 0 0-7.61c-2.1 0-3.8 1.71-3.8 3.81 0 2.09 1.71 3.8 3.8 3.8m-19.9 10.51c2.1 0 3.8-1.7 3.8-3.8s-1.7-3.81-3.8-3.81-3.8 1.71-3.8 3.81 1.71 3.8 3.8 3.8m19.9 11.96c2.1 0 3.8-1.7 3.8-3.8s-1.7-3.81-3.8-3.81-3.8 1.71-3.8 3.81c0 2.09 1.71 3.8 3.8 3.8"/><ellipse cx="3489.62" cy="3436.57" rx="3.8" ry="3.81"/><path d="M3509.52 3452.34c2.1 0 3.8-1.71 3.8-3.81s-1.7-3.8-3.8-3.8-3.8 1.7-3.8 3.8 1.71 3.81 3.8 3.81m-19.9 10.49c2.1 0 3.8-1.7 3.8-3.79a3.8 3.8 0 1 0-3.8 3.79m-18.91-18.1c-2.1 0-3.8 1.7-3.8 3.8s1.7 3.81 3.8 3.81 3.81-1.71 3.81-3.81-1.71-3.8-3.81-3.8m0 22.46a3.8 3.8 0 0 0-3.8 3.81c0 2.09 1.7 3.79 3.8 3.79s3.81-1.7 3.81-3.79c0-2.11-1.71-3.81-3.81-3.81m-447.7 96.46c21.67-10.38 42.9-17.19 63.6-21.23q8.475-1.65 16.83-2.7c25.1-3.14 49.35-2.31 72.55 1.23.44 1.61 1.86 2.83 3.61 2.83 1.32 0 2.43-.72 3.11-1.74 42.18 7.42 80.82 23.46 114.73 40.2-7.07-9.95-14.52-18.79-22.25-26.7a3.807 3.807 0 0 0 5.27-3.51c0-2.1-1.71-3.81-3.81-3.81s-3.81 1.71-3.81 3.81c0 .49.11.94.28 1.37-4.24-4.22-8.57-8.08-12.96-11.72.24-.5.39-1.03.39-1.62 0-2.1-1.7-3.81-3.8-3.81-.88 0-1.65.35-2.29.85-77.89-59.53-176.27-34.05-231.45 26.55m174.32 360.46c1.29-2.18 2.74-4.71 3.84-7.82 6.2-18-48.27-3.91-18.73 30.81 3.24 3.47 7.1 8.9 12.14 10.42 8.09-.01 4.18-13.35 3.67-17.96-.34-1.74-.8-3.4-1.26-5.02 58.74 58.78 112.35 86.68 169.93 97.38 7.88 5.81 16.32 12.7 25.94 22.32 30.59 30.6 74.31 61.91 107.72 61.91 5.88 0 11.46-.97 16.58-3.09 17.63-7.3 26.57-25.98 26.57-55.53 0-47.49-15.31-70.16-31.89-87.53-.18-1.43-.34-2.85-.4-4.28 33.58-10.8 51.27-41.83 44.51-53.96-8.13-14.56-60.37-12.5-91.55 3.86-62.73-30.97-93.34 13.53-267.07 8.49m331.3 133.42c0 22.85-5.8 36.85-17.26 41.59-21.76 9-66.13-13.82-107.86-55.55-16.35-16.35-29.27-25.17-41.76-33.69-10.94-7.46-21.27-14.52-33.4-26.37-2.58-2.52-2.07-5.47-1.74-6.61.34-1.17 1.52-3.96 5.12-4.7.9-.18 1.89-.34 2.81-.51 19.47 1.37 48.63 2.25 70.03 2.75l1.41 2.48c4.05 7.17 10.22 11.28 16.92 11.28h.4l14.52-.37h.18c13.09 9.6 23.87 20.68 34.69 32.77 1.01 1.13 2.03 2.26 3.04 3.4.28.32.84.06.78-.36-1.76-13.46-8.85-26.8-19.1-36.3l17.63-.44c7.31-.18 13.43-5.13 16.95-13.15 3.3 1.71 6.27 3.89 8.81 6.54 16.7 17.47 27.83 37.3 27.83 77.24m-107.51-108.81c29.35 0 57.14-1.6 84.07-5.14-5.07 7.11-12.1 11.72-19.95 14.67l-.78 4.84c-1.29 8.05-5.15 13.43-9.69 13.54l-51.73 1.3h-.14c-2.92 0-5.79-2.19-7.99-6.08l-4.28-7.56c-16.05-.35-81.05-1.91-92.28-4.72-12.23-3.05-20.38-9.74-28.4-18.95 47.98 5.11 91.05 8.1 131.17 8.1m-279.84-69.39a3.63 3.63 0 0 0 1.01-3.58c-.51-1.95-2.52-3.1-4.46-2.59-10.1 2.85-18.91 7.58-27.09 14.27-10.54 8.55-15.93 20.11-10.24 33.95 7.66 19.27 17.76 34.43 29.08 51.17 1.83 2.78 6.49.72 5.65-2.52-3.95-18.31-12.76-36.9-18.57-53.92-.73-3.01-1.82-5.66-1.01-8.29 5.31-10.64 16.92-19.07 25.63-28.49"/></svg>