<?xml version="1.0" encoding="utf-8"?>
<!-- Generator: Adobe Illustrator 27.0.0, SVG Export Plug-In . SVG Version: 6.00 Build 0)  -->
<svg version="1.1" id="Calque_1" xmlns="http://www.w3.org/2000/svg" xmlns:xlink="http://www.w3.org/1999/xlink" x="0px" y="0px"
	 viewBox="0 0 242.42 299.63" style="enable-background:new 0 0 242.42 299.63;" xml:space="preserve">
<style type="text/css">
	.st0{fill:#0E3024;}
</style>
<g>
	<g>
		<polygon class="st0" points="62.49,200.55 58.49,191.72 57.79,194.29 29.02,207.32 26.63,206.15 30.63,214.99 31.33,212.42 
			60.1,199.38 		"/>
	</g>
	<g>
		<polygon class="st0" points="76.42,221.41 79.06,222.05 74.22,216.33 55.74,224.9 66.63,207.37 61.85,201.73 61.92,204.28 
			37.74,224.76 35.22,224.4 39.16,229.06 39.23,226.51 57.53,211.01 42.91,233.8 66.2,222.72 48.62,237.61 46,237.14 52.3,244.58 
			52.24,241.88 		"/>
	</g>
	<g>
		<path class="st0" d="M88.05,241.81c3.71-6.1,2.97-13.34-1.47-16.04l-7-4.26l1.17,2.7l-16.42,26.98l-2.59,0.41l8.58,5.22
			l-1.21-2.72l3.87-6.36C77.38,250.41,84.34,247.91,88.05,241.81z M73.76,246.45l11.87-19.51c2.05,1.25,0.89,6.51-2.4,11.93
			C79.96,244.25,75.81,247.7,73.76,246.45z"/>
	</g>
	<g>
		<path class="st0" d="M98.99,231.84l-0.02,1.77L85.13,262.4l-2.31,1.07l5.78,1.76l-1.32-2.18l2.56-5.33l5.21,1.59l-0.84,5.85
			l-2.5,1.01l9.37,2.85l-1.46-2.22l4.73-33.35L98.99,231.84z M95.39,257.01l-4.54-1.38l6.77-14.34L95.39,257.01z"/>
	</g>
	<g>
		<path class="st0" d="M118.95,235.65l-7.69-0.24l2.05,1.66l-1,31.66l-1.9,1.64l9.29,0.29l-1.79-1.76l0.18-5.79
			c4.17,8.88,9.05,7.93,9.05,7.93l0.26-8.09c-3.16,1.95-6.22,0.55-8.5-1.52c4.81-0.4,9.03-5.81,9.24-12.56
			C128.35,241.69,124.09,235.81,118.95,235.65z M122.48,248.7c-0.2,6.29-2.11,11.33-4.3,11.26l0.72-22.82
			C121.1,237.21,122.68,242.36,122.48,248.7z"/>
	</g>
	<g>
		<polygon class="st0" points="140.97,251.79 142.14,251.53 145.11,255.6 142.68,244.26 141.56,249.31 140.49,249.54 137.62,236.2 
			140.8,235.52 144.09,239.92 142.56,232.79 129.71,235.55 132.02,236.79 138.66,267.66 137.01,269.76 146.59,267.7 144.13,266.49 
					"/>
	</g>
	<g>
		<path class="st0" d="M152.39,228.39l-5.07,2.38l1.17,1.32l9.04,30.64l-1,2.35l5.47-2.57l-2.44-0.73l-1.67-5.67l4.93-2.32l3.3,4.91
			l-1.18,2.43l8.86-4.16l-2.58-0.67L152.39,228.39z M157.24,253.88l-4.59-15.18l8.89,13.16L157.24,253.88z"/>
	</g>
	<g>
		<polygon class="st0" points="166.87,220.66 167.41,218.05 159.83,224.1 162.5,224.15 182.21,248.83 181.66,251.44 189.24,245.39 
			186.58,245.34 		"/>
	</g>
	<g>
		<polygon class="st0" points="177.58,210.03 179.59,207.54 184.89,208.94 179.22,204.35 168.84,217.16 174.51,221.75 
			172.04,216.86 174.05,214.37 198.12,233.88 198.28,236.39 204.16,229.13 201.65,229.53 		"/>
	</g>
	<g>
		<path class="st0" d="M210.76,196.57c-5.74-2.45-9.43-0.44-13.51,1.73c-3.88,2.09-7.44,4.7-10.2,3.52
			c-2.39-1.02-3.21-3.17-2.31-5.28c1.08-2.53,2.96-3.63,12.23-4.34l-10.48-4.48l0.34,2.37c-1.08,1.12-2.5,2.68-3.33,4.61
			c-2.14,5.01-0.13,9.84,5.07,12.05c5.33,2.28,11.19-1.52,14.24-3.32c3.79-2.13,5.9-3.51,8.75-2.29c2.66,1.14,3.47,3.44,2.61,5.46
			c-1.51,3.54-7.7,5.19-13.47,5.33l11.67,4.99l-0.88-2.66c2.16-1.63,3.6-3.73,4.47-5.75C217.78,204.3,216.46,199.01,210.76,196.57z"
			/>
	</g>
	<g>
		<polygon class="st0" points="54.61,128.61 55.72,120.59 52.75,123.11 29.19,119.84 57.39,109.67 25.16,105.21 22.99,101.98 
			21.88,110 24.85,107.48 40.74,109.69 20.9,117.08 19.89,124.3 25.71,121.68 52.43,125.38 		"/>
	</g>
	<g>
		<path class="st0" d="M41.21,97.43c8.24,5.11,19.03,2.68,24.27-5.77c5.16-8.32,2.5-19.2-5.79-24.33
			c-8.11-5.03-18.99-2.65-24.2,5.75C30.36,81.37,32.93,92.3,41.21,97.43z M40.51,71.72c3.18-5.14,9-6.47,14.14-3.28
			C62.34,73.2,65.13,85.39,60.42,93c-3.18,5.14-8.92,6.52-14.1,3.31C38.68,91.57,35.83,79.28,40.51,71.72z"/>
	</g>
	<g>
		<path class="st0" d="M76.24,60.42c4.34,0.25,6.86,0.23,8.61,2.79c1.63,2.4,1.07,4.77-0.75,6.01c-3.18,2.17-9.29,0.21-14.22-2.77
			l7.14,10.49l0.69-2.71c2.7-0.21,5.05-1.2,6.87-2.44c3.8-2.59,5.54-7.76,2.05-12.88c-3.52-5.16-7.7-5.46-12.31-5.83
			c-4.4-0.33-8.8-0.05-10.49-2.53c-1.46-2.15-1-4.4,0.9-5.69c2.27-1.55,4.45-1.46,12.64,2.94l-6.41-9.42l-0.99,2.19
			c-1.51,0.36-3.55,0.91-5.29,2.09c-4.5,3.07-5.41,8.22-2.23,12.88C65.71,60.33,72.7,60.29,76.24,60.42z"/>
	</g>
	<g>
		<path class="st0" d="M105.96,51.96c0.88,4.87,0.34,9.48-1.32,10.95l0.01,0.05c4.83-1.38,7.85-6.29,6.94-11.31l-4.2-23.21
			l1.66-2.03l-9.44,1.71l2.27,1.32L105.96,51.96z"/>
	</g>
	<g>
		<path class="st0" d="M118.61,58.94l1.12-5.81l5.44,0.21l0.68,5.88l-2.16,1.62l9.79,0.37l-1.98-1.78l-3.93-33.45l-5.59-0.21
			l0.44,1.72l-6.04,31.37l-1.96,1.63l6.04,0.23L118.61,58.94z M123.05,35.26l1.85,15.77l-4.74-0.18L123.05,35.26z"/>
	</g>
	<g>
		<path class="st0" d="M142.11,62.35l1.84-5.5c1.44,9.7,6.39,10.2,6.39,10.2l2.57-7.68c-3.59,0.96-6.11-1.26-7.71-3.9
			c4.72,1,10.32-2.97,12.46-9.37c2.28-6.82-0.11-13.68-4.99-15.32l-7.3-2.44l1.48,2.18L136.8,60.56l-2.29,1.02l8.81,2.95
			L142.11,62.35z M152.2,32.21c2.09,0.7,2.13,6.09,0.11,12.1c-2,5.97-5.27,10.25-7.36,9.55L152.2,32.21z"/>
	</g>
	<g>
		<path class="st0" d="M155.07,67.22l-2.61,0.22l6.18,4.41c5.45,3.89,13.06-0.32,18.52-7.97s7.25-16.62,1.8-20.51l-6.18-4.41
			l0.64,2.54L155.07,67.22z M172.71,60.47c-4.64,6.51-10.52,11.04-13.2,10.16l18.58-26.03C179.79,46.86,177.41,53.88,172.71,60.47z"
			/>
	</g>
	<g>
		<polygon class="st0" points="171.49,80.75 168.88,80.26 175.1,87.7 175.09,85.04 199.31,64.77 201.93,65.26 195.71,57.82 
			195.72,60.48 		"/>
	</g>
	<g>
		<polygon class="st0" points="177.13,89.4 180.46,96.78 181.63,93.07 203.31,83.29 184.86,106.91 214.51,93.53 218.07,95.1 
			214.74,87.72 213.57,91.43 198.95,98.03 211.8,81.21 208.8,74.56 205.28,79.88 180.69,90.97 		"/>
	</g>
	<g>
		<path class="st0" d="M211.52,107.99c-5.76,0.67-8.96,6.87-10.72,9.94c-2.23,3.73-3.38,5.98-6.46,6.33
			c-2.88,0.33-4.72-1.26-4.98-3.45c-0.44-3.82,4.12-8.32,9.05-11.31l-12.61,1.46l2.08,1.87c-1.07,2.49-1.28,5.03-1.03,7.21
			c0.53,4.57,4.3,8.51,10.46,7.79c6.2-0.72,8.41-4.29,10.87-8.2c2.33-3.74,4.13-7.77,7.11-8.12c2.58-0.3,4.36,1.16,4.62,3.44
			c0.32,2.73-0.77,4.62-8.47,9.83l11.32-1.31l-1.48-1.89c0.38-1.5,0.84-3.57,0.6-5.65C221.27,110.53,217.13,107.34,211.52,107.99z"
			/>
	</g>
	<g>
		<path class="st0" d="M121.32,76.3c-30.97,0-56.16,25.19-56.16,56.16v6.89c-7.3,0.4-16.1,3.27-26.96,9.6l-1.71,1l1.2,1.58
			c5.97,7.84,15.7,17.96,28.55,22.43c5.06,25.81,27.82,45.35,55.09,45.35c18.43,0,34.8-8.94,45.05-22.7
			c1.13,0.41,2.42,0.66,3.95,0.66c1.89,0,4.12-0.37,6.79-1.21l2.3-0.73l-1.41-1.96c-1.89-2.64-3.92-4.67-6.02-6.06
			c2.15-4.5,3.73-9.33,4.62-14.38c3.61-0.47,7.4-1.65,11.46-3.95c15.68-8.9,13.89-28.8,13.81-29.65l-0.12-1.23l-1.2-0.3
			c-0.54-0.14-11.71-2.83-23.07,1.25v-6.59C177.48,101.49,152.29,76.3,121.32,76.3z M121.32,79.46c29.22,0,53,23.77,53,53v7.91
			c-0.6,0.29-1.19,0.58-1.78,0.91c-4.23,2.36-7.47,5.3-9.91,8.21c-0.42-3.35-2.26-7.21-6.47-11.92l-1.67-1.87l-1.18,2.21
			c-2.82,5.28-4.05,10.13-3.71,14.35c-0.78-0.25-1.61-0.38-2.47-0.38c-4.54,0-8.23,3.69-8.23,8.23c0,3.71,2.47,6.86,5.85,7.88
			c-8.17,6.53-15.32,16.09-21.34,28.49c-0.38-1.32-0.85-2.54-1.31-3.73c-1.59-4.12-3.1-8.03-1.15-16.17
			c5.48-0.6,11.36-1.77,12.16-13.13l0.17-2.35l-2.3,0.52c-8.37,1.88-13,6.38-12.88,12.43l-0.03-0.01c-0.75,2.71-1.17,5.06-1.35,7.13
			c-2.52-3.26-5.11-5.96-7.81-8.13c-3.26-5.21-3.69-14.21-4.1-22.96c-0.03-0.64-0.06-1.26-0.09-1.9c1.48,0.07,2.94,0.1,4.36,0.1
			c16.46,0,28.72-4.63,36.47-13.78c13.19-15.57,8.43-38.32,8.22-39.28l-0.31-1.41l-1.45,0.03c-22.34,0.52-36.19,9.12-44.41,28.68
			c-0.46-0.08-0.94-0.13-1.43-0.13c-3.09,0-5.78,1.71-7.19,4.23c-1.65-3.86-3.44-7.5-5.08-10.51c3.7-3.51,7.15-7.8,1.75-17.3
			l-1.24-2.18l-1.62,1.91c-3.51,4.14-5.15,8.31-4.86,12.08c-2.27-0.89-5.34-1.12-9.67-0.23l-2.46,0.5l1.31,2.14
			c3.5,5.68,7.9,8.69,12.5,8.69c1.01,0,2.02-0.15,3.04-0.44c2.63,5.24,5.36,11.61,7,17.45c-0.96-0.39-2-0.61-3.1-0.61
			c-4.54,0-8.23,3.69-8.23,8.23c0,1.4,0.35,2.72,0.98,3.88c-5.43-6.13-12-10.49-20.98-10.89v-6.87
			C68.32,103.24,92.1,79.46,121.32,79.46z M150.87,157.26c0.22,0.49,0.47,0.96,0.75,1.42c0.15,0.45,0.23,0.94,0.23,1.44
			c0,2.6-2.12,4.72-4.72,4.72s-4.72-2.12-4.72-4.72s2.12-4.72,4.72-4.72C148.65,155.4,150.01,156.13,150.87,157.26z M155.24,141.94
			c6.06,7.7,4.22,11.91,0.86,16.86c-0.54-0.58-0.99-1.19-1.37-1.81c-0.18-0.44-0.4-0.85-0.65-1.25
			C152.08,151.21,153.49,145.91,155.24,141.94z M121.64,172.97c0.45-3.9,3.97-6.07,7.68-7.28
			C128.35,171.43,125.61,172.46,121.64,172.97z M93.17,161.36c-8.77-8.2-23.4-14.8-47.69-12.39
			C72.01,135.56,83.3,145.87,93.17,161.36z M100.91,144.52c0.11,0.8,0.19,1.57,0.23,2.31c0.01,0.17,0.02,0.34,0.02,0.51
			c-0.46,2.13-2.35,3.72-4.61,3.72c-2.6,0-4.72-2.12-4.72-4.72s2.12-4.72,4.72-4.72C98.51,141.62,100.19,142.82,100.91,144.52z
			 M142.87,132.24c-7.11,8.4-18.61,12.59-34.15,12.54c7.13-6,29.79-25.77,42.22-44.54C151.64,107.33,151.72,121.8,142.87,132.24z
			 M105.22,143.13c0.29-1.47,0.6-2.9,0.92-4.29c0.01,0,0.02,0,0.03,0c4.54,0,8.23-3.69,8.23-8.23c0-2.81-1.42-5.3-3.58-6.79
			c7.21-17.19,18.89-25.06,37.72-26.32C135.79,117.18,110.26,138.93,105.22,143.13z M110.9,130.62c0,2.6-2.12,4.72-4.72,4.72
			s-4.72-2.12-4.72-4.72s2.12-4.72,4.72-4.72C108.78,125.9,110.9,128.02,110.9,130.62z M96.55,154.57c1.83,0,3.52-0.61,4.89-1.62
			c0.3,5.88,0.74,11.71,2.16,16.55c-0.67-0.36-1.35-0.7-2.05-1.01l-0.08-0.14c-3.17-5.42-6.37-10.89-10.07-15.59
			C92.81,153.89,94.6,154.57,96.55,154.57z M100.28,172.97c2.6,0,4.72,2.12,4.72,4.72s-2.12,4.72-4.72,4.72s-4.72-2.12-4.72-4.72
			C95.55,175.09,97.67,172.97,100.28,172.97z M93.83,102.95c2.25,5.07,0.87,7.45-1.71,10.01C90.46,109.57,91.8,105.95,93.83,102.95z
			 M90.61,118.13c-3.75,0.52-6.76-1.88-8.98-4.73C87.15,112.83,88.98,114.89,90.61,118.13z M43.17,152.76
			c30.11-3.72,45.06,6.54,52.41,16.6C71.6,179.31,53.35,164.79,43.17,152.76z M69.67,174.99c3.15,0.81,6.47,1.27,9.95,1.27
			c4.19,0,8.62-0.66,13.27-2.16c-0.53,1.09-0.84,2.31-0.84,3.6c0,4.54,3.69,8.23,8.23,8.23s8.23-3.69,8.23-8.23
			c0-0.13-0.01-0.25-0.02-0.38c2.9,2.66,5.69,6.03,8.44,10.18c0.43,2.54,1.22,4.59,1.97,6.53c1.02,2.65,1.91,4.98,1.87,8.24
			c-1.81,4.24-3.51,8.76-5.08,13.57C93.07,213.44,74.66,196.75,69.67,174.99z M121.32,216.15c-0.67,0-1.34-0.02-2.01-0.05
			c3.03-9.14,6.5-17.19,10.39-24.12c10.86-3.43,18.42-5.44,29.73-2.51c1.12,2.02,2.35,4.07,4.18,5.56
			C153.92,207.85,138.58,216.15,121.32,216.15z M163.04,179.32c0.92,2.52,0.34,3.92-0.98,5.36
			C161.49,182.88,162.07,181,163.04,179.32z M173.57,193.39c-6.21,1.38-8.36-0.9-10.49-4.57
			C167.22,187.65,170.85,190.25,173.57,193.39z M169.18,185.84c-1.02-0.4-2.06-0.65-3.09-0.75c1.26-2.28,1.48-5.31-1.22-10.06
			l-1.24-2.18l-1.62,1.91c-3.21,3.79-4.33,7.62-3.3,10.93c-9.81-2.24-17.18-0.92-26.33,1.8c5-7.88,10.61-14.05,16.77-18.44
			c3.25,0.39,6.44,1.16,9.54,1.91c4.52,1.09,9.13,2.21,14.03,2.21c0.21,0,0.41,0,0.62-0.01
			C172.48,177.61,171.08,181.86,169.18,185.84z M186.33,165.93c-10.02,5.69-18.18,3.72-26.82,1.63c-1.91-0.46-3.86-0.93-5.86-1.32
			c3.74-2.05,7.66-3.51,11.76-4.32c19.25-3.84,28.66-12.16,32.93-17.62C197.92,150.27,195.74,160.59,186.33,165.93z M196.62,140.68
			c-3.15,4.58-11.76,13.77-31.89,17.78c-1.47,0.29-2.92,0.67-4.35,1.11c1.79-3.89,5.89-10.78,13.86-15.22
			C182.53,139.74,191.89,140.09,196.62,140.68z"/>
	</g>
</g>
<g>
	<g>
		<path class="st0" d="M120.3,298.81c-33.39,0-62.15-11.31-83.15-32.72c-23.5-23.94-35.92-59.95-35.92-104.14v-26.76
			c0-44.44,12.15-78.98,36.11-102.64C58.22,11.93,86.91,1.03,120.3,1.03c34.65,0,64.19,11.07,85.41,32.02
			c23.92,23.62,36.05,57.98,36.05,102.14v26.76c0,44.27-12.59,80.28-36.4,104.15C184.01,287.5,154.6,298.81,120.3,298.81z
			 M120.3,4.03c-32.59,0-60.55,10.6-80.85,30.65C16.08,57.76,4.23,91.57,4.23,135.19v26.76c0,98.69,59.96,133.86,116.07,133.86
			c33.48,0,62.16-11,82.93-31.83c23.24-23.29,35.53-58.58,35.53-102.03v-26.76c0-43.32-11.83-76.97-35.16-100
			C182.95,14.8,154.15,4.03,120.3,4.03z"/>
	</g>
</g>
</svg>
